<?xml version="1.0" standalone="no"?>
<!DOCTYPE svg PUBLIC "-//W3C//DTD SVG 1.1//EN" "http://www.w3.org/Graphics/SVG/1.1/DTD/svg11.dtd" >
<svg xmlns="http://www.w3.org/2000/svg" xmlns:xlink="http://www.w3.org/1999/xlink" version="1.1">
<metadata>
Created by FontForge 20170910 at Fri Feb 16 23:12:09 2001
 By Jimmy Wärting
(URW)++,Copyright 2000 by (URW)++ Design &#38; Development
</metadata>
<defs>
<font id="ClassicoURWTOT-Medium" horiz-adv-x="549" >
  <font-face 
    font-family="Classico URW T OT"
    font-weight="500"
    font-stretch="normal"
    units-per-em="1000"
    panose-1="2 0 0 0 0 0 0 0 0 0"
    ascent="800"
    descent="-200"
    x-height="467"
    cap-height="671"
    bbox="-145 -305 1140 960"
    underline-thickness="59"
    underline-position="-116"
    stemh="36"
    stemv="107"
    unicode-range="U+0020-FB02"
  />
<missing-glyph horiz-adv-x="250" 
 />
    <glyph glyph-name="fi" unicode="fi" 
d="M198 460h105c-1 -11 -2 -17 -2 -23c0 -5 1 -11 2 -23c-20 2 -49 3 -104 4c-1 -12 -1 -26 -1 -28c0 -184 2 -319 5 -393c-29 3 -43 4 -60 4s-31 -1 -60 -4c5 150 7 249 7 323l-1 99c-30 -1 -33 -1 -39 -1c-8 0 -17 -1 -40 -2c1 11 2 17 2 24c0 8 0 12 -2 22l80 -2
c12 167 94 281 204 281c15 0 25 -1 42 -6c-6 -39 -9 -66 -9 -95c0 -10 0 -15 1 -27l-9 -2c-23 26 -53 40 -88 40c-39 0 -66 -27 -66 -65c0 -13 3 -25 12 -50c15 -45 19 -58 21 -76zM365 467c31 -3 47 -4 67 -4s33 1 57 4c-3 -44 -7 -170 -7 -239c0 -79 3 -180 7 -232
c-25 3 -39 4 -59 4s-35 -1 -65 -4c7 68 10 149 10 246c0 92 -3 159 -10 225zM429 698c36 0 66 -30 66 -67c0 -36 -30 -66 -67 -66c-36 0 -66 30 -66 66c0 37 30 67 67 67z" />
    <glyph glyph-name="fl" unicode="fl" horiz-adv-x="546" 
d="M318 620l-9 -1c-22 21 -48 32 -78 32c-39 0 -67 -29 -67 -68c0 -20 1 -24 25 -88c6 -16 8 -23 9 -35h105c-1 -11 -2 -17 -2 -23c0 -5 1 -11 2 -23c-20 2 -49 3 -104 4c-1 -12 -1 -26 -1 -28c0 -184 2 -319 5 -393c-29 3 -43 4 -60 4s-31 -1 -60 -4c5 150 7 249 7 323
l-1 99c-30 -1 -33 -1 -39 -1c-8 0 -17 -1 -40 -2c1 11 2 17 2 24c0 8 0 12 -2 22l80 -2c5 72 19 123 48 174c41 74 92 107 165 107c16 0 25 -1 59 -4c33 -3 55 -4 71 -4c18 0 30 1 56 4c-5 -63 -9 -231 -9 -369c0 -152 3 -293 9 -371c-35 2 -48 3 -62 3c-15 0 -27 -1 -62 -3
c6 105 8 208 8 371c0 161 -3 287 -8 363c-22 -27 -44 -78 -47 -111z" />
    <glyph glyph-name=".notdef" horiz-adv-x="250" 
 />
    <glyph glyph-name="space" unicode=" " horiz-adv-x="250" 
 />
    <glyph glyph-name="space" unicode="&#xa0;" horiz-adv-x="250" 
 />
    <glyph glyph-name="exclam" unicode="!" horiz-adv-x="276" 
d="M148 191h-24l-54 378c-2 12 -3 25 -3 34c0 48 26 77 69 77c42 0 65 -24 65 -70c0 -12 -1 -25 -3 -39zM137 129c39 0 71 -32 71 -71s-32 -71 -72 -71c-38 0 -70 33 -70 71c0 39 32 71 71 71z" />
    <glyph glyph-name="quotedbl" unicode="&#x22;" horiz-adv-x="390" 
d="M123 349h-22l-42 239c-2 11 -3 22 -3 32c0 35 23 60 56 60c30 0 51 -22 51 -54c0 -11 -2 -28 -4 -44zM294 349h-22l-42 239c-2 11 -3 23 -3 32c0 35 24 60 56 60c31 0 52 -21 52 -54c0 -7 -2 -27 -5 -44z" />
    <glyph glyph-name="numbersign" unicode="#" 
d="M418 658l-17 -100h94l-14 -75h-93l-51 -294h97l-13 -76h-97l-18 -99h-38l16 99h-94l-17 -99h-38l17 99h-91l14 76h90l52 294h-92l12 75h92l18 100h39l-17 -100h93l18 100h38zM349 483h-94l-50 -294h94z" />
    <glyph glyph-name="dollar" unicode="$" 
d="M427 527h-11c-28 61 -71 94 -127 97v-233c64 -17 98 -30 126 -47c59 -34 84 -78 84 -144c0 -112 -87 -200 -211 -212l1 -52c1 -17 1 -32 3 -52c-13 2 -19 3 -28 3c-8 0 -13 -1 -23 -3c1 13 2 19 3 103c-73 1 -147 25 -192 63c10 27 21 71 24 98h14
c27 -70 86 -117 155 -123v258c-65 19 -90 29 -115 45c-51 32 -79 83 -79 144c0 104 73 175 195 188c-1 25 -2 51 -3 77c17 -2 20 -2 26 -2c5 0 10 0 23 2c-2 -15 -4 -58 -4 -77c71 -1 138 -21 174 -50c-16 -26 -30 -60 -35 -83zM246 403v220c-62 -7 -102 -49 -102 -107
c0 -55 31 -90 102 -113zM289 272v-245c67 8 112 57 112 125c0 59 -31 93 -112 120z" />
    <glyph glyph-name="percent" unicode="%" horiz-adv-x="775" 
d="M373 348l127 251c25 50 44 88 61 129c11 -2 17 -2 26 -2c7 0 13 0 27 1c-31 -55 -100 -187 -207 -396c-125 -244 -131 -255 -207 -418c-9 2 -14 2 -24 2s-17 0 -30 -2c30 57 106 202 227 435zM586 324c100 0 163 -63 163 -163s-64 -163 -165 -163
c-102 0 -166 63 -166 163c0 102 63 163 168 163zM585 294c-52 0 -77 -44 -77 -135c0 -88 26 -133 76 -133s76 45 76 134c0 88 -26 134 -75 134zM194 673c100 0 163 -63 163 -163s-63 -163 -165 -163s-166 63 -166 163c0 102 63 163 168 163zM193 643c-52 0 -77 -44 -77 -135
c0 -88 26 -133 76 -133c51 0 76 45 76 134c0 88 -26 134 -75 134z" />
    <glyph glyph-name="ampersand" unicode="&#x26;" horiz-adv-x="700" 
d="M666 6v-10c-30 3 -47 4 -81 4c-31 0 -49 -1 -80 -4c-7 10 -12 18 -16 24l-30 37c0 1 -5 8 -8 11c-67 -57 -135 -84 -210 -84c-118 0 -195 64 -195 161c0 60 29 110 89 153c20 14 38 25 91 52c-58 87 -69 112 -69 163c0 88 71 151 170 151c89 0 150 -47 150 -115
c0 -59 -46 -118 -132 -169c39 -53 131 -165 167 -204c47 61 93 140 113 196c19 -24 28 -33 49 -50c-29 -45 -100 -136 -137 -175c34 -42 108 -123 129 -141zM323 406l6 4c49 34 82 88 82 135c0 46 -32 80 -75 80s-75 -34 -75 -80c0 -37 7 -54 53 -125zM264 302l-15 19
c-62 -38 -92 -83 -92 -138c0 -78 64 -140 144 -140c45 0 82 16 127 53c-8 11 -40 49 -94 114z" />
    <glyph glyph-name="quoteright" unicode="&#x2019;" horiz-adv-x="263" 
d="M60 370l-21 9l66 239c12 46 32 67 63 67c29 0 54 -23 54 -50c0 -14 -8 -32 -26 -59z" />
    <glyph glyph-name="parenleft" unicode="(" horiz-adv-x="343" 
d="M266 737l27 -12c-100 -92 -145 -215 -145 -397s45 -304 145 -397l-27 -12c-147 112 -212 237 -212 409s64 296 212 409z" />
    <glyph glyph-name="parenright" unicode=")" horiz-adv-x="343" 
d="M77 -81l-28 12c101 92 146 216 146 397s-46 306 -146 397l28 12c147 -113 212 -237 212 -409s-65 -297 -212 -409z" />
    <glyph glyph-name="asterisk" unicode="*" horiz-adv-x="433" 
d="M199 527c-5 55 -10 98 -17 146c16 -2 24 -3 35 -3c10 0 18 1 35 3c-6 -40 -12 -92 -17 -146c52 37 86 63 117 88c9 -24 20 -43 36 -61c-48 -19 -76 -31 -136 -58c49 -22 95 -42 136 -58c-16 -19 -27 -39 -35 -61c-43 34 -68 52 -118 88c3 -40 12 -112 17 -146
c-16 2 -24 3 -35 3s-19 -1 -35 -3c6 40 10 78 17 146c-35 -24 -88 -65 -118 -88c-9 24 -19 42 -35 61c48 19 79 32 135 58c-35 16 -98 43 -135 58c16 20 27 39 35 61c35 -28 66 -51 118 -88z" />
    <glyph glyph-name="plus" unicode="+" 
d="M58 360h176v169h80v-169h176v-74h-176v-169h-80v169h-176v74z" />
    <glyph glyph-name="comma" unicode="," horiz-adv-x="248" 
d="M31 -181l-21 8l66 240c12 46 32 67 63 67c29 0 54 -23 54 -50c0 -14 -8 -32 -26 -59z" />
    <glyph glyph-name="hyphen" unicode="-" horiz-adv-x="241" 
d="M241 311v-86h-241v86h241z" />
    <glyph glyph-name="hyphen" unicode="&#xad;" horiz-adv-x="241" 
d="M241 311v-86h-241v86h241z" />
    <glyph glyph-name="period" unicode="." horiz-adv-x="248" 
d="M124 129c39 0 71 -32 71 -71s-32 -71 -72 -71c-38 0 -70 33 -70 71c0 39 32 71 71 71z" />
    <glyph glyph-name="slash" unicode="/" horiz-adv-x="438" 
d="M438 730l-402 -817c-9 3 -14 3 -24 3c-7 0 -12 0 -23 -2l403 817c11 -2 17 -2 24 -2c6 0 10 0 22 1z" />
    <glyph glyph-name="zero" unicode="0" 
d="M277 657c71 0 133 -31 172 -86c40 -56 59 -138 59 -250c0 -220 -81 -336 -234 -336c-152 0 -233 116 -233 336c0 221 81 336 236 336zM275 621c-81 0 -112 -82 -112 -299c0 -215 31 -299 111 -299c45 0 77 32 92 90c14 52 19 109 19 209s-5 157 -19 209
c-14 57 -48 90 -91 90z" />
    <glyph glyph-name="one" unicode="1" 
d="M350 671l15 -7c-8 -112 -11 -209 -11 -345c0 -130 3 -245 7 -323c-31 3 -45 4 -64 4s-34 -1 -66 -4c9 132 11 216 11 401v80c-1 46 -1 68 -1 71v19c-25 -12 -37 -19 -61 -32c-43 -23 -43 -23 -65 -34c-12 18 -30 38 -44 48c56 17 183 73 279 122z" />
    <glyph glyph-name="two" unicode="2" 
d="M42 -4v32c120 117 145 144 196 209c66 85 100 169 100 252c0 73 -43 126 -103 126c-57 0 -101 -53 -106 -129l-10 -2c-17 22 -41 45 -61 61c36 75 100 112 198 112c133 0 211 -66 211 -178c0 -51 -17 -99 -49 -139c-24 -31 -43 -51 -112 -116c-80 -75 -102 -97 -133 -130
c19 -1 38 -1 43 -1c78 0 169 3 256 9c-4 -21 -5 -32 -5 -52c0 -19 1 -31 5 -54c-55 3 -136 4 -236 4c-78 0 -140 -1 -194 -4z" />
    <glyph glyph-name="three" unicode="3" 
d="M96 129l11 -1c15 -67 55 -104 114 -104c76 0 129 64 129 158c0 86 -46 136 -127 136c-14 0 -22 -1 -40 -4c2 12 3 17 3 23c0 5 0 9 -3 23c11 -1 17 -2 25 -2c80 0 123 50 123 142c0 74 -36 120 -93 120c-54 0 -91 -40 -101 -110l-11 -1c-15 24 -28 41 -52 65
c43 58 97 83 179 83c125 0 200 -57 200 -150c0 -77 -49 -132 -144 -160c111 -20 168 -74 168 -160c0 -120 -106 -202 -260 -202c-76 0 -126 18 -168 60c16 23 28 43 47 84z" />
    <glyph glyph-name="four" unicode="4" 
d="M423 288v-37c34 0 64 1 89 4c-2 -22 -3 -32 -3 -46c0 -13 1 -24 3 -48c-19 1 -53 3 -89 4c2 -104 3 -127 6 -169c-27 3 -40 4 -62 4s-35 -1 -62 -4c5 31 8 104 9 170c-95 -1 -125 -1 -278 -2c2 14 2 21 2 31s0 18 -2 32c10 13 19 26 28 40c55 79 108 156 162 235
c46 66 54 79 102 152c27 -2 39 -3 53 -3c15 0 27 1 51 3c-5 -78 -9 -241 -9 -366zM315 522v41c-60 -89 -130 -192 -210 -311c23 -1 121 -2 179 -2c4 0 14 0 30 1c1 53 1 185 1 271z" />
    <glyph glyph-name="five" unicode="5" 
d="M98 125h12c21 -68 61 -103 120 -103c76 0 129 68 129 166c0 93 -48 152 -123 152c-33 0 -57 -10 -91 -38l-18 11c6 45 8 81 8 137c0 75 -4 144 -10 197l7 5c43 -6 82 -8 156 -8c67 0 113 2 177 7c-5 -25 -6 -39 -6 -57c0 -14 1 -25 4 -49c-64 6 -124 9 -190 9
c-25 0 -43 0 -91 -1c-3 -55 -4 -97 -7 -193h6c34 19 65 27 106 27c118 0 199 -73 199 -180c0 -129 -109 -222 -260 -222c-64 0 -118 15 -167 46c20 40 27 56 39 94z" />
    <glyph glyph-name="six" unicode="6" 
d="M452 591l-9 -2c-19 22 -38 31 -72 31c-68 0 -124 -42 -156 -115c-22 -53 -36 -117 -36 -170v-17c39 51 84 73 149 73c109 0 186 -77 186 -187c0 -129 -94 -219 -228 -219c-145 0 -226 103 -226 286c0 115 28 209 83 278c57 72 132 109 220 109c26 0 44 -2 75 -10
c2 -17 6 -31 14 -57zM290 341c-66 0 -108 -61 -108 -160c0 -97 41 -159 104 -159c65 0 101 60 101 167c0 95 -36 152 -97 152z" />
    <glyph glyph-name="seven" unicode="7" 
d="M527 647l5 -15c-67 -94 -290 -511 -342 -636c-21 3 -32 4 -46 4c-13 0 -22 -1 -60 -4c163 249 237 367 343 551c-117 0 -228 -4 -340 -12c4 27 5 41 5 58s-1 30 -5 58c88 -5 166 -7 266 -7c79 0 135 1 174 3z" />
    <glyph glyph-name="eight" unicode="8" 
d="M360 362c94 -26 143 -86 143 -173c0 -120 -94 -204 -229 -204c-134 0 -228 84 -228 204c0 88 49 147 143 173c-75 21 -117 73 -117 145c0 93 76 150 203 150c126 0 202 -57 202 -150c0 -72 -42 -124 -117 -145zM275 620c-57 0 -90 -45 -90 -122c0 -75 34 -123 89 -123
c54 0 88 47 88 123c0 75 -34 122 -87 122zM276 338c-67 0 -106 -58 -106 -159c0 -97 40 -157 104 -157c65 0 104 60 104 158c0 97 -39 158 -102 158z" />
    <glyph glyph-name="nine" unicode="9" 
d="M72 70l7 5c35 -36 72 -53 112 -53c103 0 171 116 179 303c-40 -49 -83 -70 -144 -70c-112 0 -188 76 -188 189c0 127 95 215 232 215c143 0 220 -99 220 -284c0 -116 -33 -221 -93 -295c-50 -62 -123 -96 -205 -96c-35 0 -65 6 -102 21c-3 11 -4 15 -6 23l-2 9
c-3 8 -5 16 -8 25zM265 620c-66 0 -104 -61 -104 -167c0 -96 37 -152 99 -152c64 0 104 62 104 158c0 98 -39 161 -99 161z" />
    <glyph glyph-name="colon" unicode=":" horiz-adv-x="248" 
d="M124 129c39 0 71 -32 71 -71s-32 -71 -72 -71c-38 0 -70 33 -70 71c0 39 32 71 71 71zM124 460c39 0 71 -32 71 -71s-32 -71 -72 -71c-38 0 -70 33 -70 71c0 39 32 71 71 71z" />
    <glyph glyph-name="semicolon" unicode=";" horiz-adv-x="248" 
d="M30 -181l-21 8l66 240c12 46 32 67 63 67c29 0 54 -23 54 -50c0 -14 -8 -32 -26 -59zM128 460c39 0 71 -32 71 -71s-32 -71 -72 -71c-38 0 -70 33 -70 71c0 39 32 71 71 71z" />
    <glyph glyph-name="less" unicode="&#x3c;" horiz-adv-x="534" 
d="M19 204v43l461 181l34 -50l-389 -153l389 -153l-45 -52z" />
    <glyph glyph-name="equal" unicode="=" 
d="M58 437h432v-71h-432v71zM58 279h432v-71h-432v71z" />
    <glyph glyph-name="greater" unicode="&#x3e;" horiz-adv-x="534" 
d="M514 245v-43l-450 -184l-45 51l389 154l-389 153l34 50z" />
    <glyph glyph-name="question" unicode="?" horiz-adv-x="404" 
d="M292 240l8 -6c-5 -8 -10 -18 -16 -37c-24 -5 -37 -7 -54 -7c-75 0 -130 49 -130 116c0 46 19 79 83 145c52 54 69 82 69 115c0 40 -34 71 -77 71c-41 0 -69 -20 -89 -62h-11c1 10 1 14 1 19c0 12 0 19 -3 49c35 26 72 38 121 38c98 0 164 -55 164 -138
c0 -34 -13 -70 -35 -98c-18 -23 -18 -23 -86 -94c-32 -32 -43 -53 -43 -77c0 -28 23 -50 53 -50c16 0 27 4 45 16zM202 129c39 0 71 -32 71 -71c0 -40 -32 -71 -72 -71c-38 0 -70 32 -70 71s32 71 71 71z" />
    <glyph glyph-name="at" unicode="@" horiz-adv-x="674" 
d="M442 480l73 9l-48 -227c-4 -22 -7 -42 -7 -52c0 -24 14 -39 37 -39c60 0 109 87 109 193c0 132 -88 216 -227 216c-170 0 -287 -124 -287 -305c0 -154 95 -252 244 -252c75 0 150 30 212 85l-5 -29c-67 -57 -145 -86 -228 -86c-173 0 -290 110 -290 274
c0 92 36 180 100 243c65 64 149 96 250 96c163 0 272 -95 272 -237c0 -120 -83 -229 -175 -229c-48 0 -82 37 -78 85v2c-38 -59 -75 -84 -122 -84c-61 0 -99 46 -99 122c0 125 77 229 171 229c42 0 67 -16 85 -56zM363 467c-28 0 -52 -19 -72 -58c-22 -40 -39 -107 -39 -155
c0 -45 19 -72 51 -72c28 0 53 20 71 58c19 39 40 124 40 161c0 39 -21 66 -51 66z" />
    <glyph glyph-name="A" unicode="A" horiz-adv-x="658" 
d="M359 677c127 -317 231 -569 283 -681c-37 3 -54 4 -74 4s-36 -1 -69 -4c-17 56 -50 148 -81 225c-42 2 -70 2 -114 2c-48 0 -78 -1 -126 -2c-42 -108 -45 -115 -80 -225c-18 3 -27 4 -40 4c-12 0 -22 -1 -47 -4c48 94 219 487 295 681c14 -2 20 -2 29 -2s14 0 24 2z
M301 512c-69 -160 -70 -161 -100 -238c51 -1 70 -1 103 -1c34 0 45 0 93 1c-30 80 -57 146 -96 238z" />
    <glyph glyph-name="B" unicode="B" horiz-adv-x="589" 
d="M353 357c126 -15 187 -70 187 -166c0 -62 -32 -122 -83 -154c-43 -28 -98 -41 -171 -41c-16 0 -41 1 -70 2c-30 1 -53 2 -68 2c-26 0 -42 -1 -71 -4c7 74 11 219 11 387c0 101 -4 223 -10 288c36 -3 55 -4 78 -4c15 0 36 1 65 2s54 2 68 2c69 0 117 -8 155 -24
c47 -21 76 -69 76 -124c0 -86 -56 -142 -167 -166zM205 498l-1 -124c14 -1 23 -2 32 -2c100 0 160 50 160 133c0 78 -46 119 -136 119c-15 0 -28 -1 -52 -4c-3 -61 -3 -78 -3 -122zM204 222v-40c0 -19 1 -106 2 -136c21 -3 34 -4 51 -4c49 0 81 10 106 32
c29 26 46 67 46 115c0 91 -55 138 -160 138c-17 0 -25 0 -44 -2l-1 -52v-51z" />
    <glyph glyph-name="C" unicode="C" horiz-adv-x="679" 
d="M639 114l6 -5c-4 -15 -5 -18 -8 -27c-2 -5 -5 -18 -10 -37l-3 -10c-64 -37 -127 -53 -209 -53c-226 0 -368 131 -368 341c0 222 148 362 383 362c81 0 153 -16 215 -47c-11 -27 -19 -60 -25 -103h-11c-25 59 -97 98 -180 98c-149 0 -245 -120 -245 -305
c0 -181 96 -296 247 -296c76 0 149 29 208 82z" />
    <glyph glyph-name="D" unicode="D" horiz-adv-x="760" 
d="M77 671c32 -3 51 -4 83 -4c16 0 50 1 100 2c37 1 74 2 103 2c119 0 186 -18 244 -67c69 -57 107 -147 107 -252c0 -110 -41 -206 -116 -271c-67 -59 -148 -85 -263 -85c-21 0 -62 1 -100 2c-32 1 -56 2 -75 2c-30 0 -50 -1 -83 -4c6 64 11 220 11 336
c0 123 -4 250 -11 339zM211 49c31 -4 51 -5 80 -5c98 0 158 19 204 64c53 53 82 135 82 237c0 94 -25 170 -73 217c-43 43 -100 60 -201 60c-35 0 -58 -2 -92 -7c-2 -47 -5 -203 -5 -278c0 -102 2 -227 5 -288z" />
    <glyph glyph-name="E" unicode="E" horiz-adv-x="495" 
d="M229 323h-22c-1 -8 -1 -12 -1 -14c0 -65 3 -199 5 -251c11 -1 22 -1 26 -1c62 0 164 6 213 12c-3 -16 -4 -24 -4 -36s1 -21 4 -37c-59 2 -148 4 -179 4c-54 0 -154 -2 -194 -4c7 94 11 219 11 344c0 132 -4 261 -10 331c47 -4 115 -6 192 -6c61 0 138 3 182 6
c-3 -16 -4 -25 -4 -37c0 -13 1 -21 4 -38c-70 7 -128 9 -239 11c-4 -96 -5 -148 -6 -227c12 -1 23 -1 26 -1c61 0 149 4 206 9c-4 -17 -5 -25 -5 -38c0 -12 1 -20 5 -35c-52 4 -155 8 -210 8z" />
    <glyph glyph-name="F" unicode="F" horiz-adv-x="472" 
d="M206 323v-29c0 -125 4 -241 10 -298c-30 3 -46 4 -67 4c-22 0 -38 -1 -72 -4c6 61 11 217 11 360c0 126 -4 243 -10 315c48 -4 116 -6 191 -6c62 0 139 3 183 6c-3 -16 -4 -25 -4 -37c0 -13 1 -21 4 -38c-55 6 -164 12 -216 12c-3 0 -13 0 -23 -1c-4 -97 -6 -158 -6 -227
c12 -1 24 -1 28 -1c58 0 148 4 204 9c-4 -17 -5 -25 -5 -38c0 -12 1 -20 5 -35c-59 5 -170 8 -233 8z" />
    <glyph glyph-name="G" unicode="G" horiz-adv-x="772" 
d="M664 529h-12c-38 67 -113 105 -204 105c-162 0 -264 -119 -264 -308c0 -181 99 -294 257 -294c49 0 93 9 134 26c3 46 4 77 4 111c0 52 -2 84 -7 134c26 -4 41 -5 63 -5c21 0 37 1 67 4c-6 -51 -8 -100 -8 -172c0 -48 1 -70 4 -101c-109 -34 -184 -47 -271 -47
c-235 0 -380 130 -380 341c0 223 156 362 406 362c95 0 163 -16 239 -57c-17 -45 -23 -67 -28 -99z" />
    <glyph glyph-name="H" unicode="H" horiz-adv-x="763" 
d="M207 328v-56c0 -114 3 -217 9 -276c-29 3 -44 4 -68 4s-40 -1 -71 -4c8 90 11 173 11 351c0 163 -2 234 -11 324c34 -3 50 -4 73 -4s39 1 66 4c-4 -53 -9 -188 -9 -278c24 -1 135 -3 175 -3c39 0 151 2 175 3c1 70 -5 229 -10 278c27 -3 42 -4 67 -4c22 0 40 1 73 4
c-8 -86 -11 -161 -11 -319c0 -180 3 -265 11 -356c-31 3 -47 4 -71 4s-39 -1 -69 -4c7 61 10 151 10 278c0 19 0 32 -1 54c-42 2 -104 3 -174 3s-133 -1 -175 -3z" />
    <glyph glyph-name="I" unicode="I" horiz-adv-x="293" 
d="M77 671c33 -3 50 -4 74 -4c23 0 38 1 65 4c-7 -89 -10 -200 -10 -331c0 -152 4 -281 10 -344c-31 3 -47 4 -69 4s-39 -1 -70 -4c7 75 11 208 11 359c0 136 -4 240 -11 316z" />
    <glyph glyph-name="J" unicode="J" horiz-adv-x="343" 
d="M3 -152l-10 35c6 -1 11 -1 14 -1c38 0 77 16 95 40c22 27 28 62 30 171c1 36 4 265 4 288c0 117 -4 227 -10 290c33 -3 50 -4 69 -4c21 0 37 1 71 4c-7 -80 -11 -194 -11 -316c0 -29 0 -70 1 -125c1 -44 1 -100 1 -119c0 -85 -10 -133 -37 -172
c-42 -59 -109 -92 -190 -92c-9 0 -15 0 -27 1z" />
    <glyph glyph-name="K" unicode="K" horiz-adv-x="613" 
d="M77 671c35 -3 53 -4 76 -4s37 1 61 4c-6 -81 -8 -142 -10 -313c16 3 170 175 280 313c21 -3 31 -4 50 -4c16 0 30 1 56 4c-22 -22 -42 -41 -78 -78c-96 -95 -157 -158 -205 -213c18 -25 25 -34 70 -92c38 -49 96 -126 138 -183c51 -69 60 -81 83 -109c-39 3 -58 4 -81 4
c-24 0 -41 -1 -73 -4c-133 191 -232 324 -240 323c0 -177 2 -251 10 -323c-30 3 -45 4 -69 4s-40 -1 -68 -4c7 94 10 196 10 402c0 98 -5 224 -10 273z" />
    <glyph glyph-name="L" unicode="L" horiz-adv-x="470" 
d="M77 671c35 -3 52 -4 77 -4c23 0 37 1 62 4c-8 -101 -10 -179 -10 -349c0 -98 2 -208 5 -266c22 -1 26 -1 34 -1c65 0 152 5 212 13c-4 -19 -5 -29 -5 -40s1 -18 5 -32c-51 2 -165 4 -193 4c-31 0 -134 -2 -187 -4c6 71 10 196 10 354c0 162 -2 216 -10 321z" />
    <glyph glyph-name="M" unicode="M" horiz-adv-x="905" 
d="M458 180c29 52 31 55 129 246c75 145 117 228 127 249c16 -2 22 -3 28 -3c7 0 12 1 27 3c45 -411 69 -609 84 -679c-32 3 -48 4 -72 4c-21 0 -36 -1 -64 -4c-2 89 -24 335 -43 474c-125 -239 -215 -419 -234 -470c-6 1 -9 1 -14 1s-9 0 -16 -1c-68 143 -110 229 -228 460
c-20 -133 -47 -406 -46 -464c-20 3 -30 4 -42 4c-11 0 -21 -1 -42 -4c26 123 52 297 102 679c14 -2 20 -3 27 -3s14 1 27 3c46 -99 135 -275 250 -495z" />
    <glyph glyph-name="N" unicode="N" horiz-adv-x="751" 
d="M604 186v182c0 122 -2 209 -7 303c20 -3 29 -4 40 -4s20 1 41 4c-13 -138 -17 -287 -17 -596c0 -35 0 -49 1 -84c-15 1 -21 2 -30 2c-8 0 -13 -1 -24 -2c-128 152 -205 236 -459 501c-1 -42 -1 -78 -1 -129c0 -180 3 -281 12 -367c-20 3 -30 4 -43 4c-15 0 -23 -1 -40 -4
c7 93 13 297 13 462c0 89 -2 160 -6 218c19 -1 27 -2 36 -2c10 0 17 1 29 2c36 -42 64 -72 233 -251c68 -73 135 -145 222 -239z" />
    <glyph glyph-name="O" unicode="O" horiz-adv-x="843" 
d="M421 685c236 0 376 -132 376 -356c0 -102 -36 -193 -102 -254c-66 -62 -157 -93 -273 -93c-233 0 -375 133 -375 352c0 217 143 351 374 351zM421 638c-149 0 -237 -113 -237 -305s88 -304 238 -304c149 0 238 112 238 300c0 197 -86 309 -239 309z" />
    <glyph glyph-name="P" unicode="P" horiz-adv-x="556" 
d="M204 295v-34c0 -111 3 -185 12 -265c-34 3 -51 4 -71 4c-22 0 -38 -1 -68 -4c5 65 10 230 10 353c0 129 -2 200 -10 322c36 -3 57 -4 86 -4c18 0 43 1 75 2c30 1 57 2 72 2c147 0 220 -57 220 -172c0 -132 -96 -205 -271 -205c-15 0 -28 0 -55 1zM204 342
c24 -2 27 -2 37 -2c99 0 158 57 158 151c0 91 -44 133 -138 133c-20 0 -31 -1 -50 -4c-4 -38 -7 -132 -7 -278z" />
    <glyph glyph-name="Q" unicode="Q" horiz-adv-x="843" 
d="M538 -2l110 -75c47 -31 83 -54 134 -83c-50 -17 -80 -31 -113 -50c-114 98 -174 145 -243 192h-20c-100 0 -198 34 -259 91c-64 58 -100 151 -100 256c0 217 148 356 377 356c230 0 373 -133 373 -346c0 -174 -93 -296 -259 -341zM424 638c-152 0 -239 -114 -239 -313
c0 -88 16 -154 50 -203c39 -58 109 -93 183 -93c153 0 241 114 241 311c0 186 -89 298 -235 298z" />
    <glyph glyph-name="R" unicode="R" horiz-adv-x="603" 
d="M224 312h-20v-29c0 -102 5 -217 12 -287c-31 3 -48 4 -73 4s-39 -1 -66 -4c7 87 10 213 10 379c0 122 -4 230 -10 296c35 -3 54 -4 84 -4c18 0 45 1 78 2c34 1 61 2 81 2c64 0 109 -10 143 -34c40 -27 64 -74 64 -127c0 -62 -31 -116 -85 -148c-24 -14 -50 -24 -91 -34
c134 -192 159 -228 237 -332c-41 3 -60 4 -84 4s-41 -1 -72 -4c-71 116 -163 255 -208 316zM204 352c16 -1 27 -2 38 -2c97 0 157 56 157 147c0 80 -49 127 -130 127c-9 0 -25 -1 -60 -4c-3 -43 -5 -160 -5 -268z" />
    <glyph glyph-name="S" unicode="S" horiz-adv-x="520" 
d="M424 539h-12c-20 58 -70 95 -130 95c-64 0 -112 -43 -112 -101c0 -32 16 -61 44 -82c22 -16 33 -22 106 -56c60 -28 87 -45 111 -68c32 -31 49 -74 49 -122c0 -60 -26 -119 -70 -160c-46 -43 -106 -63 -185 -63c-66 0 -113 11 -177 42c10 34 18 92 20 134h14
c25 -78 86 -127 158 -127c73 0 127 52 127 122c0 32 -11 58 -33 77c-24 21 -31 25 -113 64c-115 56 -157 106 -157 190c0 121 92 201 231 201c60 0 112 -15 164 -47c-10 -21 -22 -56 -35 -99z" />
    <glyph glyph-name="T" unicode="T" horiz-adv-x="505" 
d="M319 606c-4 -86 -6 -173 -6 -261c0 -159 4 -292 11 -349c-37 3 -53 4 -72 4c-18 0 -34 -1 -68 -4c6 44 11 224 11 380c0 71 -1 139 -5 230c-99 -2 -133 -4 -193 -12c3 15 4 23 4 36c0 15 -1 24 -4 41c107 -6 154 -7 252 -7c100 0 149 1 259 7c-3 -15 -4 -23 -4 -39
c0 -13 1 -22 4 -38c-46 7 -121 12 -189 12z" />
    <glyph glyph-name="U" unicode="U" horiz-adv-x="744" 
d="M79 264l1 76c1 43 2 81 2 108c0 88 -3 163 -8 223c33 -3 50 -4 72 -4c24 0 39 1 67 4c-8 -94 -13 -216 -13 -350c0 -117 9 -165 41 -209c34 -48 84 -71 151 -71c93 0 161 48 184 129c14 49 18 101 18 247c0 117 -1 169 -6 254c19 -3 28 -4 42 -4c15 0 25 1 45 4
c-5 -50 -11 -184 -14 -315c-2 -165 -13 -218 -57 -273c-51 -66 -133 -101 -235 -101c-111 0 -203 38 -248 104c-29 44 -42 97 -42 178z" />
    <glyph glyph-name="V" unicode="V" horiz-adv-x="635" 
d="M350 147c55 128 179 454 199 524c19 -3 29 -4 43 -4c13 0 22 1 41 4c-139 -318 -253 -590 -280 -675c-17 3 -25 4 -37 4c-13 0 -21 -1 -38 -4c-58 161 -93 249 -269 675c34 -3 51 -4 74 -4c25 0 41 1 71 4c52 -157 95 -270 196 -524z" />
    <glyph glyph-name="W" unicode="W" horiz-adv-x="966" 
d="M291 147c96 269 163 467 179 524c21 -3 31 -4 41 -4c11 0 20 1 41 4c23 -81 37 -126 83 -266c15 -42 28 -84 42 -126c24 -74 31 -94 44 -128c80 239 132 410 157 520c19 -3 28 -4 39 -4c10 0 18 1 47 4c-55 -134 -178 -487 -235 -675c-17 3 -26 4 -40 4s-25 -1 -46 -4
c-31 112 -81 267 -165 508c-13 -35 -16 -41 -44 -120c-75 -209 -120 -339 -136 -388c-19 3 -28 4 -42 4c-15 0 -25 -1 -44 -4c-41 155 -94 332 -203 675c30 -3 46 -4 66 -4c22 0 38 1 71 4c30 -128 57 -226 145 -524z" />
    <glyph glyph-name="X" unicode="X" horiz-adv-x="574" 
d="M309 421c77 118 93 145 155 250c20 -3 31 -4 43 -4c14 0 24 1 47 4c-105 -143 -156 -214 -214 -301c40 -71 50 -88 218 -374c-45 3 -64 4 -85 4c-22 0 -37 -1 -65 -4c-51 102 -97 186 -145 269c-72 -108 -133 -211 -161 -269c-18 3 -28 4 -42 4s-25 -1 -47 -4
c97 139 149 215 219 322c-18 32 -40 69 -103 177c-61 102 -96 161 -105 176c38 -3 56 -4 80 -4c25 0 41 1 71 4c15 -34 86 -167 134 -250z" />
    <glyph glyph-name="Y" unicode="Y" horiz-adv-x="571" 
d="M226 244v42c-19 32 -24 41 -59 103c-15 28 -31 55 -47 83c-20 37 -34 62 -53 95c-38 68 -44 78 -60 104c37 -3 55 -4 76 -4s39 1 77 4c17 -46 107 -228 156 -317c69 122 134 250 162 317c19 -3 30 -4 44 -4c15 0 25 1 46 4c-56 -82 -178 -292 -221 -380
c-1 -26 -1 -40 -1 -54c0 -104 3 -195 9 -241c-37 3 -53 4 -72 4c-18 0 -34 -1 -68 -4c7 55 11 157 11 248z" />
    <glyph glyph-name="Z" unicode="Z" horiz-adv-x="619" 
d="M589 672v-17c-78 -106 -247 -368 -386 -598h40c113 0 265 6 341 13c-3 -17 -4 -25 -4 -41c0 -13 1 -20 4 -35c-75 4 -174 7 -276 7c-84 0 -186 -2 -280 -5v17c45 60 268 405 386 597h-32c-83 0 -222 -4 -313 -10c3 18 4 28 4 40s-1 19 -4 33c95 -3 216 -6 266 -6
c54 0 168 2 254 5z" />
    <glyph glyph-name="bracketleft" unicode="[" horiz-adv-x="343" 
d="M294 690l-104 2c-3 -98 -6 -310 -6 -461c0 -108 1 -210 3 -268l104 4c-1 -4 -1 -8 -1 -10c-1 -7 -1 -11 -1 -14c0 -4 0 -8 2 -18c-45 3 -68 4 -96 4c-26 0 -38 0 -98 -4c3 100 6 312 6 398c0 186 0 221 -4 408c57 -3 72 -4 91 -4c14 0 36 1 104 4c-2 -8 -2 -12 -2 -19
s0 -12 2 -22z" />
    <glyph glyph-name="backslash" unicode="\" horiz-adv-x="438" 
d="M403 -87l-403 817c12 -1 17 -1 22 -1c7 0 13 0 24 2l403 -817c-11 2 -17 2 -23 2c-9 0 -14 -1 -23 -3z" />
    <glyph glyph-name="bracketright" unicode="]" horiz-adv-x="343" 
d="M49 -34l104 -2c3 114 6 321 6 462c0 92 -1 201 -3 267l-104 -4c1 4 1 8 1 10c1 6 1 11 1 13c0 5 0 9 -2 19c45 -3 68 -4 96 -4c26 0 38 0 98 4c-3 -117 -6 -318 -6 -398c0 -194 0 -226 4 -408c-57 3 -72 4 -91 4c-14 0 -36 -1 -104 -4c2 8 2 12 2 20c0 7 0 12 -2 21z" />
    <glyph glyph-name="asciicircum" unicode="^" horiz-adv-x="441" 
d="M108 434l-58 18l143 246h46l152 -246l-60 -18l-113 186z" />
    <glyph glyph-name="underscore" unicode="_" horiz-adv-x="500" 
d="M0 -86h500v-59h-500v59z" />
    <glyph glyph-name="quoteleft" unicode="&#x2018;" horiz-adv-x="263" 
d="M202 678l21 -9l-66 -239c-12 -46 -32 -67 -63 -67c-29 0 -54 23 -54 50c0 14 7 32 26 59z" />
    <glyph glyph-name="a" unicode="a" horiz-adv-x="503" 
d="M95 345h-11v13c0 16 -2 29 -9 55c59 45 110 63 179 63c63 0 114 -21 142 -58c21 -29 28 -59 28 -123c0 -9 0 -9 -1 -83v-34c0 -69 1 -100 4 -113c5 -20 20 -33 40 -33c5 0 9 1 18 2v-18c-28 -17 -53 -24 -83 -24c-46 0 -71 19 -85 65c-42 -51 -85 -73 -141 -73
c-83 0 -137 49 -137 125c0 54 26 95 74 117c16 8 16 8 132 35c49 12 66 28 66 63c0 57 -41 98 -100 98c-50 0 -92 -28 -116 -77zM315 195l-1 19c-1 10 0 19 2 34c-7 -1 -7 -1 -14 -3c-57 -17 -97 -31 -111 -41c-24 -17 -36 -44 -36 -81c0 -51 26 -82 69 -82
c34 0 68 21 81 50c7 16 12 68 10 104z" />
    <glyph glyph-name="b" unicode="b" horiz-adv-x="556" 
d="M77 -9h-20c7 110 8 144 8 243v128c0 217 -2 298 -7 374c23 -3 37 -4 59 -4s37 1 62 4c-5 -90 -5 -95 -7 -346c29 57 79 86 148 86c122 0 196 -88 196 -234c0 -153 -91 -259 -222 -259c-62 0 -108 23 -138 69c-30 -18 -59 -41 -79 -61zM284 424c-73 0 -113 -72 -113 -205
s33 -194 106 -194c75 0 117 76 117 210c0 122 -39 189 -110 189z" />
    <glyph glyph-name="c" unicode="c" horiz-adv-x="480" 
d="M430 348h-15c-12 53 -56 88 -111 88c-86 0 -142 -79 -142 -199c0 -123 62 -200 161 -200c46 0 87 18 120 51l11 -6c-9 -25 -12 -39 -14 -53c-51 -32 -95 -45 -155 -45c-150 0 -246 95 -246 243c0 152 102 249 262 249c63 0 113 -13 159 -41c-14 -30 -25 -63 -30 -87z" />
    <glyph glyph-name="d" unicode="d" horiz-adv-x="556" 
d="M377 736c31 -3 45 -4 62 -4c18 0 32 1 62 4c-7 -77 -10 -233 -10 -442c0 -104 3 -247 6 -298c-28 3 -42 4 -60 4c-19 0 -31 -1 -55 -4c3 42 4 58 5 90c-35 -72 -80 -102 -153 -102c-120 0 -195 91 -195 237c0 155 80 255 204 255c68 0 113 -27 141 -83
c0 184 -2 281 -7 343zM277 423c-75 0 -115 -71 -115 -203c0 -119 38 -185 106 -185c72 0 116 79 116 210c0 112 -40 178 -107 178z" />
    <glyph glyph-name="e" unicode="e" horiz-adv-x="504" 
d="M441 92l10 -6l-3 -8c-8 -20 -10 -27 -13 -45c-56 -35 -101 -49 -160 -49c-144 0 -236 95 -236 245c0 153 86 247 227 247c130 0 204 -78 204 -214c0 -5 -1 -18 -2 -32c-40 2 -92 3 -156 3l-151 -1c-1 -7 -1 -13 -1 -15c0 -111 57 -180 149 -180c49 0 90 17 132 55z
M260 274h26c41 0 47 0 71 2c-2 50 -4 70 -10 91c-13 47 -41 72 -82 72c-60 0 -99 -61 -103 -164c26 -1 32 -1 98 -1z" />
    <glyph glyph-name="f" unicode="f" horiz-adv-x="308" 
d="M198 459h105c-1 -11 -2 -17 -2 -23c0 -5 1 -11 2 -23c-23 2 -43 3 -52 3l-52 1c-1 -12 -1 -26 -1 -28c0 -184 2 -319 5 -393c-28 3 -42 4 -60 4s-32 -1 -60 -4c5 150 7 249 7 323l-1 99c-30 -1 -33 -1 -39 -1c-8 0 -17 -1 -40 -2c1 11 2 17 2 24c0 8 0 12 -2 22l80 -2
c12 166 94 281 203 281c21 0 40 -4 62 -14c-16 -29 -30 -76 -33 -112l-10 -4c-20 26 -48 40 -81 40c-39 0 -66 -27 -66 -65c0 -13 3 -25 12 -50c15 -45 19 -58 21 -76z" />
    <glyph glyph-name="g" unicode="g" horiz-adv-x="528" 
d="M517 422l-116 3c35 -34 46 -58 46 -100c0 -63 -35 -115 -92 -137c-35 -13 -51 -15 -128 -18c-31 -2 -49 -16 -49 -39c0 -15 9 -27 27 -33c14 -6 37 -8 110 -9c99 -2 121 -5 151 -24c36 -22 55 -63 55 -115c0 -130 -105 -217 -261 -217c-140 0 -228 57 -228 149
c0 64 38 105 116 126c-43 14 -64 39 -64 76c0 43 22 66 90 93c-81 22 -123 71 -123 143c0 99 74 156 204 156c32 0 32 0 121 -9c21 -2 42 -3 68 -3c24 0 42 1 73 4c-2 -10 -3 -16 -3 -24c0 -7 1 -12 3 -22zM255 442c-61 0 -89 -41 -89 -128c0 -73 28 -110 84 -110
c57 0 85 41 85 123c0 78 -26 115 -80 115zM263 3c-49 0 -77 -5 -101 -18c-28 -16 -46 -49 -46 -87c0 -74 66 -129 155 -129c88 0 148 54 148 133c0 73 -44 101 -156 101z" />
    <glyph glyph-name="h" unicode="h" horiz-adv-x="548" 
d="M174 411v-22c43 60 91 87 154 87c45 0 86 -16 115 -45s42 -65 42 -116c0 -13 -1 -42 -2 -73c-1 -24 -2 -49 -2 -72c0 -54 3 -137 5 -174c-32 3 -45 4 -61 4c-15 0 -28 -1 -62 -4c6 83 9 167 9 252c0 54 -4 86 -14 108c-15 32 -45 51 -82 51c-40 0 -72 -23 -89 -63
c-10 -25 -13 -54 -13 -120c0 -67 3 -169 7 -228c-29 3 -43 4 -60 4c-16 0 -30 -1 -64 -4c6 97 9 228 9 403c0 131 -2 217 -8 337c26 -3 38 -4 64 -4c25 0 36 1 59 4c-3 -52 -7 -185 -7 -258v-67z" />
    <glyph glyph-name="i" unicode="i" horiz-adv-x="241" 
d="M59 467c31 -3 46 -4 66 -4c21 0 34 1 58 4c-4 -48 -8 -173 -8 -240c0 -79 3 -175 8 -231c-26 3 -39 4 -60 4c-20 0 -35 -1 -64 -4c6 70 9 152 9 245c0 96 -3 161 -9 226zM123 698c36 0 66 -30 66 -67c0 -36 -30 -66 -67 -66c-36 0 -66 30 -66 66c0 37 30 67 67 67z" />
    <glyph glyph-name="j" unicode="j" horiz-adv-x="257" 
d="M-42 -269l-11 31h12c52 0 89 30 102 83c10 46 17 212 17 433c0 90 -1 141 -4 188c27 -4 42 -5 62 -5c21 0 35 1 61 5c-9 -114 -12 -228 -11 -444c-1 -134 -18 -190 -70 -239c-43 -39 -88 -53 -158 -52zM136 696c36 0 66 -30 66 -67c0 -36 -30 -66 -66 -66
c-37 0 -67 30 -67 66c0 37 30 67 67 67z" />
    <glyph glyph-name="k" unicode="k" horiz-adv-x="488" 
d="M484 2l-2 -6c-32 3 -48 4 -66 4c-19 0 -35 -1 -68 -4c-44 68 -101 152 -121 177c-43 55 -43 55 -49 55c-2 0 -4 0 -6 -1l1 -125c1 -38 1 -64 2 -80c0 -9 0 -12 1 -26c-30 3 -44 4 -61 4c-16 0 -30 -1 -58 -4c6 91 9 225 9 385c0 169 -3 289 -8 355c28 -3 41 -4 60 -4
c18 0 33 1 64 4c-6 -100 -10 -275 -9 -479c20 -8 59 31 207 210c18 -2 27 -3 41 -3c20 0 34 1 58 6c-13 -13 -18 -17 -103 -96c-25 -24 -42 -40 -46 -44l-40 -40l-9 -9l10 -15c70 -99 135 -187 193 -264z" />
    <glyph glyph-name="l" unicode="l" horiz-adv-x="239" 
d="M57 736c26 -3 40 -4 62 -4s36 1 62 4c-5 -63 -8 -229 -8 -368c0 -152 3 -295 8 -372c-34 3 -47 4 -62 4s-29 -1 -62 -4c6 102 9 209 9 366c0 169 -3 299 -9 374z" />
    <glyph glyph-name="m" unicode="m" horiz-adv-x="832" 
d="M61 467c25 -3 37 -4 59 -4s34 1 56 4c-1 -16 -2 -35 -3 -79c39 59 88 88 152 88c70 0 114 -30 136 -94c35 62 89 94 157 94c46 0 87 -16 114 -44c26 -27 37 -60 37 -112c0 -13 -1 -48 -3 -82c-1 -31 -2 -59 -2 -82c0 -40 2 -117 5 -160c-30 3 -44 4 -63 4s-32 -1 -57 -4
c5 101 8 190 8 270c0 53 -3 77 -13 96c-14 28 -43 45 -76 45c-35 0 -66 -19 -82 -50c-12 -24 -18 -71 -18 -145c0 -66 2 -154 6 -216c-27 3 -40 4 -60 4c-17 0 -32 -1 -60 -4c5 59 9 150 9 216c0 88 -3 127 -13 148c-14 31 -40 47 -75 47c-43 0 -75 -23 -88 -63
c-10 -30 -12 -59 -12 -173c0 -60 2 -132 6 -175c-33 3 -46 4 -60 4s-27 -1 -60 -4c6 79 9 164 9 253c0 88 -3 154 -9 218z" />
    <glyph glyph-name="n" unicode="n" horiz-adv-x="551" 
d="M175 400l-1 -12c42 61 91 89 157 89c96 0 156 -61 156 -162c0 -16 -1 -45 -2 -75c-1 -33 -2 -64 -2 -93c0 -55 2 -111 5 -151c-29 3 -42 4 -63 4c-18 0 -32 -1 -57 -4c3 45 7 163 7 219c0 74 -3 109 -12 132c-15 40 -44 60 -85 60c-43 0 -77 -26 -90 -67
c-10 -31 -12 -59 -12 -177c0 -63 1 -98 5 -167c-27 3 -41 4 -59 4c-17 0 -31 -1 -61 -4c5 56 8 144 8 244c0 78 -2 131 -8 227c29 -3 43 -4 62 -4s32 1 55 4c-2 -16 -2 -22 -2 -40c-1 -20 -1 -23 -1 -27z" />
    <glyph glyph-name="o" unicode="o" horiz-adv-x="562" 
d="M283 476c155 0 240 -89 240 -250c0 -151 -92 -242 -242 -242c-152 0 -242 91 -242 246s90 246 244 246zM281 440c-79 0 -119 -71 -119 -210s40 -210 119 -210c78 0 119 71 119 207c0 144 -38 213 -119 213z" />
    <glyph glyph-name="p" unicode="p" horiz-adv-x="559" 
d="M60 467c32 -2 45 -3 60 -3s23 0 57 3c-2 -20 -4 -64 -4 -80c25 59 75 90 145 90c123 0 202 -96 202 -246c0 -149 -79 -246 -201 -246c-68 0 -117 30 -145 88c2 -186 4 -250 8 -338c-30 4 -45 5 -62 5c-18 0 -32 -1 -60 -5c5 69 9 232 9 332c0 182 -3 329 -9 400zM295 421
c-78 0 -116 -64 -116 -196c0 -121 40 -189 112 -189s112 69 112 196c0 124 -38 189 -108 189z" />
    <glyph glyph-name="q" unicode="q" horiz-adv-x="559" 
d="M381 455l-1 12c26 -3 39 -4 56 -4c16 0 30 1 62 4c-4 -53 -8 -198 -8 -316c0 -177 3 -322 8 -416c-28 4 -42 5 -60 5s-32 -1 -61 -5c4 73 5 119 7 245c1 31 1 54 1 68c0 4 0 13 1 24c-32 -61 -77 -88 -145 -88c-123 0 -202 96 -202 245c0 152 77 247 201 247
c71 0 120 -30 144 -89v5v7c0 6 -1 13 -2 44zM274 420c-74 0 -112 -65 -112 -192c0 -122 41 -193 112 -193c73 0 111 66 111 191c0 128 -38 194 -111 194z" />
    <glyph glyph-name="r" unicode="r" horiz-adv-x="351" 
d="M333 363l-9 -7c-19 10 -33 14 -50 14c-40 0 -73 -23 -89 -61c-8 -21 -11 -49 -11 -123c0 -63 3 -140 7 -190c-33 3 -46 4 -59 4c-15 0 -27 -1 -61 -4c6 55 8 125 8 236c0 86 -2 135 -8 235c31 -3 44 -4 59 -4s27 1 53 4c-1 -24 -2 -66 -2 -115c33 78 84 124 139 124
c7 0 13 -1 26 -3c-4 -22 -6 -40 -6 -62c0 -15 1 -25 3 -48z" />
    <glyph glyph-name="s" unicode="s" horiz-adv-x="408" 
d="M58 113h11c23 -56 68 -90 120 -90c51 0 90 31 90 73c0 36 -20 54 -89 79c-60 22 -85 35 -107 53c-26 22 -42 59 -42 99c0 91 70 149 180 149c56 0 100 -10 140 -32l-4 -13c-4 -11 -8 -22 -12 -34c-2 -6 -6 -19 -13 -44h-12c-14 56 -53 87 -107 87c-46 0 -79 -29 -79 -69
c0 -25 13 -45 38 -59c21 -13 32 -17 90 -35c85 -28 119 -64 119 -128c0 -96 -86 -165 -205 -165c-48 0 -87 8 -137 29c6 15 14 59 19 100z" />
    <glyph glyph-name="t" unicode="t" horiz-adv-x="314" 
d="M196 623l6 -6l-1 -15c-1 -23 -3 -45 -5 -68c0 0 -1 -34 -3 -76l102 3c-2 -17 -2 -20 -2 -25s0 -8 2 -23c-11 1 -24 1 -102 2c-1 -19 -2 -183 -2 -257c0 -59 2 -77 11 -97c9 -21 28 -32 55 -32c16 0 30 2 53 9l-5 -33c-39 -14 -71 -20 -101 -20c-80 0 -124 48 -124 135
c0 10 0 31 1 52c3 99 4 176 4 243c-59 -1 -59 -1 -77 -3c2 12 2 17 2 26c0 7 0 12 -2 22l78 -3v14c0 12 0 23 -2 42c-2 27 -2 36 -3 61c32 8 72 25 115 49z" />
    <glyph glyph-name="u" unicode="u" horiz-adv-x="551" 
d="M66 222l1 103c0 51 -1 87 -4 142c31 -3 45 -4 64 -4c18 0 31 1 56 4c-4 -73 -7 -192 -7 -244c0 -72 4 -103 16 -125c15 -27 45 -44 80 -44c45 0 80 28 93 75c8 30 9 45 9 174c0 52 -2 128 -5 164c32 -3 46 -4 63 -4s31 1 57 4c-5 -94 -7 -150 -7 -244
c0 -100 2 -168 6 -227c-23 3 -36 4 -54 4c-17 0 -30 -1 -60 -4c2 26 3 35 4 81c-35 -60 -90 -93 -158 -93c-45 0 -83 14 -111 40c-32 31 -44 66 -44 132c0 9 0 38 1 66z" />
    <glyph glyph-name="v" unicode="v" horiz-adv-x="465" 
d="M260 113c58 148 97 255 129 354c17 -3 26 -4 35 -4s17 1 39 4c-77 -167 -164 -380 -192 -471c-20 3 -29 4 -41 4s-22 -1 -43 -4c-45 133 -116 318 -181 471c36 -3 51 -4 68 -4c19 0 33 1 60 4c30 -94 73 -216 119 -336c3 -6 5 -12 7 -18z" />
    <glyph glyph-name="w" unicode="w" horiz-adv-x="736" 
d="M238 121c43 117 85 248 111 346c23 -3 34 -4 49 -4s25 1 43 4c19 -75 62 -215 107 -346c49 134 78 221 116 346c20 -3 27 -4 35 -4s15 1 37 4c-75 -176 -157 -389 -181 -471c-21 3 -30 4 -42 4c-11 0 -21 -1 -41 -4c-19 72 -55 187 -107 339c-25 -65 -80 -229 -114 -339
c-26 3 -35 4 -45 4c-12 0 -21 -1 -42 -4c-48 166 -64 213 -158 471c34 -3 47 -4 63 -4c13 0 22 1 63 4c36 -130 61 -210 106 -346z" />
    <glyph glyph-name="x" unicode="x" horiz-adv-x="453" 
d="M247 300c25 34 60 86 105 155c3 4 6 8 8 12c18 -3 26 -4 38 -4c10 0 19 1 42 4c-47 -54 -90 -107 -166 -205c56 -90 75 -119 170 -266c-32 3 -47 4 -69 4c-21 0 -37 -1 -68 -4c-16 31 -70 124 -106 180c-62 -91 -86 -128 -117 -180c-16 3 -24 4 -34 4c-9 0 -16 -1 -41 -4
c86 112 144 190 166 222c-15 21 -23 33 -53 80c-49 76 -79 122 -111 169c41 -3 56 -4 75 -4s35 1 64 4c26 -49 63 -112 97 -167z" />
    <glyph glyph-name="y" unicode="y" horiz-adv-x="457" 
d="M263 134c42 97 83 205 128 333c17 -3 25 -4 37 -4c11 0 20 1 38 4c-192 -421 -268 -599 -313 -733c-18 4 -28 5 -43 5s-25 -1 -45 -4c69 121 125 228 137 262c-12 33 -19 52 -46 115c-28 68 -58 139 -92 221c-27 65 -36 87 -57 134c34 -3 50 -4 71 -4c20 0 33 1 57 4
c29 -88 82 -227 128 -333z" />
    <glyph glyph-name="z" unicode="z" horiz-adv-x="472" 
d="M449 467v-30c-85 -111 -175 -234 -285 -389c69 0 206 5 276 10c-2 -12 -3 -23 -3 -36c0 -9 1 -14 3 -26c-56 3 -156 5 -226 5c-66 0 -149 -2 -202 -4v29c133 177 221 297 285 390h-30c-54 0 -143 -4 -214 -10c2 13 3 20 3 29c0 10 -1 17 -3 32c70 -2 172 -3 245 -3
c57 0 93 1 151 3z" />
    <glyph glyph-name="braceleft" unicode="{" horiz-adv-x="342" 
d="M197 601v-151c0 -64 -15 -95 -58 -123c44 -28 58 -58 58 -123v-149c-1 -80 12 -93 96 -92v-39c-81 0 -103 4 -130 23c-35 23 -49 59 -49 121v129c0 70 -15 100 -55 112v39c40 11 55 41 55 109v134c0 60 15 96 49 118c28 18 51 22 130 22v-39c-83 0 -97 -13 -96 -91z" />
    <glyph glyph-name="bar" unicode="|" horiz-adv-x="567" 
d="M253 667h60v-834h-60v834z" />
    <glyph glyph-name="braceright" unicode="}" horiz-adv-x="343" 
d="M145 55v149c0 65 14 95 58 123c-43 28 -58 59 -58 123v151c0 80 -11 91 -96 91v39c79 0 102 -4 130 -22c34 -22 49 -58 49 -118v-134c0 -68 15 -98 55 -109v-39c-40 -12 -55 -42 -55 -112v-129c0 -62 -14 -98 -49 -121c-27 -19 -49 -23 -130 -23v39c85 0 96 10 96 92z
" />
    <glyph glyph-name="asciitilde" unicode="~" horiz-adv-x="490" 
d="M49 588l-18 53c45 38 81 54 120 54c22 0 46 -6 92 -23c46 -16 68 -22 90 -22c38 0 69 15 107 52l13 -57c-41 -40 -82 -59 -127 -59c-25 0 -48 5 -97 23c-47 16 -69 22 -87 22c-32 0 -61 -14 -93 -43z" />
    <glyph glyph-name="exclamdown" unicode="&#xa1;" horiz-adv-x="276" 
d="M126 271h24l54 -377c2 -12 3 -25 3 -34c0 -48 -26 -77 -69 -77c-42 0 -65 25 -65 69c0 12 1 26 3 39zM138 476c38 0 70 -33 70 -71c0 -39 -32 -71 -71 -71s-71 32 -71 71s32 71 72 71z" />
    <glyph glyph-name="cent" unicode="&#xa2;" 
d="M462 439l-10 1c-15 54 -53 86 -104 89v-412c50 1 89 17 120 48l9 -4c-8 -19 -11 -29 -17 -55c-32 -20 -64 -30 -112 -33c0 -43 1 -82 4 -106c-11 2 -17 2 -24 2s-13 -1 -26 -2c3 38 3 40 4 106c-149 4 -245 98 -245 242c0 96 45 177 121 217c35 18 73 28 124 31
c0 14 -2 51 -4 82c12 -1 18 -2 27 -2c8 0 13 0 23 2c-2 -17 -4 -57 -4 -80c58 -2 115 -18 140 -39c-10 -20 -19 -51 -26 -87zM306 119v408c-79 -16 -125 -90 -125 -201c0 -113 50 -195 125 -207z" />
    <glyph glyph-name="sterling" unicode="&#xa3;" 
d="M460 540l-11 3c-5 56 -37 89 -88 89c-60 0 -95 -47 -95 -130c0 -14 1 -38 3 -61c2 -38 3 -54 4 -82c70 1 110 2 151 5c-2 -14 -3 -21 -3 -30c0 -7 0 -12 1 -23c-23 2 -38 3 -73 3c-37 1 -63 1 -77 1c-3 -91 -44 -172 -109 -213v-5c19 -1 30 -1 42 -1c120 0 234 3 300 8
c-4 -22 -5 -35 -5 -57c0 -21 1 -33 5 -51c-67 2 -153 4 -235 4c-97 0 -188 -2 -237 -4c5 19 6 30 6 49c0 17 -1 27 -5 46c7 -1 13 -1 16 -1c79 0 112 44 112 147c0 26 -2 45 -7 78c-64 -3 -83 -4 -113 -7c2 12 3 17 3 27c0 9 -1 15 -3 28c28 -3 54 -5 79 -5c10 0 17 0 30 1
v13l-4 34l-1 34c0 147 80 232 217 232c61 0 105 -16 143 -52c-20 -26 -33 -48 -46 -80z" />
    <glyph glyph-name="fraction" unicode="&#x2044;" horiz-adv-x="94" 
d="M243 663l-337 -666c-10 2 -14 2 -22 2s-16 -1 -29 -2l339 666c8 -1 12 -1 19 -1s12 0 30 1z" />
    <glyph glyph-name="fraction" unicode="&#x2215;" horiz-adv-x="94" 
d="M243 663l-337 -666c-10 2 -14 2 -22 2s-16 -1 -29 -2l339 666c8 -1 12 -1 19 -1s12 0 30 1z" />
    <glyph glyph-name="yen" unicode="&#xa5;" 
d="M332 258v-56c12 -1 25 -1 28 -1c44 0 100 2 138 4c-2 -10 -3 -15 -3 -21c0 -5 0 -8 2 -24c-52 3 -118 5 -165 6c-1 -11 -1 -23 -1 -25c0 -36 2 -98 6 -145c-29 3 -44 4 -62 4c-17 0 -32 -1 -64 -4c4 33 8 106 10 167c-46 -1 -61 -1 -161 -5c2 10 2 15 2 20
c0 7 -1 13 -3 24c32 -1 59 -2 83 -2c45 0 72 0 80 -1v57c-94 0 -128 -1 -163 -3c2 11 2 15 2 21c0 7 0 12 -2 23c30 -3 56 -4 78 -4c39 -1 65 -1 78 -1c-5 10 -9 17 -10 20c-14 23 -28 47 -42 71l-48 84c-19 34 -59 103 -108 184c25 -3 39 -4 68 -4c32 0 46 1 73 5
c44 -97 132 -270 157 -308c65 118 128 248 149 307c17 -4 26 -5 39 -5c12 0 22 1 44 4c-22 -34 -28 -44 -80 -135c-45 -79 -83 -146 -112 -200c-3 -6 -7 -13 -10 -20c65 1 109 2 161 5c-2 -10 -2 -15 -2 -21c0 -5 0 -10 2 -23c-47 1 -76 2 -123 2h-41z" />
    <glyph glyph-name="florin" unicode="&#x192;" 
d="M508 545h-16c-15 56 -40 82 -78 82c-25 0 -47 -15 -60 -41c-12 -26 -18 -53 -29 -123c-7 -48 -10 -69 -16 -102h28c29 0 83 1 114 2c-5 -16 -10 -36 -11 -49c-33 3 -74 5 -113 5c-3 0 -15 0 -26 -1c-26 -155 -35 -206 -52 -276c-18 -74 -44 -131 -79 -171
c-40 -46 -104 -74 -167 -74c-24 0 -40 3 -66 12c9 26 13 47 18 98h15c7 -44 28 -66 64 -66c30 0 57 22 72 60c17 42 17 42 56 251c19 97 19 97 31 165c-61 -1 -66 -1 -112 -3c4 20 5 21 7 48c24 -2 46 -3 79 -3c12 0 19 0 33 1c15 91 34 150 62 201c39 72 112 115 194 115
c35 0 64 -7 96 -22c-15 -24 -35 -73 -44 -109z" />
    <glyph glyph-name="section" unicode="&#xa7;" 
d="M106 16h12c27 -58 81 -94 144 -94c64 0 115 42 115 95c0 46 -32 72 -139 114c-126 48 -165 87 -165 165c0 52 22 91 73 132c-27 28 -40 59 -40 97c0 94 80 160 192 160c59 0 101 -15 143 -50c-11 -14 -21 -35 -35 -73h-12c-17 50 -57 79 -109 79c-56 0 -97 -35 -97 -83
c0 -46 28 -70 134 -110c116 -45 155 -84 155 -157c0 -49 -19 -88 -65 -131c37 -32 51 -61 51 -102c0 -48 -23 -97 -61 -130c-38 -34 -90 -51 -155 -51c-58 0 -99 12 -155 44c7 30 11 56 14 95zM168 409c-23 -22 -32 -41 -32 -65c0 -43 26 -67 115 -104
c84 -35 106 -45 137 -62c19 23 28 43 28 63c0 40 -26 62 -119 102c-74 32 -100 46 -129 66z" />
    <glyph glyph-name="currency" unicode="&#xa4;" horiz-adv-x="557" 
d="M22 110l86 86c-28 39 -41 78 -41 122s12 79 41 121l-87 86l48 49l87 -87c43 29 79 41 124 41c44 0 79 -12 121 -40l86 85l48 -48l-85 -85c30 -45 42 -79 42 -123c0 -43 -12 -78 -41 -120l86 -87l-47 -48l-87 86c-40 -29 -79 -42 -123 -42c-43 0 -79 12 -124 42l-86 -86z
M281 454c-77 0 -138 -60 -138 -137c0 -75 61 -137 136 -137c76 0 137 61 137 137c0 75 -61 137 -135 137z" />
    <glyph glyph-name="quotesingle" unicode="'" horiz-adv-x="219" 
d="M123 349h-22l-42 239c-2 11 -3 22 -3 32c0 35 23 60 56 60c30 0 51 -22 51 -54c0 -11 -2 -28 -4 -44z" />
    <glyph glyph-name="quotedblleft" unicode="&#x201c;" horiz-adv-x="446" 
d="M385 678l21 -9l-66 -239c-12 -46 -32 -67 -63 -67c-29 0 -54 23 -54 50c0 14 7 31 26 59zM202 678l21 -9l-66 -239c-12 -46 -32 -67 -63 -67c-29 0 -54 23 -54 50c0 14 7 32 26 59z" />
    <glyph glyph-name="guillemotleft" unicode="&#xab;" horiz-adv-x="418" 
d="M182 235c4 6 7 11 11 16c18 28 37 56 56 84c30 45 46 70 64 102c17 -14 31 -22 60 -36c-16 -22 -57 -78 -122 -166c65 -87 105 -143 122 -165c-29 -14 -43 -23 -60 -37c-27 48 -31 54 -120 186c-4 6 -7 11 -11 16zM212 75l4 -5c-27 -14 -42 -23 -59 -37
c-26 45 -30 52 -121 186c-3 6 -7 11 -10 16c3 6 7 11 10 16l57 84c32 48 46 71 64 102c17 -13 32 -23 59 -36c-6 -9 -27 -37 -61 -86c-52 -68 -52 -68 -60 -80c8 -12 20 -26 60 -80l51 -71z" />
    <glyph glyph-name="guilsinglleft" unicode="&#x2039;" horiz-adv-x="265" 
d="M215 75l4 -5c-27 -14 -42 -23 -59 -37c-26 45 -30 52 -121 186c-3 6 -7 11 -10 16c3 6 7 11 10 16l57 84c32 48 46 71 64 102c17 -13 32 -23 59 -36c-6 -9 -27 -37 -61 -86c-52 -68 -52 -68 -60 -80c8 -12 20 -26 60 -80l51 -71z" />
    <glyph glyph-name="guilsinglright" unicode="&#x203a;" horiz-adv-x="262" 
d="M57 386l-11 15c28 13 43 23 60 36c25 -44 30 -52 120 -186c3 -5 7 -10 10 -16c-3 -5 -7 -10 -10 -16l-56 -83c-32 -48 -47 -72 -64 -103c-17 14 -32 23 -60 37c7 8 27 37 62 85c31 42 48 64 60 80c-7 9 -27 36 -60 80c-17 24 -34 48 -51 71z" />
    <glyph glyph-name="endash" unicode="&#x2013;" 
d="M488 307v-78h-427v78h427z" />
    <glyph glyph-name="dagger" unicode="&#x2020;" 
d="M226 454l-1 105c-1 36 -2 71 -6 114c23 -3 36 -4 55 -4c20 0 32 1 55 4c-4 -48 -7 -135 -7 -219c56 1 141 4 169 7c-2 -17 -3 -26 -3 -41c0 -16 1 -28 3 -50c-42 3 -131 6 -169 6c-2 -43 -2 -63 -2 -101c0 -126 3 -281 7 -355c-25 2 -37 3 -53 3c-14 0 -28 -1 -58 -3
c7 83 11 201 11 351c0 17 0 45 -1 105c-106 -1 -109 -1 -167 -6c2 22 3 32 3 44c0 10 -1 20 -3 47c63 -5 105 -7 146 -7h21z" />
    <glyph glyph-name="daggerdbl" unicode="&#x2021;" 
d="M226 236v140c-106 -1 -109 -1 -167 -6c2 22 3 32 3 44c0 10 -1 20 -3 47c63 -5 105 -7 146 -7h21l-1 105c-1 36 -2 71 -6 114c23 -3 36 -4 55 -4c20 0 32 1 55 4c-4 -48 -7 -135 -7 -219c56 1 141 4 169 7c-2 -17 -3 -26 -3 -41c0 -16 1 -28 3 -50c-42 3 -131 6 -169 6
c-2 -36 -2 -47 -2 -75c0 0 1 -49 1 -64c90 0 113 1 170 5c-2 -21 -3 -31 -3 -42c0 -12 0 -21 3 -48c-71 5 -93 6 -169 7c0 -109 2 -178 5 -239c-25 2 -37 3 -53 3c-14 0 -28 -1 -58 -3c6 76 8 106 9 238c-91 -1 -134 -3 -166 -6c2 17 3 26 3 41c0 17 -1 28 -3 49
c42 -3 92 -4 167 -6z" />
    <glyph glyph-name="periodcentered" unicode="&#xb7;" horiz-adv-x="248" 
d="M124 313c39 0 71 -32 71 -71s-32 -71 -72 -71c-38 0 -70 33 -70 71c0 39 32 71 71 71z" />
    <glyph glyph-name="periodcentered" unicode="&#x2219;" horiz-adv-x="248" 
d="M124 313c39 0 71 -32 71 -71s-32 -71 -72 -71c-38 0 -70 33 -70 71c0 39 32 71 71 71z" />
    <glyph glyph-name="paragraph" unicode="&#xb6;" 
d="M529 663v-30l-108 -9c-25 -2 -25 -2 -25 -23v-609c0 -66 -6 -99 -22 -129c-19 -35 -59 -55 -108 -55c-66 0 -114 38 -114 90c0 37 28 65 65 65c33 0 57 -22 57 -54c0 -15 -2 -20 -18 -43c-2 -2 -3 -5 -3 -8c0 -12 13 -20 31 -20c22 0 45 13 57 31c16 24 22 57 22 113
l-2 295c-172 1 -267 75 -267 210c0 114 67 176 188 176h247z" />
    <glyph glyph-name="bullet" unicode="&#x2022;" horiz-adv-x="447" 
d="M223 463c67 0 120 -53 120 -119s-54 -120 -120 -120s-119 54 -119 122c0 63 55 117 119 117z" />
    <glyph glyph-name="quotesinglbase" unicode="&#x201a;" horiz-adv-x="263" 
d="M60 -176l-21 9l66 239c12 46 32 67 63 67c29 0 54 -23 54 -50c0 -14 -8 -32 -26 -59z" />
    <glyph glyph-name="quotedblbase" unicode="&#x201e;" horiz-adv-x="446" 
d="M60 -176l-21 9l66 239c12 46 32 67 63 67c29 0 54 -23 54 -50c0 -14 -8 -32 -26 -59zM243 -176l-21 9l66 239c13 46 32 67 63 67c29 0 54 -23 54 -50c0 -14 -8 -33 -25 -59z" />
    <glyph glyph-name="quotedblright" unicode="&#x201d;" horiz-adv-x="446" 
d="M60 370l-21 9l66 239c12 46 32 67 63 67c29 0 54 -23 54 -50c0 -14 -8 -32 -26 -59zM243 370l-21 9l66 239c13 46 32 67 63 67c29 0 54 -23 54 -50c0 -14 -8 -33 -25 -59z" />
    <glyph glyph-name="guillemotright" unicode="&#xbb;" horiz-adv-x="418" 
d="M57 386l-11 15c28 13 43 23 60 36c25 -44 30 -52 120 -186c3 -5 7 -10 10 -16c-3 -5 -7 -10 -10 -16l-56 -83c-32 -48 -47 -72 -64 -103c-17 14 -32 23 -60 37c24 32 64 88 122 165c-7 9 -27 36 -60 80c-17 24 -34 48 -51 71zM393 235c-7 -11 -30 -44 -67 -99
c-31 -47 -46 -71 -64 -103c-16 13 -32 23 -60 37c4 5 7 8 11 14c31 43 68 94 111 151c-2 3 -29 39 -60 80c-17 24 -34 48 -51 71c-3 5 -7 10 -11 15c28 14 44 23 60 36c18 -31 33 -55 64 -102c55 -82 56 -83 67 -100z" />
    <glyph glyph-name="ellipsis" unicode="&#x2026;" horiz-adv-x="759" 
d="M124 129c39 0 71 -32 71 -71s-32 -71 -72 -71c-38 0 -70 33 -70 71c0 39 32 71 71 71zM380 129c39 0 71 -32 71 -71s-32 -71 -72 -71c-38 0 -70 33 -70 71c0 39 32 71 71 71zM635 129c39 0 71 -32 71 -71c0 -40 -32 -71 -72 -71c-38 0 -70 32 -70 71s32 71 71 71z" />
    <glyph glyph-name="perthousand" unicode="&#x2030;" horiz-adv-x="1166" 
d="M373 348l127 251c25 50 44 88 61 129c11 -2 17 -2 26 -2c7 0 13 0 27 1c-31 -55 -100 -187 -207 -396c-125 -244 -131 -255 -207 -418c-9 2 -14 2 -24 2s-17 0 -30 -2c30 57 106 202 227 435zM586 324c100 0 163 -63 163 -163s-64 -163 -165 -163
c-102 0 -166 63 -166 163c0 102 63 163 168 163zM585 294c-52 0 -77 -44 -77 -135c0 -88 26 -133 76 -133s76 45 76 134c0 88 -26 134 -75 134zM194 673c100 0 163 -63 163 -163s-63 -163 -165 -163s-166 63 -166 163c0 102 63 163 168 163zM193 643c-52 0 -77 -44 -77 -135
c0 -88 26 -133 76 -133c51 0 76 45 76 134c0 88 -26 134 -75 134zM977 324c99 0 163 -63 163 -163c0 -101 -63 -163 -166 -163c-101 0 -165 62 -165 163c0 102 63 163 168 163zM976 294c-52 0 -77 -44 -77 -135c0 -88 26 -133 76 -133c51 0 76 45 76 134
c0 88 -26 134 -75 134z" />
    <glyph glyph-name="questiondown" unicode="&#xbf;" horiz-adv-x="404" 
d="M113 222l-9 6c4 6 10 18 17 37c23 5 35 7 53 7c75 0 130 -49 130 -116c0 -46 -18 -79 -83 -145c-52 -54 -69 -83 -69 -116c0 -39 34 -70 77 -70c41 0 69 19 89 62h11c-1 -9 -1 -13 -1 -18c0 -11 1 -28 3 -50c-35 -26 -71 -37 -121 -37c-98 0 -164 55 -164 137
c0 34 13 70 35 99c18 22 18 22 86 93c32 33 43 53 43 77c0 29 -22 50 -53 50c-16 0 -27 -4 -44 -16zM203 476c38 0 70 -33 70 -71c0 -39 -32 -71 -71 -71s-71 32 -71 71s32 71 72 71z" />
    <glyph glyph-name="grave" unicode="`" horiz-adv-x="500" 
d="M304 541h-39l-149 82c-27 14 -37 27 -37 43c0 19 16 35 36 35c19 0 31 -7 62 -37z" />
    <glyph glyph-name="acute" unicode="&#xb4;" horiz-adv-x="497" 
d="M196 543l127 123c32 30 43 37 62 37c20 0 36 -16 36 -35c0 -16 -10 -29 -36 -43l-150 -82h-39z" />
    <glyph glyph-name="circumflex" unicode="&#x2c6;" horiz-adv-x="500" 
d="M252 638l-115 -96h-37l125 162h57l119 -162h-36z" />
    <glyph glyph-name="tilde" unicode="&#x2dc;" horiz-adv-x="490" 
d="M385 680h27c-16 -69 -50 -106 -98 -106c-21 0 -39 5 -76 19c-42 18 -54 21 -71 21c-24 0 -42 -16 -52 -45h-27c14 65 52 105 100 105c20 0 40 -5 77 -20c46 -19 55 -21 69 -21c23 0 42 17 51 47z" />
    <glyph glyph-name="macron" unicode="&#xaf;" horiz-adv-x="500" 
d="M103 644h295v-53h-295v53z" />
    <glyph glyph-name="macron" unicode="&#x2c9;" horiz-adv-x="500" 
d="M103 644h295v-53h-295v53z" />
    <glyph glyph-name="breve" unicode="&#x2d8;" horiz-adv-x="500" 
d="M108 691h26c11 -51 53 -80 116 -80c64 0 105 29 116 80h26c-1 -84 -58 -140 -142 -140s-140 56 -142 140z" />
    <glyph glyph-name="dotaccent" unicode="&#x2d9;" horiz-adv-x="500" 
d="M250 682c32 0 58 -26 58 -58s-26 -58 -58 -58s-58 26 -58 59c0 31 26 57 58 57z" />
    <glyph glyph-name="dieresis" unicode="&#xa8;" horiz-adv-x="500" 
d="M148 682c32 0 58 -26 58 -58c0 -31 -26 -57 -58 -57c-31 0 -57 26 -57 58c0 31 26 57 57 57zM352 682c32 0 58 -26 58 -58c0 -31 -26 -57 -58 -57c-31 0 -57 26 -57 58c0 31 26 57 57 57z" />
    <glyph glyph-name="ring" unicode="&#x2da;" horiz-adv-x="500" 
d="M251 732c64 0 105 -39 105 -100c0 -62 -41 -100 -106 -100c-66 0 -107 38 -107 100c0 63 40 100 108 100zM250 711c-38 0 -60 -29 -60 -79c0 -49 22 -79 60 -79c37 0 59 29 59 79c0 49 -22 79 -59 79z" />
    <glyph glyph-name="cedilla" unicode="&#xb8;" horiz-adv-x="485" 
d="M234 0h39l-2 -62c18 5 27 6 40 6c51 0 85 -25 85 -62c0 -51 -50 -85 -125 -85c-39 0 -70 8 -105 25l12 22c24 -10 47 -15 74 -15c41 0 67 18 67 46c0 23 -19 39 -47 39c-10 0 -17 -1 -31 -6l-7 7v85z" />
    <glyph glyph-name="hungarumlaut" unicode="&#x2dd;" horiz-adv-x="500" 
d="M187 549h-37l103 122c22 26 37 36 55 36c22 0 42 -18 42 -38c0 -14 -9 -26 -29 -38zM337 549h-38l104 122c21 26 37 36 55 36c21 0 41 -18 41 -38c0 -14 -9 -26 -29 -38z" />
    <glyph glyph-name="ogonek" unicode="&#x2db;" horiz-adv-x="500" 
d="M309 0h66c-55 -30 -78 -53 -78 -78c0 -28 21 -44 58 -44c13 0 23 1 42 5l11 -29c-29 -8 -46 -10 -70 -10c-67 0 -108 28 -108 74c0 36 22 59 79 82z" />
    <glyph glyph-name="caron" unicode="&#x2c7;" horiz-adv-x="500" 
d="M249 607l115 96h37l-125 -162h-57l-119 162h36z" />
    <glyph glyph-name="emdash" unicode="&#x2014;" horiz-adv-x="705" 
d="M705 307v-78h-705v78h705z" />
    <glyph glyph-name="AE" unicode="&#xc6;" horiz-adv-x="846" 
d="M337 236h-65c-15 0 -29 0 -54 -1c-13 -22 -34 -60 -63 -111c-26 -48 -43 -82 -64 -128c-18 3 -28 4 -42 4c-16 0 -29 -1 -55 -5c5 6 9 14 14 21c100 153 169 261 207 324c23 36 54 87 105 169c30 48 68 109 88 139c5 8 10 16 14 23c45 -2 119 -4 183 -4c66 0 161 2 201 4
c-2 -16 -3 -23 -3 -38c0 -13 1 -21 3 -37c-100 10 -119 11 -231 13c-4 -89 -5 -118 -5 -189v-40h30c56 0 145 3 196 7c-4 -16 -5 -24 -5 -35c0 -10 1 -19 4 -39c-34 4 -149 9 -224 10c-1 -38 -2 -133 -2 -206c0 -19 0 -34 2 -60c77 0 174 5 237 12c-3 -16 -4 -25 -4 -40
c0 -12 1 -19 4 -33c-22 1 -158 4 -181 4c-67 0 -153 -2 -186 -4c5 33 10 149 10 239c-47 0 -65 0 -114 1zM451 288v27c1 111 1 166 1 166c0 55 0 61 -2 138l-199 -328c36 -2 100 -3 158 -3h42z" />
    <glyph glyph-name="ordfeminine" unicode="&#xaa;" horiz-adv-x="329" 
d="M69 470h-13c1 5 1 9 1 11c0 10 -1 16 -7 34c39 28 71 39 115 39c40 0 73 -13 91 -36c14 -17 18 -35 18 -75c0 -4 0 -4 -1 -48v-23c0 -33 1 -56 2 -63c3 -10 11 -17 23 -17c3 0 6 0 14 2v-17c-19 -11 -36 -15 -55 -15c-28 0 -42 9 -54 35c-32 -31 -51 -40 -86 -40
c-53 0 -88 31 -88 77c0 33 17 59 48 73c10 4 10 4 82 21c29 6 38 14 38 33c0 32 -24 55 -58 55c-31 0 -55 -16 -70 -46zM200 412c-81 -23 -92 -31 -92 -70c0 -28 15 -45 38 -45c25 0 45 15 50 37c2 11 3 28 3 61c0 8 0 12 1 17z" />
    <glyph glyph-name="Lslash" unicode="&#x141;" horiz-adv-x="485" 
d="M345 468l26 -39c-85 -36 -120 -51 -150 -65c-1 -33 -1 -42 -1 -64c0 -67 3 -203 5 -244c17 -1 25 -1 38 -1c60 0 144 5 208 13c-4 -19 -5 -28 -5 -39c0 -12 1 -19 5 -33c-50 2 -165 4 -193 4c-30 0 -134 -2 -187 -4c6 63 11 196 10 329l-49 -21c-15 -7 -29 -13 -50 -23
l-27 36c65 27 107 45 126 53c1 141 -1 203 -10 301c35 -3 53 -4 78 -4c22 0 36 1 62 4c-7 -76 -10 -167 -10 -261c49 21 94 42 124 58z" />
    <glyph glyph-name="Oslash" unicode="&#xd8;" horiz-adv-x="843" 
d="M187 43l-90 -101l-31 28l90 97c-74 68 -109 154 -109 266c0 217 142 351 373 351c98 0 174 -20 237 -62l90 100l31 -29l-88 -97c72 -66 107 -152 107 -264c0 -217 -143 -351 -374 -351c-97 0 -171 20 -236 62zM225 144l372 412c-42 54 -102 81 -176 81
c-149 0 -237 -113 -237 -304c0 -78 13 -136 41 -189zM619 520l-372 -411c43 -54 101 -81 176 -81c149 0 237 113 237 304c0 78 -12 136 -41 188z" />
    <glyph glyph-name="OE" unicode="&#x152;" horiz-adv-x="1023" 
d="M636 579v20l-3 49l-1 23c32 -3 91 -4 177 -4c39 0 77 1 176 4c-3 -18 -4 -28 -4 -41c0 -12 1 -19 3 -36c-57 8 -141 13 -200 13h-31c-4 -51 -6 -152 -6 -228h27c51 0 142 3 199 7c-4 -16 -5 -24 -5 -36s1 -20 4 -37c-67 6 -141 10 -201 10c-2 0 -14 0 -24 -1
c-1 -14 -1 -41 -2 -82c-1 -59 -1 -62 -1 -77c0 -31 0 -44 2 -107c98 1 170 4 237 11c-2 -29 -2 -32 -2 -39c0 -10 0 -17 2 -32c-40 2 -149 4 -204 4c-47 0 -82 -1 -157 -4l2 19c1 17 2 35 3 53l2 19c-69 -73 -146 -105 -249 -105c-88 0 -170 28 -229 77
c-68 59 -104 149 -104 264c0 224 133 362 350 362c103 0 173 -31 239 -106zM413 637c-145 0 -231 -117 -231 -312c0 -179 86 -296 217 -296c70 0 133 31 173 85c41 55 60 129 60 231c0 187 -79 292 -219 292z" />
    <glyph glyph-name="ordmasculine" unicode="&#xba;" horiz-adv-x="365" 
d="M183 554c98 0 152 -54 152 -151c0 -90 -58 -146 -153 -146c-96 0 -153 56 -153 148c0 94 57 149 154 149zM182 526c-47 0 -70 -40 -70 -121c0 -79 24 -120 70 -120s70 41 70 119c0 83 -22 122 -70 122z" />
    <glyph glyph-name="ae" unicode="&#xe6;" horiz-adv-x="765" 
d="M701 89l10 -5c-2 -5 -2 -8 -3 -9l-5 -13c-1 -3 -3 -10 -5 -21l-2 -8c-52 -35 -103 -51 -164 -51c-83 0 -149 35 -192 103c-37 -68 -91 -102 -162 -102c-85 0 -139 49 -139 126c0 52 26 92 76 116c7 4 50 16 130 38c57 16 71 28 71 62c0 57 -43 96 -105 96
c-53 0 -86 -22 -116 -77h-11c0 30 -3 47 -10 67c63 48 111 65 177 65c62 0 101 -17 139 -62c36 42 80 61 144 61c126 0 196 -74 196 -206c0 -7 -1 -23 -2 -41c-54 2 -155 3 -305 4c0 -58 6 -90 21 -119c26 -49 73 -77 129 -77c46 0 87 17 128 53zM316 246
c-58 -16 -93 -26 -105 -31c-37 -16 -56 -47 -56 -93c0 -50 27 -81 70 -81c34 0 63 18 78 49c11 23 14 44 14 113c0 13 0 26 -1 43zM619 274v13c0 96 -32 150 -90 150c-63 0 -98 -54 -105 -163c21 -1 48 -1 97 -1c72 0 72 0 98 1z" />
    <glyph glyph-name="dotlessi" unicode="&#x131;" horiz-adv-x="241" 
d="M59 467c31 -3 46 -4 66 -4c21 0 34 1 58 4c-4 -48 -8 -173 -8 -238c0 -78 3 -177 8 -233c-26 3 -39 4 -59 4c-21 0 -36 -1 -65 -4c6 76 9 151 9 246c0 94 -3 159 -9 225z" />
    <glyph glyph-name="lslash" unicode="&#x142;" horiz-adv-x="289" 
d="M-4 308l-26 35c53 22 94 39 122 51c-1 201 -3 264 -8 342c26 -3 40 -4 62 -4s36 1 62 4c-4 -43 -7 -147 -8 -305c46 20 55 24 95 44l25 -37c-13 -6 -24 -10 -60 -26l-60 -26c0 -194 3 -322 8 -390c-34 3 -47 4 -62 4s-29 -1 -62 -4c6 115 7 161 8 354
c-31 -13 -59 -25 -96 -42z" />
    <glyph glyph-name="oslash" unicode="&#xf8;" horiz-adv-x="562" 
d="M125 30l-74 -80l-30 27l74 80c-38 45 -56 101 -56 174c0 155 90 245 244 245c65 0 113 -14 155 -44l72 78l31 -28l-73 -79c37 -44 55 -102 55 -175c0 -152 -91 -244 -241 -244c-64 0 -114 15 -157 46zM169 139l211 229c-18 47 -51 72 -98 72c-80 0 -120 -70 -120 -212
c0 -33 2 -56 7 -89zM393 321l-211 -229c19 -48 51 -72 97 -72c81 0 121 70 121 210c0 32 -2 58 -7 91z" />
    <glyph glyph-name="oe" unicode="&#x153;" horiz-adv-x="855" 
d="M792 90l10 -6c-7 -17 -13 -36 -15 -52c-50 -33 -101 -49 -158 -49c-71 0 -127 25 -172 76c-43 -50 -103 -75 -179 -75c-149 0 -239 92 -239 244c0 153 92 248 242 248c76 0 133 -23 176 -70c41 48 91 70 159 70c132 0 206 -78 206 -216c0 -5 -1 -18 -2 -32
c-57 4 -97 5 -233 5c-27 0 -51 0 -76 -1v-13c0 -112 58 -183 150 -183c49 0 91 17 131 54zM281 439c-78 0 -119 -75 -119 -216c0 -134 40 -203 118 -203c44 0 79 24 96 66c14 37 23 92 23 146c0 138 -39 207 -118 207zM709 274c1 110 -30 165 -92 165
c-61 0 -99 -60 -104 -164c32 -2 62 -2 128 -2c39 0 43 0 68 1z" />
    <glyph glyph-name="germandbls" unicode="&#xdf;" horiz-adv-x="550" 
d="M254 83h9c26 -35 55 -51 91 -51c48 0 86 35 86 79c0 41 -24 73 -92 120c-83 58 -102 82 -102 129c0 37 7 50 64 120c43 53 61 93 61 133c0 53 -37 90 -90 90c-44 0 -76 -24 -92 -69c-9 -26 -12 -70 -12 -157c0 -236 1 -350 6 -481c-36 3 -50 4 -65 4c-17 0 -30 -1 -55 -4
c5 95 7 167 7 278c0 33 -1 77 -2 122c-1 42 -2 79 -2 93c0 88 14 137 52 180c41 46 95 69 165 69c92 0 153 -45 153 -115c0 -39 -14 -64 -67 -123c-30 -32 -40 -51 -40 -73c0 -32 21 -55 95 -105c74 -49 98 -85 98 -143c0 -97 -101 -195 -202 -195c-28 0 -57 7 -86 21
c10 22 17 48 20 78z" />
    <glyph glyph-name="onesuperior" unicode="&#xb9;" horiz-adv-x="357" 
d="M225 670l13 -6c-5 -56 -7 -127 -7 -210c0 -78 2 -138 5 -190c-24 3 -32 3 -44 3c-11 0 -15 0 -44 -3v8l1 9c4 63 6 121 6 209l-1 109c-14 -6 -19 -9 -33 -16c-15 -8 -25 -13 -29 -15l-7 -3l-7 -4c-8 12 -18 24 -27 30c-1 0 -3 2 -6 5c37 10 109 39 169 69l7 3z" />
    <glyph glyph-name="logicalnot" unicode="&#xac;" horiz-adv-x="584" 
d="M29 251h508v-282h-62v223h-446v59z" />
    <glyph glyph-name="mu" unicode="&#xb5;" horiz-adv-x="548" 
d="M126 28c6 -141 8 -165 26 -256c-17 3 -26 4 -41 4s-25 -1 -45 -4c6 125 9 235 9 380c0 134 -3 222 -9 315c23 -3 36 -4 56 -4s32 1 54 4c-3 -88 -5 -179 -5 -236c0 -73 5 -108 19 -133c16 -27 46 -44 81 -44c46 0 81 28 94 75c8 30 9 45 9 174c0 52 -3 128 -5 164
c25 -3 37 -4 55 -4c19 0 31 1 54 4c-5 -85 -7 -150 -7 -246c0 -97 2 -166 7 -225c-25 3 -38 4 -52 4c-13 0 -25 -1 -53 -4c3 25 3 39 4 81c-33 -58 -90 -93 -151 -93c-41 0 -69 13 -100 44z" />
    <glyph glyph-name="mu" unicode="&#x3bc;" horiz-adv-x="548" 
d="M126 28c6 -141 8 -165 26 -256c-17 3 -26 4 -41 4s-25 -1 -45 -4c6 125 9 235 9 380c0 134 -3 222 -9 315c23 -3 36 -4 56 -4s32 1 54 4c-3 -88 -5 -179 -5 -236c0 -73 5 -108 19 -133c16 -27 46 -44 81 -44c46 0 81 28 94 75c8 30 9 45 9 174c0 52 -3 128 -5 164
c25 -3 37 -4 55 -4c19 0 31 1 54 4c-5 -85 -7 -150 -7 -246c0 -97 2 -166 7 -225c-25 3 -38 4 -52 4c-13 0 -25 -1 -53 -4c3 25 3 39 4 81c-33 -58 -90 -93 -151 -93c-41 0 -69 13 -100 44z" />
    <glyph glyph-name="trademark" unicode="&#x2122;" horiz-adv-x="817" 
d="M190 627c-1 -31 -3 -95 -3 -145c0 -92 2 -164 7 -198c-26 2 -35 3 -45 3c-11 0 -21 -1 -43 -3c3 28 6 123 6 217c0 39 -1 78 -2 126c-52 -1 -79 -3 -113 -8c2 12 3 17 3 25c0 7 -1 13 -3 26c68 -4 93 -5 149 -5c60 0 92 1 155 5c-2 -12 -3 -17 -3 -26c0 -8 1 -13 3 -25
c-27 4 -65 7 -111 8zM567 397c12 20 14 25 72 133c44 82 68 129 75 142c13 -2 14 -2 18 -2c3 0 6 0 18 2c28 -249 40 -339 50 -388c-22 2 -32 3 -46 3c-13 0 -21 -1 -39 -3c-1 49 -13 175 -24 260c-76 -140 -118 -222 -132 -257c-6 1 -8 1 -11 1s-5 0 -10 -1
c-37 74 -65 129 -130 251c-12 -87 -25 -218 -25 -254c-15 2 -21 3 -27 3s-11 0 -28 -3c15 67 30 169 60 388c11 -2 14 -2 18 -2s8 0 18 2c26 -55 77 -152 143 -275z" />
    <glyph glyph-name="Eth" unicode="&#xd0;" horiz-adv-x="772" 
d="M99 331c-63 0 -78 0 -109 -2c1 11 1 16 1 26c0 8 0 12 -1 22c21 -1 71 -2 109 -2c-2 183 -3 202 -10 296c32 -3 51 -4 83 -4c16 0 50 1 100 2c37 1 74 2 103 2c118 0 186 -18 244 -67c69 -57 107 -147 107 -252c0 -110 -41 -206 -116 -271c-67 -59 -148 -85 -263 -85
c-21 0 -62 1 -101 2c-31 1 -56 2 -75 2c-31 0 -50 -1 -82 -4c6 56 9 161 10 335zM218 332c1 -156 2 -221 5 -283c31 -4 51 -5 80 -5c98 0 158 19 204 64c53 53 82 135 82 237c0 94 -25 170 -73 217c-43 43 -100 60 -201 60c-35 0 -58 -2 -92 -7c-3 -78 -3 -93 -5 -241
c85 0 141 1 175 3c-2 -13 -2 -17 -2 -20s0 -10 1 -19c0 -2 0 -5 1 -9c-31 1 -72 2 -175 3z" />
    <glyph glyph-name="onehalf" unicode="&#xbd;" horiz-adv-x="808" 
d="M225 670l13 -6c-5 -56 -7 -127 -7 -210c0 -78 2 -138 5 -190c-24 3 -32 3 -44 3c-11 0 -15 0 -44 -3v8l1 9c4 63 6 121 6 209l-1 109c-14 -6 -19 -9 -33 -16c-15 -8 -25 -13 -29 -15l-7 -3l-7 -4c-8 12 -18 24 -27 30c-1 0 -3 2 -6 5c37 10 109 39 169 69l7 3zM601 663
l-338 -666c-9 2 -14 2 -21 2c-9 0 -17 -1 -29 -2l338 666c9 -1 12 -1 19 -1c8 0 12 0 31 1zM482 -3v24c45 43 78 74 97 95c60 66 86 118 86 175c0 41 -25 71 -60 71s-59 -28 -63 -75l-10 -2c-9 11 -26 27 -41 39c2 2 3 5 3 6l4 7c18 35 65 57 120 57c84 0 134 -41 134 -108
c0 -40 -14 -69 -51 -107c-13 -12 -14 -13 -89 -81c-15 -13 -23 -21 -38 -36c99 1 112 1 182 5c-4 -18 -4 -21 -4 -34c0 -14 1 -19 4 -36c-48 2 -84 3 -148 3c-54 0 -83 -1 -126 -3z" />
    <glyph glyph-name="plusminus" unicode="&#xb1;" 
d="M58 415h176v168h80v-168h176v-74h-176v-170h-80v170h-176v74zM58 122h432v-74h-432v74z" />
    <glyph glyph-name="Thorn" unicode="&#xde;" horiz-adv-x="556" 
d="M215 647l-4 -49c0 -3 0 -11 -1 -23c89 3 92 3 102 3c145 0 218 -57 218 -172c0 -133 -96 -205 -273 -205c-17 0 -27 0 -50 1c0 -65 5 -166 9 -206c-30 3 -46 4 -69 4s-39 -1 -70 -4c6 74 10 222 10 359c0 121 -2 191 -10 316c35 -3 53 -4 76 -4s37 1 63 4zM205 262v-14
c23 -1 25 -1 36 -1c99 0 158 57 158 151c0 90 -44 133 -137 133c-17 0 -31 -1 -53 -4c-3 -87 -4 -127 -4 -265z" />
    <glyph glyph-name="onequarter" unicode="&#xbc;" horiz-adv-x="808" 
d="M225 670l13 -6c-5 -56 -7 -127 -7 -210c0 -78 2 -138 5 -190c-24 3 -32 3 -44 3c-11 0 -15 0 -44 -3v8l1 9c4 63 6 121 6 209l-1 109c-14 -6 -19 -9 -33 -16c-15 -8 -25 -13 -29 -15l-7 -3l-7 -4c-8 12 -18 24 -27 30c-1 0 -3 2 -6 5c37 10 109 39 169 69l7 3zM601 663
l-338 -666c-9 2 -14 2 -21 2c-9 0 -17 -1 -29 -2l338 666c9 -1 12 -1 19 -1c8 0 12 0 31 1zM725 170v-16c20 1 40 2 56 3c-2 -13 -3 -22 -3 -29s2 -24 3 -33c-21 1 -34 1 -56 2v-17l1 -29c0 -19 1 -33 3 -54c-17 2 -29 3 -42 3c-14 0 -25 -1 -42 -3c3 21 5 57 6 101
c-122 -1 -158 -1 -173 -1c2 13 2 16 2 22s0 8 -2 19c15 20 24 33 52 70c14 20 28 40 43 60l40 56c14 19 28 39 41 59l3 3c0 1 2 4 4 7c16 -1 28 -2 35 -2c8 0 22 1 35 2c-4 -61 -6 -139 -6 -223zM651 154v90v81c-78 -110 -118 -167 -120 -170l105 -1h15z" />
    <glyph glyph-name="divide" unicode="&#xf7;" 
d="M274 558c30 0 55 -25 55 -56c0 -30 -25 -55 -55 -55c-31 0 -56 25 -56 55c0 31 25 56 56 56zM275 199c30 0 55 -26 55 -56s-26 -56 -56 -56s-56 25 -56 56s25 56 57 56zM58 360h432v-74h-432v74z" />
    <glyph glyph-name="brokenbar" unicode="&#xa6;" horiz-adv-x="567" 
d="M253 667h60v-343h-60v343zM253 153h60v-320h-60v320z" />
    <glyph glyph-name="degree" unicode="&#xb0;" horiz-adv-x="433" 
d="M217 673c82 0 148 -65 148 -145s-67 -146 -148 -146c-82 0 -148 65 -148 148c0 78 67 143 148 143zM217 613c-47 0 -87 -38 -87 -84c0 -49 39 -87 87 -87s87 39 87 86s-39 85 -87 85z" />
    <glyph glyph-name="thorn" unicode="&#xfe;" horiz-adv-x="559" 
d="M60 736c26 -3 40 -4 62 -4c23 0 36 1 62 4c-7 -63 -10 -155 -12 -346c27 58 76 87 146 87c123 0 202 -96 202 -246c0 -149 -79 -246 -201 -246c-68 0 -118 30 -145 88c1 -119 4 -264 8 -338c-30 4 -45 5 -62 5c-18 0 -32 -1 -60 -5c6 84 9 278 9 507c0 222 -4 425 -9 494
zM294 421c-77 0 -115 -65 -115 -194c0 -123 40 -191 111 -191c73 0 113 69 113 196c0 124 -38 189 -109 189z" />
    <glyph glyph-name="threequarters" unicode="&#xbe;" horiz-adv-x="808" 
d="M65 350l12 -1c8 -39 33 -61 68 -61c45 0 76 37 76 90c0 49 -27 77 -75 77c-8 0 -13 0 -21 -2l-7 -2l1 7c1 5 1 7 1 10s-1 12 -2 19c11 -2 12 -2 18 -2c49 0 74 27 74 80c0 41 -21 67 -55 67c-32 0 -54 -23 -59 -64l-12 -1c-8 13 -17 25 -30 37l-5 5c29 37 62 52 116 52
c79 0 127 -35 127 -92c0 -44 -25 -73 -78 -93c64 -17 93 -46 93 -95c0 -73 -67 -123 -164 -123c-51 0 -79 10 -109 38l4 6c8 9 19 30 27 48zM600 663l-337 -666c-10 2 -14 2 -22 2s-16 -1 -29 -2l339 666c8 -1 12 -1 19 -1s12 0 30 1zM725 170v-16c20 1 40 2 56 3
c-3 -16 -4 -22 -4 -29c0 -8 1 -20 3 -33c-21 1 -33 1 -56 2l1 -17l1 -29c0 -19 1 -33 3 -54c-18 2 -29 3 -43 3c-13 0 -24 -1 -42 -3c4 21 6 57 6 101c-121 -1 -158 -1 -172 -1l1 22c0 7 0 8 -1 15v4c14 20 24 33 51 70c14 20 28 40 43 60l41 56c14 19 27 39 41 59l2 3
c1 1 3 4 5 7c16 -1 27 -2 35 -2c7 0 21 1 35 2c-4 -45 -6 -126 -6 -223zM636 154h14c1 43 1 57 1 157v14c-79 -110 -119 -167 -121 -170z" />
    <glyph glyph-name="twosuperior" unicode="&#xb2;" horiz-adv-x="357" 
d="M31 264v24c45 43 78 74 97 95c60 66 86 118 86 175c0 41 -25 71 -60 71s-59 -28 -63 -75l-10 -2c-9 11 -26 27 -41 39c2 2 3 5 3 6l4 7c18 35 65 57 120 57c84 0 134 -41 134 -108c0 -40 -14 -69 -51 -107c-13 -12 -14 -13 -89 -81c-15 -13 -23 -21 -38 -36
c99 1 112 1 182 5c-4 -18 -4 -21 -4 -34c0 -14 1 -19 4 -36c-48 2 -84 3 -148 3c-54 0 -83 -1 -126 -3z" />
    <glyph glyph-name="registered" unicode="&#xae;" horiz-adv-x="798" 
d="M352 319h-7v-16c0 -55 3 -121 8 -162c-21 2 -31 3 -46 3s-24 -1 -42 -3c4 51 6 124 6 219c0 66 -2 127 -6 166c23 -1 35 -2 52 -2c12 0 26 0 46 1c19 1 34 1 47 1c79 0 123 -33 123 -94c0 -52 -33 -86 -101 -103c2 -2 12 -16 31 -42c50 -69 82 -112 109 -146
c-29 2 -42 3 -56 3s-24 -1 -43 -3c-37 59 -97 147 -121 178zM345 356v-9c7 -1 14 -1 19 -1c55 0 89 30 89 80c0 43 -27 68 -74 68c-7 0 -16 -1 -31 -2c-2 -30 -3 -94 -3 -136zM405 684c187 0 343 -160 343 -351c0 -193 -156 -350 -348 -350c-194 0 -350 157 -350 353
c0 193 158 348 355 348zM404 647c-175 0 -312 -138 -312 -314c0 -172 138 -313 308 -313c168 0 306 141 306 314c0 170 -138 313 -302 313z" />
    <glyph glyph-name="minus" unicode="&#x2212;" 
d="M58 360h432v-74h-432v74z" />
    <glyph glyph-name="eth" unicode="&#xf0;" horiz-adv-x="562" 
d="M151 591l40 14c12 4 25 9 39 14c-32 31 -60 54 -90 74c18 10 33 24 44 42c45 -35 66 -52 113 -92c68 25 72 26 112 44l15 -39c-40 -13 -53 -17 -96 -32c145 -132 194 -226 194 -374c0 -92 -22 -156 -70 -199c-42 -39 -101 -59 -171 -59c-152 0 -242 91 -242 246
c0 150 88 245 226 245c35 0 62 -7 97 -23c-19 40 -54 87 -103 138c-59 -22 -91 -34 -130 -51l-15 40c16 5 32 10 37 12zM280 440c-78 0 -118 -70 -118 -210c0 -138 40 -209 118 -209s119 71 119 206c0 145 -38 213 -119 213z" />
    <glyph glyph-name="multiply" unicode="&#xd7;" 
d="M74 174l149 149l-149 148l52 53l149 -149l148 149l52 -53l-148 -148l148 -149l-52 -52l-148 149l-149 -149z" />
    <glyph glyph-name="threesuperior" unicode="&#xb3;" horiz-adv-x="357" 
d="M65 350l12 -1c8 -39 33 -61 68 -61c45 0 76 37 76 90c0 49 -27 77 -75 77c-8 0 -13 0 -21 -2l-7 -2l1 7c1 5 1 7 1 10s-1 12 -2 19c11 -2 12 -2 18 -2c49 0 74 27 74 80c0 41 -21 67 -55 67c-32 0 -54 -23 -59 -64l-12 -1c-8 13 -17 25 -30 37l-5 5c29 37 62 52 116 52
c79 0 127 -35 127 -92c0 -44 -25 -73 -78 -93c64 -17 93 -46 93 -95c0 -73 -67 -123 -164 -123c-51 0 -79 10 -109 38l4 6c8 9 19 30 27 48z" />
    <glyph glyph-name="copyright" unicode="&#xa9;" horiz-adv-x="798" 
d="M542 215l8 -6l-3 -8c-2 -7 -5 -14 -5 -15s-2 -7 -4 -15l-2 -7c-39 -21 -75 -30 -123 -30c-133 0 -217 75 -217 194c0 126 87 206 225 206c49 0 91 -9 128 -28c-6 -16 -11 -36 -15 -62h-11c-14 33 -54 55 -102 55c-85 0 -139 -66 -139 -168c0 -100 54 -163 140 -163
c44 0 85 16 120 47zM405 684c187 0 343 -160 343 -351c0 -193 -156 -350 -348 -350c-194 0 -350 157 -350 353c0 193 158 348 355 348zM404 647c-175 0 -312 -138 -312 -314c0 -172 138 -313 308 -313c168 0 306 141 306 314c0 170 -138 313 -302 313z" />
    <glyph glyph-name="Aacute" unicode="&#xc1;" horiz-adv-x="658" 
d="M359 677c127 -317 231 -569 283 -681c-37 3 -54 4 -74 4s-36 -1 -69 -4c-17 56 -50 148 -81 225c-42 2 -70 2 -114 2c-48 0 -78 -1 -126 -2c-42 -108 -45 -115 -80 -225c-18 3 -27 4 -40 4c-12 0 -22 -1 -47 -4c48 94 219 487 295 681c14 -2 20 -2 29 -2s14 0 24 2z
M301 512c-69 -160 -70 -161 -100 -238c51 -1 70 -1 103 -1c34 0 45 0 93 1c-30 80 -57 146 -96 238zM264 741l131 126c33 33 44 39 64 39c21 0 38 -17 38 -37c0 -18 -11 -31 -38 -46l-149 -82h-46z" />
    <glyph glyph-name="Acircumflex" unicode="&#xc2;" horiz-adv-x="658" 
d="M359 677c127 -317 231 -569 283 -681c-37 3 -54 4 -74 4s-36 -1 -69 -4c-17 56 -50 148 -81 225c-42 2 -70 2 -114 2c-48 0 -78 -1 -126 -2c-42 -108 -45 -115 -80 -225c-18 3 -27 4 -40 4c-12 0 -22 -1 -47 -4c48 94 219 487 295 681c14 -2 20 -2 29 -2s14 0 24 2z
M301 512c-69 -160 -70 -161 -100 -238c51 -1 70 -1 103 -1c34 0 45 0 93 1c-30 80 -57 146 -96 238zM332 838l-115 -95h-42l128 166h60l122 -166h-41z" />
    <glyph glyph-name="Adieresis" unicode="&#xc4;" horiz-adv-x="658" 
d="M359 677c127 -317 231 -569 283 -681c-37 3 -54 4 -74 4s-36 -1 -69 -4c-17 56 -50 148 -81 225c-42 2 -70 2 -114 2c-48 0 -78 -1 -126 -2c-42 -108 -45 -115 -80 -225c-18 3 -27 4 -40 4c-12 0 -22 -1 -47 -4c48 94 219 487 295 681c14 -2 20 -2 29 -2s14 0 24 2z
M301 512c-69 -160 -70 -161 -100 -238c51 -1 70 -1 103 -1c34 0 45 0 93 1c-30 80 -57 146 -96 238zM229 884c33 0 60 -27 60 -60c0 -32 -27 -59 -60 -59c-32 0 -59 27 -59 60c0 32 27 59 59 59zM433 884c33 0 60 -27 60 -60c0 -32 -27 -59 -60 -59c-32 0 -59 27 -59 60
c0 32 27 59 59 59z" />
    <glyph glyph-name="Agrave" unicode="&#xc0;" horiz-adv-x="658" 
d="M359 677c127 -317 231 -569 283 -681c-37 3 -54 4 -74 4s-36 -1 -69 -4c-17 56 -50 148 -81 225c-42 2 -70 2 -114 2c-48 0 -78 -1 -126 -2c-42 -108 -45 -115 -80 -225c-18 3 -27 4 -40 4c-12 0 -22 -1 -47 -4c48 94 219 487 295 681c14 -2 20 -2 29 -2s14 0 24 2z
M301 512c-69 -160 -70 -161 -100 -238c51 -1 70 -1 103 -1c34 0 45 0 93 1c-30 80 -57 146 -96 238zM400 744h-45l-150 82c-27 15 -38 28 -38 46c0 20 17 37 38 37c20 0 31 -6 64 -39z" />
    <glyph glyph-name="Aring" unicode="&#xc5;" horiz-adv-x="658" 
d="M359 677c127 -317 231 -569 283 -681c-37 3 -54 4 -74 4s-36 -1 -69 -4c-17 56 -50 148 -81 225c-42 2 -70 2 -114 2c-48 0 -78 -1 -126 -2c-42 -108 -45 -115 -80 -225c-18 3 -27 4 -40 4c-12 0 -22 -1 -47 -4c48 94 219 487 295 681c14 -2 20 -2 29 -2s14 0 24 2z
M301 512c-69 -160 -70 -161 -100 -238c51 -1 70 -1 103 -1c34 0 45 0 93 1c-30 80 -57 146 -96 238zM333 935c65 0 107 -40 107 -103s-42 -102 -109 -102s-109 39 -109 102c0 65 41 103 111 103zM332 909c-37 0 -58 -28 -58 -77c0 -48 21 -76 57 -76s57 28 57 76
s-21 77 -56 77z" />
    <glyph glyph-name="Atilde" unicode="&#xc3;" horiz-adv-x="658" 
d="M359 677c127 -317 231 -569 283 -681c-37 3 -54 4 -74 4s-36 -1 -69 -4c-17 56 -50 148 -81 225c-42 2 -70 2 -114 2c-48 0 -78 -1 -126 -2c-42 -108 -45 -115 -80 -225c-18 3 -27 4 -40 4c-12 0 -22 -1 -47 -4c48 94 219 487 295 681c14 -2 20 -2 29 -2s14 0 24 2z
M301 512c-69 -160 -70 -161 -100 -238c51 -1 70 -1 103 -1c34 0 45 0 93 1c-30 80 -57 146 -96 238zM464 883h32c-17 -73 -51 -110 -101 -110c-21 0 -39 5 -77 20c-42 17 -54 20 -70 20c-24 0 -41 -15 -50 -45h-32c15 69 53 110 103 110c20 0 40 -5 77 -20
c47 -19 55 -21 69 -21c23 0 40 16 49 46z" />
    <glyph glyph-name="Ccedilla" unicode="&#xc7;" horiz-adv-x="679" 
d="M400 -17l-2 -48c17 4 26 5 39 5c54 0 90 -26 90 -66c0 -54 -53 -90 -132 -90c-40 0 -74 8 -111 27l14 27c28 -11 50 -16 78 -16c41 0 67 17 67 45c0 22 -19 37 -46 37c-10 0 -17 -1 -33 -5l-9 8v79c-195 23 -308 146 -308 337c0 222 148 362 382 362
c82 0 153 -16 215 -47c-10 -27 -18 -60 -24 -103h-11c-25 59 -97 98 -180 98c-149 0 -245 -120 -245 -305c0 -181 96 -296 247 -296c76 0 148 29 207 82l7 -5c-5 -15 -6 -18 -8 -27c-2 -5 -5 -18 -10 -37l-3 -10c-63 -37 -127 -53 -204 -53c-3 0 -11 0 -20 1z" />
    <glyph glyph-name="Eacute" unicode="&#xc9;" horiz-adv-x="495" 
d="M229 323h-22c-1 -8 -1 -12 -1 -14c0 -65 3 -199 5 -251c11 -1 22 -1 26 -1c62 0 164 6 213 12c-3 -16 -4 -24 -4 -36s1 -21 4 -37c-59 2 -148 4 -179 4c-54 0 -154 -2 -194 -4c7 94 11 219 11 344c0 132 -4 261 -10 331c47 -4 115 -6 192 -6c61 0 138 3 182 6
c-3 -16 -4 -25 -4 -37c0 -13 1 -21 4 -38c-70 7 -128 9 -239 11c-4 -96 -5 -148 -6 -227c12 -1 23 -1 26 -1c61 0 149 4 206 9c-4 -17 -5 -25 -5 -38c0 -12 1 -20 5 -35c-52 4 -155 8 -210 8zM209 741l131 126c33 33 44 39 64 39c21 0 38 -17 38 -37c0 -18 -11 -31 -38 -46
l-149 -82h-46z" />
    <glyph glyph-name="Ecircumflex" unicode="&#xca;" horiz-adv-x="495" 
d="M229 323h-22c-1 -8 -1 -12 -1 -14c0 -65 3 -199 5 -251c11 -1 22 -1 26 -1c62 0 164 6 213 12c-3 -16 -4 -24 -4 -36s1 -21 4 -37c-59 2 -148 4 -179 4c-54 0 -154 -2 -194 -4c7 94 11 219 11 344c0 132 -4 261 -10 331c47 -4 115 -6 192 -6c61 0 138 3 182 6
c-3 -16 -4 -25 -4 -37c0 -13 1 -21 4 -38c-70 7 -128 9 -239 11c-4 -96 -5 -148 -6 -227c12 -1 23 -1 26 -1c61 0 149 4 206 9c-4 -17 -5 -25 -5 -38c0 -12 1 -20 5 -35c-52 4 -155 8 -210 8zM271 838l-115 -95h-42l128 166h60l122 -166h-41z" />
    <glyph glyph-name="Edieresis" unicode="&#xcb;" horiz-adv-x="495" 
d="M229 323h-22c-1 -8 -1 -12 -1 -14c0 -65 3 -199 5 -251c11 -1 22 -1 26 -1c62 0 164 6 213 12c-3 -16 -4 -24 -4 -36s1 -21 4 -37c-59 2 -148 4 -179 4c-54 0 -154 -2 -194 -4c7 94 11 219 11 344c0 132 -4 261 -10 331c47 -4 115 -6 192 -6c61 0 138 3 182 6
c-3 -16 -4 -25 -4 -37c0 -13 1 -21 4 -38c-70 7 -128 9 -239 11c-4 -96 -5 -148 -6 -227c12 -1 23 -1 26 -1c61 0 149 4 206 9c-4 -17 -5 -25 -5 -38c0 -12 1 -20 5 -35c-52 4 -155 8 -210 8zM167 885c33 0 60 -27 60 -60c0 -32 -27 -59 -60 -59c-32 0 -59 27 -59 60
c0 32 27 59 59 59zM371 885c33 0 60 -27 60 -60c0 -32 -27 -59 -60 -59c-32 0 -59 27 -59 60c0 32 27 59 59 59z" />
    <glyph glyph-name="Egrave" unicode="&#xc8;" horiz-adv-x="495" 
d="M229 323h-22c-1 -8 -1 -12 -1 -14c0 -65 3 -199 5 -251c11 -1 22 -1 26 -1c62 0 164 6 213 12c-3 -16 -4 -24 -4 -36s1 -21 4 -37c-59 2 -148 4 -179 4c-54 0 -154 -2 -194 -4c7 94 11 219 11 344c0 132 -4 261 -10 331c47 -4 115 -6 192 -6c61 0 138 3 182 6
c-3 -16 -4 -25 -4 -37c0 -13 1 -21 4 -38c-70 7 -128 9 -239 11c-4 -96 -5 -148 -6 -227c12 -1 23 -1 26 -1c61 0 149 4 206 9c-4 -17 -5 -25 -5 -38c0 -12 1 -20 5 -35c-52 4 -155 8 -210 8zM329 741h-45l-150 82c-27 15 -38 28 -38 46c0 20 17 37 38 37c20 0 31 -6 64 -39
z" />
    <glyph glyph-name="Iacute" unicode="&#xcd;" horiz-adv-x="293" 
d="M77 671c33 -3 50 -4 74 -4c23 0 38 1 65 4c-7 -89 -10 -200 -10 -331c0 -152 4 -281 10 -344c-31 3 -47 4 -69 4s-39 -1 -70 -4c7 75 11 208 11 359c0 136 -4 240 -11 316zM92 741l131 126c33 33 44 39 64 39c21 0 38 -17 38 -37c0 -18 -11 -31 -38 -46l-149 -82h-46z
" />
    <glyph glyph-name="Icircumflex" unicode="&#xce;" horiz-adv-x="293" 
d="M76 671c33 -3 50 -4 74 -4s39 1 66 4c-7 -90 -11 -200 -11 -331c0 -152 4 -280 11 -344c-31 3 -47 4 -70 4c-22 0 -38 -1 -70 -4c7 75 11 207 11 359c0 137 -3 241 -11 316zM148 838l-115 -95h-42l128 166h60l122 -166h-41z" />
    <glyph glyph-name="Idieresis" unicode="&#xcf;" horiz-adv-x="293" 
d="M77 671c32 -3 49 -4 73 -4s39 1 66 4c-7 -84 -11 -203 -11 -331c0 -148 4 -283 11 -344c-31 3 -47 4 -70 4c-22 0 -38 -1 -69 -4c6 75 10 210 10 358c0 137 -4 244 -10 317zM62 887c33 0 60 -27 60 -60c0 -32 -27 -59 -60 -59c-32 0 -59 27 -59 60c0 32 27 59 59 59z
M230 887c33 0 60 -27 60 -60c0 -32 -27 -59 -60 -59c-32 0 -59 27 -59 60c0 32 27 59 59 59z" />
    <glyph glyph-name="Igrave" unicode="&#xcc;" horiz-adv-x="293" 
d="M77 671c33 -3 50 -4 74 -4c23 0 38 1 65 4c-7 -89 -10 -200 -10 -331c0 -152 4 -281 10 -344c-31 3 -47 4 -69 4s-39 -1 -70 -4c7 75 11 208 11 359c0 136 -4 240 -11 316zM202 741h-45l-150 82c-27 15 -38 28 -38 46c0 20 17 37 38 37c20 0 31 -6 64 -39z" />
    <glyph glyph-name="Ntilde" unicode="&#xd1;" horiz-adv-x="751" 
d="M604 186v182c0 122 -2 209 -7 303c20 -3 29 -4 40 -4s20 1 41 4c-13 -138 -17 -287 -17 -596c0 -35 0 -49 1 -84c-15 1 -21 2 -30 2c-8 0 -13 -1 -24 -2c-128 152 -205 236 -459 501c-1 -42 -1 -78 -1 -129c0 -180 3 -281 12 -367c-20 3 -30 4 -43 4c-15 0 -23 -1 -40 -4
c7 93 13 297 13 462c0 89 -2 160 -6 218c19 -1 27 -2 36 -2c10 0 17 1 29 2c36 -42 64 -72 233 -251c68 -73 135 -145 222 -239zM509 883h32c-17 -73 -51 -110 -101 -110c-21 0 -39 5 -77 20c-42 17 -54 20 -70 20c-24 0 -41 -15 -50 -45h-32c15 69 53 110 103 110
c20 0 40 -5 77 -20c47 -19 55 -21 69 -21c23 0 40 16 49 46z" />
    <glyph glyph-name="Oacute" unicode="&#xd3;" horiz-adv-x="843" 
d="M421 685c236 0 376 -132 376 -356c0 -102 -36 -193 -102 -254c-66 -62 -157 -93 -273 -93c-233 0 -375 133 -375 352c0 217 143 351 374 351zM421 638c-149 0 -237 -113 -237 -305s88 -304 238 -304c149 0 238 112 238 300c0 197 -86 309 -239 309zM342 741l131 126
c33 33 44 39 64 39c21 0 38 -17 38 -37c0 -18 -11 -31 -38 -46l-149 -82h-46z" />
    <glyph glyph-name="Ocircumflex" unicode="&#xd4;" horiz-adv-x="843" 
d="M421 685c236 0 376 -132 376 -356c0 -102 -36 -193 -102 -254c-66 -62 -157 -93 -273 -93c-233 0 -375 133 -375 352c0 217 143 351 374 351zM421 638c-149 0 -237 -113 -237 -305s88 -304 238 -304c149 0 238 112 238 300c0 197 -86 309 -239 309zM424 838l-115 -95h-42
l128 166h60l122 -166h-41z" />
    <glyph glyph-name="Odieresis" unicode="&#xd6;" horiz-adv-x="843" 
d="M421 685c236 0 376 -132 376 -356c0 -102 -36 -193 -102 -254c-66 -62 -157 -93 -273 -93c-233 0 -375 133 -375 352c0 217 143 351 374 351zM421 638c-149 0 -237 -113 -237 -305s88 -304 238 -304c149 0 238 112 238 300c0 197 -86 309 -239 309zM320 884
c33 0 60 -27 60 -60c0 -32 -27 -59 -60 -59c-32 0 -59 27 -59 60c0 32 27 59 59 59zM524 884c33 0 60 -27 60 -60c0 -32 -27 -59 -60 -59c-32 0 -59 27 -59 60c0 32 27 59 59 59z" />
    <glyph glyph-name="Ograve" unicode="&#xd2;" horiz-adv-x="843" 
d="M421 685c236 0 376 -132 376 -356c0 -102 -36 -193 -102 -254c-66 -62 -157 -93 -273 -93c-233 0 -375 133 -375 352c0 217 143 351 374 351zM421 638c-149 0 -237 -113 -237 -305s88 -304 238 -304c149 0 238 112 238 300c0 197 -86 309 -239 309zM502 741h-45l-150 82
c-27 15 -38 28 -38 46c0 20 17 37 38 37c20 0 31 -6 64 -39z" />
    <glyph glyph-name="Otilde" unicode="&#xd5;" horiz-adv-x="843" 
d="M421 685c236 0 376 -132 376 -356c0 -102 -36 -193 -102 -254c-66 -62 -157 -93 -273 -93c-233 0 -375 133 -375 352c0 217 143 351 374 351zM421 638c-149 0 -237 -113 -237 -305s88 -304 238 -304c149 0 238 112 238 300c0 197 -86 309 -239 309zM555 883h32
c-17 -73 -51 -110 -101 -110c-21 0 -39 5 -77 20c-42 17 -54 20 -70 20c-24 0 -41 -15 -50 -45h-32c15 69 53 110 103 110c20 0 40 -5 77 -20c47 -19 55 -21 69 -21c23 0 40 16 49 46z" />
    <glyph glyph-name="Scaron" unicode="&#x160;" horiz-adv-x="520" 
d="M424 539h-12c-20 58 -70 95 -130 95c-64 0 -112 -43 -112 -101c0 -32 16 -61 44 -82c22 -16 33 -22 106 -56c60 -28 87 -45 111 -68c32 -31 49 -74 49 -122c0 -60 -26 -119 -70 -160c-46 -43 -106 -63 -185 -63c-66 0 -113 11 -177 42c10 34 18 92 20 134h14
c25 -78 86 -127 158 -127c73 0 127 52 127 122c0 32 -11 58 -33 77c-24 21 -31 25 -113 64c-115 56 -157 106 -157 190c0 121 92 201 231 201c60 0 112 -15 164 -47c-10 -21 -22 -56 -35 -99zM295 813l115 95h42l-128 -166h-60l-122 166h42z" />
    <glyph glyph-name="Uacute" unicode="&#xda;" horiz-adv-x="744" 
d="M79 264l1 76c1 43 2 81 2 108c0 88 -3 163 -8 223c33 -3 50 -4 72 -4c24 0 39 1 67 4c-8 -94 -13 -216 -13 -350c0 -117 9 -165 41 -209c34 -48 84 -71 151 -71c93 0 161 48 184 129c14 49 18 101 18 247c0 117 -1 169 -6 254c19 -3 28 -4 42 -4c15 0 25 1 45 4
c-5 -50 -11 -184 -14 -315c-2 -165 -13 -218 -57 -273c-51 -66 -133 -101 -235 -101c-111 0 -203 38 -248 104c-29 44 -42 97 -42 178zM330 741l131 126c33 33 44 39 64 39c21 0 38 -17 38 -37c0 -18 -11 -31 -38 -46l-149 -82h-46z" />
    <glyph glyph-name="Ucircumflex" unicode="&#xdb;" horiz-adv-x="744" 
d="M79 264l1 76c1 43 2 81 2 108c0 88 -3 163 -8 223c33 -3 50 -4 72 -4c24 0 39 1 67 4c-8 -94 -13 -216 -13 -350c0 -117 9 -165 41 -209c34 -48 84 -71 151 -71c93 0 161 48 184 129c14 49 18 101 18 247c0 117 -1 169 -6 254c19 -3 28 -4 42 -4c15 0 25 1 45 4
c-5 -50 -11 -184 -14 -315c-2 -165 -13 -218 -57 -273c-51 -66 -133 -101 -235 -101c-111 0 -203 38 -248 104c-29 44 -42 97 -42 178zM391 838l-115 -95h-42l128 166h60l122 -166h-41z" />
    <glyph glyph-name="Udieresis" unicode="&#xdc;" horiz-adv-x="744" 
d="M79 264l1 76c1 43 2 81 2 108c0 88 -3 163 -8 223c33 -3 50 -4 72 -4c24 0 39 1 67 4c-8 -94 -13 -216 -13 -350c0 -117 9 -165 41 -209c34 -48 84 -71 151 -71c93 0 161 48 184 129c14 49 18 101 18 247c0 117 -1 169 -6 254c19 -3 28 -4 42 -4c15 0 25 1 45 4
c-5 -50 -11 -184 -14 -315c-2 -165 -13 -218 -57 -273c-51 -66 -133 -101 -235 -101c-111 0 -203 38 -248 104c-29 44 -42 97 -42 178zM287 884c33 0 60 -27 60 -60c0 -32 -27 -59 -60 -59c-32 0 -59 27 -59 60c0 32 27 59 59 59zM491 884c33 0 60 -27 60 -60
c0 -32 -27 -59 -60 -59c-32 0 -59 27 -59 60c0 32 27 59 59 59z" />
    <glyph glyph-name="Ugrave" unicode="&#xd9;" horiz-adv-x="744" 
d="M79 264l1 76c1 43 2 81 2 108c0 88 -3 163 -8 223c33 -3 50 -4 72 -4c24 0 39 1 67 4c-8 -94 -13 -216 -13 -350c0 -117 9 -165 41 -209c34 -48 84 -71 151 -71c93 0 161 48 184 129c14 49 18 101 18 247c0 117 -1 169 -6 254c19 -3 28 -4 42 -4c15 0 25 1 45 4
c-5 -50 -11 -184 -14 -315c-2 -165 -13 -218 -57 -273c-51 -66 -133 -101 -235 -101c-111 0 -203 38 -248 104c-29 44 -42 97 -42 178zM450 741h-45l-150 82c-27 15 -38 28 -38 46c0 20 17 37 38 37c20 0 31 -6 64 -39z" />
    <glyph glyph-name="Yacute" unicode="&#xdd;" horiz-adv-x="571" 
d="M226 244v42c-19 32 -24 41 -59 103c-15 28 -31 55 -47 83c-20 37 -34 62 -53 95c-38 68 -44 78 -60 104c37 -3 55 -4 76 -4s39 1 77 4c17 -46 107 -228 156 -317c69 122 134 250 162 317c19 -3 30 -4 44 -4c15 0 25 1 46 4c-56 -82 -178 -292 -221 -380
c-1 -26 -1 -40 -1 -54c0 -104 3 -195 9 -241c-37 3 -53 4 -72 4c-18 0 -34 -1 -68 -4c7 55 11 157 11 248zM238 741l131 126c33 33 44 39 64 39c21 0 38 -17 38 -37c0 -18 -11 -31 -38 -46l-149 -82h-46z" />
    <glyph glyph-name="Ydieresis" unicode="&#x178;" horiz-adv-x="571" 
d="M226 244v42c-19 32 -24 41 -59 103c-15 28 -31 55 -47 83c-20 37 -34 62 -53 95c-38 68 -44 78 -60 104c37 -3 55 -4 76 -4s39 1 77 4c17 -46 107 -228 156 -317c69 122 134 250 162 317c19 -3 30 -4 44 -4c15 0 25 1 46 4c-56 -82 -178 -292 -221 -380
c-1 -26 -1 -40 -1 -54c0 -104 3 -195 9 -241c-37 3 -53 4 -72 4c-18 0 -34 -1 -68 -4c7 55 11 157 11 248zM200 884c33 0 60 -27 60 -60c0 -32 -27 -59 -60 -59c-32 0 -59 27 -59 60c0 32 27 59 59 59zM404 884c33 0 60 -27 60 -60c0 -32 -27 -59 -60 -59
c-32 0 -59 27 -59 60c0 32 27 59 59 59z" />
    <glyph glyph-name="Zcaron" unicode="&#x17d;" horiz-adv-x="619" 
d="M589 672v-17c-78 -106 -247 -368 -386 -598h40c113 0 265 6 341 13c-3 -17 -4 -25 -4 -41c0 -13 1 -20 4 -35c-75 4 -174 7 -276 7c-84 0 -186 -2 -280 -5v17c45 60 268 405 386 597h-32c-83 0 -222 -4 -313 -10c3 18 4 28 4 40s-1 19 -4 33c95 -3 216 -6 266 -6
c54 0 168 2 254 5zM336 813l115 95h42l-128 -166h-60l-122 166h42z" />
    <glyph glyph-name="aacute" unicode="&#xe1;" horiz-adv-x="503" 
d="M95 345h-11v13c0 16 -2 29 -9 55c59 45 110 63 179 63c63 0 114 -21 142 -58c21 -29 28 -59 28 -123c0 -9 0 -9 -1 -83v-34c0 -69 1 -100 4 -113c5 -20 20 -33 40 -33c5 0 9 1 18 2v-18c-28 -17 -53 -24 -83 -24c-46 0 -71 19 -85 65c-42 -51 -85 -73 -141 -73
c-83 0 -137 49 -137 125c0 54 26 95 74 117c16 8 16 8 132 35c49 12 66 28 66 63c0 57 -41 98 -100 98c-50 0 -92 -28 -116 -77zM315 195l-1 19c-1 10 0 19 2 34c-7 -1 -7 -1 -14 -3c-57 -17 -97 -31 -111 -41c-24 -17 -36 -44 -36 -81c0 -51 26 -82 69 -82
c34 0 68 21 81 50c7 16 12 68 10 104zM198 543l127 123c32 30 43 37 62 37c20 0 36 -16 36 -35c0 -16 -10 -29 -36 -43l-150 -82h-39z" />
    <glyph glyph-name="acircumflex" unicode="&#xe2;" horiz-adv-x="503" 
d="M95 345h-11v13c0 16 -2 29 -9 55c59 45 110 63 179 63c63 0 114 -21 142 -58c21 -29 28 -59 28 -123c0 -9 0 -9 -1 -83v-34c0 -69 1 -100 4 -113c5 -20 20 -33 40 -33c5 0 9 1 18 2v-18c-28 -17 -53 -24 -83 -24c-46 0 -71 19 -85 65c-42 -51 -85 -73 -141 -73
c-83 0 -137 49 -137 125c0 54 26 95 74 117c16 8 16 8 132 35c49 12 66 28 66 63c0 57 -41 98 -100 98c-50 0 -92 -28 -116 -77zM315 195l-1 19c-1 10 0 19 2 34c-7 -1 -7 -1 -14 -3c-57 -17 -97 -31 -111 -41c-24 -17 -36 -44 -36 -81c0 -51 26 -82 69 -82
c34 0 68 21 81 50c7 16 12 68 10 104zM369 542l-112 96l-116 -96h-36l124 162h58l119 -162h-37z" />
    <glyph glyph-name="adieresis" unicode="&#xe4;" horiz-adv-x="503" 
d="M95 345h-11v13c0 16 -2 29 -9 55c59 45 110 63 179 63c63 0 114 -21 142 -58c21 -29 28 -59 28 -123c0 -9 0 -9 -1 -83v-34c0 -69 1 -100 4 -113c5 -20 20 -33 40 -33c5 0 9 1 18 2v-18c-28 -17 -53 -24 -83 -24c-46 0 -71 19 -85 65c-42 -51 -85 -73 -141 -73
c-83 0 -137 49 -137 125c0 54 26 95 74 117c16 8 16 8 132 35c49 12 66 28 66 63c0 57 -41 98 -100 98c-50 0 -92 -28 -116 -77zM315 195l-1 19c-1 10 0 19 2 34c-7 -1 -7 -1 -14 -3c-57 -17 -97 -31 -111 -41c-24 -17 -36 -44 -36 -81c0 -51 26 -82 69 -82
c34 0 68 21 81 50c7 16 12 68 10 104zM149 682c32 0 58 -26 58 -58c0 -31 -26 -57 -58 -57c-31 0 -57 26 -57 58c0 31 26 57 57 57zM353 682c32 0 58 -26 58 -58c0 -31 -26 -57 -58 -57c-31 0 -57 26 -57 58c0 31 26 57 57 57z" />
    <glyph glyph-name="agrave" unicode="&#xe0;" horiz-adv-x="503" 
d="M95 345h-11v13c0 16 -2 29 -9 55c59 45 110 63 179 63c63 0 114 -21 142 -58c21 -29 28 -59 28 -123c0 -9 0 -9 -1 -83v-34c0 -69 1 -100 4 -113c5 -20 20 -33 40 -33c5 0 9 1 18 2v-18c-28 -17 -53 -24 -83 -24c-46 0 -71 19 -85 65c-42 -51 -85 -73 -141 -73
c-83 0 -137 49 -137 125c0 54 26 95 74 117c16 8 16 8 132 35c49 12 66 28 66 63c0 57 -41 98 -100 98c-50 0 -92 -28 -116 -77zM315 195l-1 19c-1 10 0 19 2 34c-7 -1 -7 -1 -14 -3c-57 -17 -97 -31 -111 -41c-24 -17 -36 -44 -36 -81c0 -51 26 -82 69 -82
c34 0 68 21 81 50c7 16 12 68 10 104zM324 541h-39l-149 82c-27 14 -37 27 -37 43c0 19 16 35 36 35c19 0 31 -7 62 -37z" />
    <glyph glyph-name="aring" unicode="&#xe5;" horiz-adv-x="503" 
d="M95 345h-11v13c0 16 -2 29 -9 55c59 45 110 63 179 63c63 0 114 -21 142 -58c21 -29 28 -59 28 -123c0 -9 0 -9 -1 -83v-34c0 -69 1 -100 4 -113c5 -20 20 -33 40 -33c5 0 9 1 18 2v-18c-28 -17 -53 -24 -83 -24c-46 0 -71 19 -85 65c-42 -51 -85 -73 -141 -73
c-83 0 -137 49 -137 125c0 54 26 95 74 117c16 8 16 8 132 35c49 12 66 28 66 63c0 57 -41 98 -100 98c-50 0 -92 -28 -116 -77zM315 195l-1 19c-1 10 0 19 2 34c-7 -1 -7 -1 -14 -3c-57 -17 -97 -31 -111 -41c-24 -17 -36 -44 -36 -81c0 -51 26 -82 69 -82
c34 0 68 21 81 50c7 16 12 68 10 104zM262 732c64 0 105 -39 105 -100c0 -62 -41 -100 -106 -100c-66 0 -107 38 -107 100c0 63 40 100 108 100zM261 711c-38 0 -60 -29 -60 -79c0 -49 22 -79 60 -79c37 0 59 29 59 79c0 49 -22 79 -59 79z" />
    <glyph glyph-name="atilde" unicode="&#xe3;" horiz-adv-x="503" 
d="M95 345h-11v13c0 16 -2 29 -9 55c59 45 110 63 179 63c63 0 114 -21 142 -58c21 -29 28 -59 28 -123c0 -9 0 -9 -1 -83v-34c0 -69 1 -100 4 -113c5 -20 20 -33 40 -33c5 0 9 1 18 2v-18c-28 -17 -53 -24 -83 -24c-46 0 -71 19 -85 65c-42 -51 -85 -73 -141 -73
c-83 0 -137 49 -137 125c0 54 26 95 74 117c16 8 16 8 132 35c49 12 66 28 66 63c0 57 -41 98 -100 98c-50 0 -92 -28 -116 -77zM315 195l-1 19c-1 10 0 19 2 34c-7 -1 -7 -1 -14 -3c-57 -17 -97 -31 -111 -41c-24 -17 -36 -44 -36 -81c0 -51 26 -82 69 -82
c34 0 68 21 81 50c7 16 12 68 10 104zM395 680h27c-16 -69 -50 -106 -98 -106c-21 0 -39 5 -76 19c-42 18 -54 21 -71 21c-24 0 -42 -16 -52 -45h-27c14 65 52 105 100 105c20 0 40 -5 77 -20c46 -19 55 -21 69 -21c23 0 42 17 51 47z" />
    <glyph glyph-name="ccedilla" unicode="&#xe7;" horiz-adv-x="480" 
d="M291 -16l-2 -50c18 5 27 6 40 6c51 0 85 -25 85 -62c0 -51 -50 -85 -125 -85c-39 0 -70 8 -105 25l12 22c24 -10 47 -15 74 -15c41 0 67 18 67 46c0 23 -19 39 -47 39c-10 0 -17 -1 -31 -6l-7 7v74c-135 16 -213 105 -213 242c0 152 102 249 262 249
c63 0 113 -13 159 -41c-13 -30 -25 -63 -30 -87h-14c-13 54 -56 88 -112 88c-86 0 -142 -79 -142 -199c0 -124 62 -201 161 -201c46 0 88 18 120 52l12 -6c-9 -25 -13 -39 -14 -53c-47 -31 -91 -44 -150 -45z" />
    <glyph glyph-name="eacute" unicode="&#xe9;" horiz-adv-x="504" 
d="M441 92l10 -6l-3 -8c-8 -20 -10 -27 -13 -45c-56 -35 -101 -49 -160 -49c-144 0 -236 95 -236 245c0 153 86 247 227 247c130 0 204 -78 204 -214c0 -5 -1 -18 -2 -32c-40 2 -92 3 -156 3l-151 -1c-1 -7 -1 -13 -1 -15c0 -111 57 -180 149 -180c49 0 90 17 132 55z
M260 274h26c41 0 47 0 71 2c-2 50 -4 70 -10 91c-13 47 -41 72 -82 72c-60 0 -99 -61 -103 -164c26 -1 32 -1 98 -1zM199 543l127 123c32 30 43 37 62 37c20 0 36 -16 36 -35c0 -16 -10 -29 -36 -43l-150 -82h-39z" />
    <glyph glyph-name="ecircumflex" unicode="&#xea;" horiz-adv-x="504" 
d="M441 92l10 -6l-3 -8c-8 -20 -10 -27 -13 -45c-56 -35 -101 -49 -160 -49c-144 0 -236 95 -236 245c0 153 86 247 227 247c130 0 204 -78 204 -214c0 -5 -1 -18 -2 -32c-40 2 -92 3 -156 3l-151 -1c-1 -7 -1 -13 -1 -15c0 -111 57 -180 149 -180c49 0 90 17 132 55z
M260 274h26c41 0 47 0 71 2c-2 50 -4 70 -10 91c-13 47 -41 72 -82 72c-60 0 -99 -61 -103 -164c26 -1 32 -1 98 -1zM273 638l-115 -96h-37l125 162h57l119 -162h-36z" />
    <glyph glyph-name="edieresis" unicode="&#xeb;" horiz-adv-x="504" 
d="M441 92l10 -6l-3 -8c-8 -20 -10 -27 -13 -45c-56 -35 -101 -49 -160 -49c-144 0 -236 95 -236 245c0 153 86 247 227 247c130 0 204 -78 204 -214c0 -5 -1 -18 -2 -32c-40 2 -92 3 -156 3l-151 -1c-1 -7 -1 -13 -1 -15c0 -111 57 -180 149 -180c49 0 90 17 132 55z
M260 274h26c41 0 47 0 71 2c-2 50 -4 70 -10 91c-13 47 -41 72 -82 72c-60 0 -99 -61 -103 -164c26 -1 32 -1 98 -1zM169 682c32 0 58 -26 58 -58c0 -31 -26 -57 -58 -57c-31 0 -57 26 -57 58c0 31 26 57 57 57zM373 682c32 0 58 -26 58 -58c0 -31 -26 -57 -58 -57
c-31 0 -57 26 -57 58c0 31 26 57 57 57z" />
    <glyph glyph-name="egrave" unicode="&#xe8;" horiz-adv-x="504" 
d="M441 92l10 -6l-3 -8c-8 -20 -10 -27 -13 -45c-56 -35 -101 -49 -160 -49c-144 0 -236 95 -236 245c0 153 86 247 227 247c130 0 204 -78 204 -214c0 -5 -1 -18 -2 -32c-40 2 -92 3 -156 3l-151 -1c-1 -7 -1 -13 -1 -15c0 -111 57 -180 149 -180c49 0 90 17 132 55z
M260 274h26c41 0 47 0 71 2c-2 50 -4 70 -10 91c-13 47 -41 72 -82 72c-60 0 -99 -61 -103 -164c26 -1 32 -1 98 -1zM348 541h-39l-149 82c-27 14 -37 27 -37 43c0 19 16 35 36 35c19 0 31 -7 62 -37z" />
    <glyph glyph-name="iacute" unicode="&#xed;" horiz-adv-x="241" 
d="M59 467c31 -3 46 -4 66 -4c21 0 34 1 58 4c-4 -48 -8 -173 -8 -238c0 -78 3 -177 8 -233c-26 3 -39 4 -59 4c-21 0 -36 -1 -65 -4c6 76 9 151 9 246c0 94 -3 159 -9 225zM70 543l127 123c32 30 43 37 62 37c20 0 36 -16 36 -35c0 -16 -10 -29 -36 -43l-150 -82h-39z" />
    <glyph glyph-name="icircumflex" unicode="&#xee;" horiz-adv-x="241" 
d="M59 467c31 -3 46 -4 66 -4c21 0 34 1 57 4c-3 -48 -7 -170 -7 -240c0 -78 3 -178 7 -231c-25 3 -38 4 -59 4c-20 0 -35 -1 -64 -4c6 71 9 150 9 246c0 93 -3 159 -9 225zM122 638l-115 -96h-37l125 162h57l119 -162h-36z" />
    <glyph glyph-name="idieresis" unicode="&#xef;" horiz-adv-x="241" 
d="M59 467c30 -3 46 -4 66 -4s33 1 57 4c-3 -47 -7 -172 -7 -238c0 -77 3 -180 7 -233c-25 3 -39 4 -59 4s-35 -1 -64 -4c6 72 9 152 9 246c0 93 -3 156 -9 225zM40 682c32 0 58 -26 58 -58c0 -31 -26 -57 -58 -57c-31 0 -57 26 -57 58c0 31 26 57 57 57zM203 682
c32 0 58 -26 58 -58c0 -31 -26 -57 -58 -57c-31 0 -57 26 -57 58c0 31 26 57 57 57z" />
    <glyph glyph-name="igrave" unicode="&#xec;" horiz-adv-x="241" 
d="M58 467c31 -3 47 -4 67 -4s33 1 57 4c-3 -46 -7 -173 -7 -240c0 -78 3 -178 7 -231c-25 3 -39 4 -59 4s-35 -1 -64 -4c6 73 9 151 9 245s-3 163 -10 226zM174 541h-39l-149 82c-27 14 -37 27 -37 43c0 19 16 35 36 35c19 0 31 -7 62 -37z" />
    <glyph glyph-name="ntilde" unicode="&#xf1;" horiz-adv-x="551" 
d="M175 400l-1 -12c42 61 91 89 157 89c96 0 156 -61 156 -162c0 -16 -1 -45 -2 -75c-1 -33 -2 -64 -2 -93c0 -55 2 -111 5 -151c-29 3 -42 4 -63 4c-18 0 -32 -1 -57 -4c3 45 7 163 7 219c0 74 -3 109 -12 132c-15 40 -44 60 -85 60c-43 0 -77 -26 -90 -67
c-10 -31 -12 -59 -12 -177c0 -63 1 -98 5 -167c-27 3 -41 4 -59 4c-17 0 -31 -1 -61 -4c5 56 8 144 8 244c0 78 -2 131 -8 227c29 -3 43 -4 62 -4s32 1 55 4c-2 -16 -2 -22 -2 -40c-1 -20 -1 -23 -1 -27zM415 680h27c-16 -69 -50 -106 -98 -106c-21 0 -39 5 -76 19
c-42 18 -54 21 -71 21c-24 0 -42 -16 -52 -45h-27c14 65 52 105 100 105c20 0 40 -5 77 -20c46 -19 55 -21 69 -21c23 0 42 17 51 47z" />
    <glyph glyph-name="oacute" unicode="&#xf3;" horiz-adv-x="562" 
d="M283 476c155 0 240 -89 240 -250c0 -151 -92 -242 -242 -242c-152 0 -242 91 -242 246s90 246 244 246zM281 440c-79 0 -119 -71 -119 -210s40 -210 119 -210c78 0 119 71 119 207c0 144 -38 213 -119 213zM208 543l127 123c32 30 43 37 62 37c20 0 36 -16 36 -35
c0 -16 -10 -29 -36 -43l-150 -82h-39z" />
    <glyph glyph-name="ocircumflex" unicode="&#xf4;" horiz-adv-x="562" 
d="M283 476c155 0 240 -89 240 -250c0 -151 -92 -242 -242 -242c-152 0 -242 91 -242 246s90 246 244 246zM281 440c-79 0 -119 -71 -119 -210s40 -210 119 -210c78 0 119 71 119 207c0 144 -38 213 -119 213zM282 638l-115 -96h-37l125 162h57l119 -162h-36z" />
    <glyph glyph-name="odieresis" unicode="&#xf6;" horiz-adv-x="562" 
d="M283 476c155 0 240 -89 240 -250c0 -151 -92 -242 -242 -242c-152 0 -242 91 -242 246s90 246 244 246zM281 440c-79 0 -119 -71 -119 -210s40 -210 119 -210c78 0 119 71 119 207c0 144 -38 213 -119 213zM179 682c32 0 58 -26 58 -58c0 -31 -26 -57 -58 -57
c-31 0 -57 26 -57 58c0 31 26 57 57 57zM383 682c32 0 58 -26 58 -58c0 -31 -26 -57 -58 -57c-31 0 -57 26 -57 58c0 31 26 57 57 57z" />
    <glyph glyph-name="ograve" unicode="&#xf2;" horiz-adv-x="562" 
d="M283 476c155 0 240 -89 240 -250c0 -151 -92 -242 -242 -242c-152 0 -242 91 -242 246s90 246 244 246zM281 440c-79 0 -119 -71 -119 -210s40 -210 119 -210c78 0 119 71 119 207c0 144 -38 213 -119 213zM354 541h-39l-149 82c-27 14 -37 27 -37 43c0 19 16 35 36 35
c19 0 31 -7 62 -37z" />
    <glyph glyph-name="otilde" unicode="&#xf5;" horiz-adv-x="562" 
d="M283 476c155 0 240 -89 240 -250c0 -151 -92 -242 -242 -242c-152 0 -242 91 -242 246s90 246 244 246zM281 440c-79 0 -119 -71 -119 -210s40 -210 119 -210c78 0 119 71 119 207c0 144 -38 213 -119 213zM421 680h27c-16 -69 -50 -106 -98 -106c-21 0 -39 5 -76 19
c-42 18 -54 21 -71 21c-24 0 -42 -16 -52 -45h-27c14 65 52 105 100 105c20 0 40 -5 77 -20c46 -19 55 -21 69 -21c23 0 42 17 51 47z" />
    <glyph glyph-name="scaron" unicode="&#x161;" horiz-adv-x="408" 
d="M58 113h11c23 -56 68 -90 120 -90c51 0 90 31 90 73c0 36 -20 54 -89 79c-60 22 -85 35 -107 53c-26 22 -42 59 -42 99c0 91 70 149 180 149c56 0 100 -10 140 -32l-4 -13c-4 -11 -8 -22 -12 -34c-2 -6 -6 -19 -13 -44h-12c-14 56 -53 87 -107 87c-46 0 -79 -29 -79 -69
c0 -25 13 -45 38 -59c21 -13 32 -17 90 -35c85 -28 119 -64 119 -128c0 -96 -86 -165 -205 -165c-48 0 -87 8 -137 29c6 15 14 59 19 100zM207 607l115 96h37l-125 -162h-57l-119 162h36z" />
    <glyph glyph-name="uacute" unicode="&#xfa;" horiz-adv-x="551" 
d="M66 222l1 103c0 51 -1 87 -4 142c31 -3 45 -4 64 -4c18 0 31 1 56 4c-4 -73 -7 -192 -7 -244c0 -72 4 -103 16 -125c15 -27 45 -44 80 -44c45 0 80 28 93 75c8 30 9 45 9 174c0 52 -2 128 -5 164c32 -3 46 -4 63 -4s31 1 57 4c-5 -94 -7 -150 -7 -244
c0 -100 2 -168 6 -227c-23 3 -36 4 -54 4c-17 0 -30 -1 -60 -4c2 26 3 35 4 81c-35 -60 -90 -93 -158 -93c-45 0 -83 14 -111 40c-32 31 -44 66 -44 132c0 9 0 38 1 66zM203 543l127 123c32 30 43 37 62 37c20 0 36 -16 36 -35c0 -16 -10 -29 -36 -43l-150 -82h-39z" />
    <glyph glyph-name="ucircumflex" unicode="&#xfb;" horiz-adv-x="551" 
d="M66 222l1 103c0 51 -1 87 -4 142c31 -3 45 -4 64 -4c18 0 31 1 56 4c-4 -73 -7 -192 -7 -244c0 -72 4 -103 16 -125c15 -27 45 -44 80 -44c45 0 80 28 93 75c8 30 9 45 9 174c0 52 -2 128 -5 164c32 -3 46 -4 63 -4s31 1 57 4c-5 -94 -7 -150 -7 -244
c0 -100 2 -168 6 -227c-23 3 -36 4 -54 4c-17 0 -30 -1 -60 -4c2 26 3 35 4 81c-35 -60 -90 -93 -158 -93c-45 0 -83 14 -111 40c-32 31 -44 66 -44 132c0 9 0 38 1 66zM277 638l-115 -96h-37l125 162h57l119 -162h-36z" />
    <glyph glyph-name="udieresis" unicode="&#xfc;" horiz-adv-x="551" 
d="M66 222l1 103c0 51 -1 87 -4 142c31 -3 45 -4 64 -4c18 0 31 1 56 4c-4 -73 -7 -192 -7 -244c0 -72 4 -103 16 -125c15 -27 45 -44 80 -44c45 0 80 28 93 75c8 30 9 45 9 174c0 52 -2 128 -5 164c32 -3 46 -4 63 -4s31 1 57 4c-5 -94 -7 -150 -7 -244
c0 -100 2 -168 6 -227c-23 3 -36 4 -54 4c-17 0 -30 -1 -60 -4c2 26 3 35 4 81c-35 -60 -90 -93 -158 -93c-45 0 -83 14 -111 40c-32 31 -44 66 -44 132c0 9 0 38 1 66zM174 682c32 0 58 -26 58 -58c0 -31 -26 -57 -58 -57c-31 0 -57 26 -57 58c0 31 26 57 57 57zM378 682
c32 0 58 -26 58 -58c0 -31 -26 -57 -58 -57c-31 0 -57 26 -57 58c0 31 26 57 57 57z" />
    <glyph glyph-name="ugrave" unicode="&#xf9;" horiz-adv-x="551" 
d="M66 222l1 103c0 51 -1 87 -4 142c31 -3 45 -4 64 -4c18 0 31 1 56 4c-4 -73 -7 -192 -7 -244c0 -72 4 -103 16 -125c15 -27 45 -44 80 -44c45 0 80 28 93 75c8 30 9 45 9 174c0 52 -2 128 -5 164c32 -3 46 -4 63 -4s31 1 57 4c-5 -94 -7 -150 -7 -244
c0 -100 2 -168 6 -227c-23 3 -36 4 -54 4c-17 0 -30 -1 -60 -4c2 26 3 35 4 81c-35 -60 -90 -93 -158 -93c-45 0 -83 14 -111 40c-32 31 -44 66 -44 132c0 9 0 38 1 66zM350 541h-39l-149 82c-27 14 -37 27 -37 43c0 19 16 35 36 35c19 0 31 -7 62 -37z" />
    <glyph glyph-name="yacute" unicode="&#xfd;" horiz-adv-x="457" 
d="M263 134c42 97 83 205 128 333c17 -3 25 -4 37 -4c11 0 20 1 38 4c-192 -421 -268 -599 -313 -733c-18 4 -28 5 -43 5s-25 -1 -45 -4c69 121 125 228 137 262c-12 33 -19 52 -46 115c-28 68 -58 139 -92 221c-27 65 -36 87 -57 134c34 -3 50 -4 71 -4c20 0 33 1 57 4
c29 -88 82 -227 128 -333zM176 543l127 123c32 30 43 37 62 37c20 0 36 -16 36 -35c0 -16 -10 -29 -36 -43l-150 -82h-39z" />
    <glyph glyph-name="ydieresis" unicode="&#xff;" horiz-adv-x="457" 
d="M263 134c42 97 83 205 128 333c17 -3 25 -4 37 -4c11 0 20 1 38 4c-192 -421 -268 -599 -313 -733c-18 4 -28 5 -43 5s-25 -1 -45 -4c69 121 125 228 137 262c-12 33 -19 52 -46 115c-28 68 -58 139 -92 221c-27 65 -36 87 -57 134c34 -3 50 -4 71 -4c20 0 33 1 57 4
c29 -88 82 -227 128 -333zM144 682c32 0 58 -26 58 -58c0 -31 -26 -57 -58 -57c-31 0 -57 26 -57 58c0 31 26 57 57 57zM348 682c32 0 58 -26 58 -58c0 -31 -26 -57 -58 -57c-31 0 -57 26 -57 58c0 31 26 57 57 57z" />
    <glyph glyph-name="zcaron" unicode="&#x17e;" horiz-adv-x="472" 
d="M449 467v-30c-85 -111 -175 -234 -285 -389c69 0 206 5 276 10c-2 -12 -3 -23 -3 -36c0 -9 1 -14 3 -26c-56 3 -156 5 -226 5c-66 0 -149 -2 -202 -4v29c133 177 221 297 285 390h-30c-54 0 -143 -4 -214 -10c2 13 3 20 3 29c0 10 -1 17 -3 32c70 -2 172 -3 245 -3
c57 0 93 1 151 3zM258 607l115 96h37l-125 -162h-57l-119 162h36z" />
    <glyph glyph-name="Abreve" unicode="&#x102;" horiz-adv-x="658" 
d="M359 677c127 -317 231 -569 283 -681c-37 3 -54 4 -74 4s-36 -1 -69 -4c-17 56 -50 148 -81 225c-42 2 -70 2 -114 2c-48 0 -78 -1 -126 -2c-42 -108 -45 -115 -80 -225c-18 3 -27 4 -40 4c-12 0 -22 -1 -47 -4c48 94 219 487 295 681c14 -2 20 -2 29 -2s14 0 24 2z
M301 512c-69 -160 -70 -161 -100 -238c51 -1 70 -1 103 -1c34 0 45 0 93 1c-30 80 -57 146 -96 238zM187 900h30c10 -51 51 -79 114 -79c64 0 104 27 115 79h30c-1 -87 -58 -144 -145 -144c-86 0 -143 57 -144 144z" />
    <glyph glyph-name="Aogonek" unicode="&#x104;" horiz-adv-x="658" 
d="M670 -123l12 -31c-32 -8 -49 -10 -73 -10c-71 0 -115 30 -115 79c0 37 24 61 82 85c-29 0 -46 -1 -77 -4c-17 56 -50 148 -81 225c-53 2 -75 2 -119 2c-47 0 -65 0 -121 -2c-42 -108 -45 -115 -80 -225c-18 3 -27 4 -40 4c-12 0 -22 -1 -47 -4c48 94 219 487 295 681
c14 -2 20 -2 29 -2s14 0 24 2c126 -316 231 -568 283 -681c-52 -24 -77 -50 -77 -79c0 -28 23 -45 62 -45c13 0 23 1 43 5zM301 512c-69 -160 -70 -161 -100 -238c51 -1 70 -1 103 -1c34 0 45 0 93 1c-30 80 -57 146 -96 238z" />
    <glyph glyph-name="Cacute" unicode="&#x106;" horiz-adv-x="679" 
d="M639 114l6 -5c-4 -15 -5 -18 -8 -27c-2 -5 -5 -18 -10 -37l-3 -10c-64 -37 -127 -53 -209 -53c-226 0 -368 131 -368 341c0 222 148 362 383 362c81 0 153 -16 215 -47c-11 -27 -19 -60 -25 -103h-11c-25 59 -97 98 -180 98c-149 0 -245 -120 -245 -305
c0 -181 96 -296 247 -296c76 0 149 29 208 82zM380 741l131 126c33 33 44 39 64 39c21 0 38 -17 38 -37c0 -18 -11 -31 -38 -46l-149 -82h-46z" />
    <glyph glyph-name="Ccaron" unicode="&#x10c;" horiz-adv-x="679" 
d="M639 114l6 -5c-4 -15 -5 -18 -8 -27c-2 -5 -5 -18 -10 -37l-3 -10c-64 -37 -127 -53 -209 -53c-226 0 -368 131 -368 341c0 222 148 362 383 362c81 0 153 -16 215 -47c-11 -27 -19 -60 -25 -103h-11c-25 59 -97 98 -180 98c-149 0 -245 -120 -245 -305
c0 -181 96 -296 247 -296c76 0 149 29 208 82zM438 813l115 95h42l-128 -166h-60l-122 166h42z" />
    <glyph glyph-name="Dcaron" unicode="&#x10e;" horiz-adv-x="760" 
d="M77 671c32 -3 51 -4 83 -4c16 0 50 1 100 2c37 1 74 2 103 2c119 0 186 -18 244 -67c69 -57 107 -147 107 -252c0 -110 -41 -206 -116 -271c-67 -59 -148 -85 -263 -85c-21 0 -62 1 -100 2c-32 1 -56 2 -75 2c-30 0 -50 -1 -83 -4c6 64 11 220 11 336
c0 123 -4 250 -11 339zM211 49c31 -4 51 -5 80 -5c98 0 158 19 204 64c53 53 82 135 82 237c0 94 -25 170 -73 217c-43 43 -100 60 -201 60c-35 0 -58 -2 -92 -7c-2 -47 -5 -203 -5 -278c0 -102 2 -227 5 -288zM332 813l115 95h42l-128 -166h-60l-122 166h42z" />
    <glyph glyph-name="Ecaron" unicode="&#x11a;" horiz-adv-x="495" 
d="M229 323h-22c-1 -8 -1 -12 -1 -14c0 -65 3 -199 5 -251c11 -1 22 -1 26 -1c62 0 164 6 213 12c-3 -16 -4 -24 -4 -36s1 -21 4 -37c-59 2 -148 4 -179 4c-54 0 -154 -2 -194 -4c7 94 11 219 11 344c0 132 -4 261 -10 331c47 -4 115 -6 192 -6c61 0 138 3 182 6
c-3 -16 -4 -25 -4 -37c0 -13 1 -21 4 -38c-70 7 -128 9 -239 11c-4 -96 -5 -148 -6 -227c12 -1 23 -1 26 -1c61 0 149 4 206 9c-4 -17 -5 -25 -5 -38c0 -12 1 -20 5 -35c-52 4 -155 8 -210 8zM267 813l115 95h42l-128 -166h-60l-122 166h42z" />
    <glyph glyph-name="Edotaccent" unicode="&#x116;" horiz-adv-x="495" 
d="M229 323h-22c-1 -8 -1 -12 -1 -14c0 -65 3 -199 5 -251c11 -1 22 -1 26 -1c62 0 164 6 213 12c-3 -16 -4 -24 -4 -36s1 -21 4 -37c-59 2 -148 4 -179 4c-54 0 -154 -2 -194 -4c7 94 11 219 11 344c0 132 -4 261 -10 331c47 -4 115 -6 192 -6c61 0 138 3 182 6
c-3 -16 -4 -25 -4 -37c0 -13 1 -21 4 -38c-70 7 -128 9 -239 11c-4 -96 -5 -148 -6 -227c12 -1 23 -1 26 -1c61 0 149 4 206 9c-4 -17 -5 -25 -5 -38c0 -12 1 -20 5 -35c-52 4 -155 8 -210 8zM269 884c33 0 60 -27 60 -60s-27 -60 -60 -60s-60 27 -60 60s27 60 60 60z" />
    <glyph glyph-name="Eogonek" unicode="&#x118;" horiz-adv-x="495" 
d="M229 323h-22c-1 -8 -1 -12 -1 -14c0 -65 3 -199 5 -251c11 -1 22 -1 26 -1c62 0 164 6 213 12c-3 -16 -4 -24 -4 -36s1 -21 4 -37c-11 -6 -23 -13 -38 -24c-28 -21 -37 -34 -37 -55c0 -28 23 -45 61 -45c14 0 24 1 44 5l12 -31c-31 -8 -48 -10 -73 -10
c-71 0 -115 30 -115 79c0 36 24 62 77 83c-30 1 -86 2 -110 2c-54 0 -154 -2 -194 -4c7 94 11 219 11 344c0 132 -4 261 -10 331c47 -4 115 -6 192 -6c61 0 138 3 182 6c-3 -16 -4 -25 -4 -37c0 -13 1 -21 4 -38c-70 7 -128 9 -239 11c-4 -96 -5 -148 -6 -227
c12 -1 23 -1 26 -1c61 0 149 4 206 9c-4 -17 -5 -25 -5 -38c0 -12 1 -20 5 -35c-52 4 -155 8 -210 8z" />
    <glyph glyph-name="Gbreve" unicode="&#x11e;" horiz-adv-x="772" 
d="M664 529h-12c-38 67 -113 105 -204 105c-162 0 -264 -119 -264 -308c0 -181 99 -294 257 -294c49 0 93 9 134 26c3 46 4 77 4 111c0 52 -2 84 -7 134c26 -4 41 -5 63 -5c21 0 37 1 67 4c-6 -51 -8 -100 -8 -172c0 -48 1 -70 4 -101c-109 -34 -184 -47 -271 -47
c-235 0 -380 130 -380 341c0 223 156 362 406 362c95 0 163 -16 239 -57c-17 -45 -23 -67 -28 -99zM308 900h30c10 -51 51 -79 114 -79c64 0 104 27 115 79h30c-1 -87 -58 -144 -145 -144c-86 0 -143 57 -144 144z" />
    <glyph glyph-name="Idotaccent" unicode="&#x130;" horiz-adv-x="293" 
d="M75 671c33 -3 50 -4 74 -4c23 0 38 1 65 4c-7 -89 -10 -200 -10 -331c0 -152 4 -281 10 -344c-31 3 -47 4 -69 4s-39 -1 -70 -4c7 75 11 208 11 359c0 136 -4 240 -11 316zM145 884c33 0 60 -27 60 -60s-27 -60 -60 -60s-60 27 -60 60s27 60 60 60z" />
    <glyph glyph-name="Lacute" unicode="&#x139;" horiz-adv-x="470" 
d="M77 671c35 -3 52 -4 77 -4c23 0 37 1 62 4c-8 -101 -10 -179 -10 -349c0 -98 2 -208 5 -266c22 -1 26 -1 34 -1c65 0 152 5 212 13c-4 -19 -5 -29 -5 -40s1 -18 5 -32c-51 2 -165 4 -193 4c-31 0 -134 -2 -187 -4c6 71 10 196 10 354c0 162 -2 216 -10 321zM109 741
l131 126c33 33 44 39 64 39c21 0 38 -17 38 -37c0 -18 -11 -31 -38 -46l-149 -82h-46z" />
    <glyph glyph-name="Lcaron" unicode="&#x13d;" horiz-adv-x="470" 
d="M77 671c35 -3 52 -4 77 -4c23 0 37 1 62 4c-8 -101 -10 -179 -10 -349c0 -98 2 -208 5 -266c22 -1 26 -1 34 -1c65 0 152 5 212 13c-4 -19 -5 -29 -5 -40s1 -18 5 -32c-51 2 -165 4 -193 4c-31 0 -134 -2 -187 -4c6 71 10 196 10 354c0 162 -2 216 -10 321zM298 436
l-17 7l54 189c11 36 26 51 50 51c25 0 46 -18 46 -39c0 -12 -6 -26 -20 -46z" />
    <glyph glyph-name="Nacute" unicode="&#x143;" horiz-adv-x="751" 
d="M604 186v182c0 122 -2 209 -7 303c20 -3 29 -4 40 -4s20 1 41 4c-13 -138 -17 -287 -17 -596c0 -35 0 -49 1 -84c-15 1 -21 2 -30 2c-8 0 -13 -1 -24 -2c-128 152 -205 236 -459 501c-1 -42 -1 -78 -1 -129c0 -180 3 -281 12 -367c-20 3 -30 4 -43 4c-15 0 -23 -1 -40 -4
c7 93 13 297 13 462c0 89 -2 160 -6 218c19 -1 27 -2 36 -2c10 0 17 1 29 2c36 -42 64 -72 233 -251c68 -73 135 -145 222 -239zM316 741l131 126c33 33 44 39 64 39c21 0 38 -17 38 -37c0 -18 -11 -31 -38 -46l-149 -82h-46z" />
    <glyph glyph-name="Ncaron" unicode="&#x147;" horiz-adv-x="751" 
d="M604 186v182c0 122 -2 209 -7 303c20 -3 29 -4 40 -4s20 1 41 4c-13 -138 -17 -287 -17 -596c0 -35 0 -49 1 -84c-15 1 -21 2 -30 2c-8 0 -13 -1 -24 -2c-128 152 -205 236 -459 501c-1 -42 -1 -78 -1 -129c0 -180 3 -281 12 -367c-20 3 -30 4 -43 4c-15 0 -23 -1 -40 -4
c7 93 13 297 13 462c0 89 -2 160 -6 218c19 -1 27 -2 36 -2c10 0 17 1 29 2c36 -42 64 -72 233 -251c68 -73 135 -145 222 -239zM374 813l115 95h42l-128 -166h-60l-122 166h42z" />
    <glyph glyph-name="Ohungarumlaut" unicode="&#x150;" horiz-adv-x="843" 
d="M421 685c236 0 376 -132 376 -356c0 -102 -36 -193 -102 -254c-66 -62 -157 -93 -273 -93c-233 0 -375 133 -375 352c0 217 143 351 374 351zM421 638c-149 0 -237 -113 -237 -305s88 -304 238 -304c149 0 238 112 238 300c0 197 -86 309 -239 309zM360 749h-43l106 126
c23 27 38 37 57 37c24 0 44 -19 44 -41c0 -14 -10 -27 -30 -40zM509 749h-43l107 126c22 27 38 37 56 37c24 0 44 -19 44 -41c0 -14 -10 -28 -30 -40z" />
    <glyph glyph-name="Racute" unicode="&#x154;" horiz-adv-x="603" 
d="M224 312h-20v-29c0 -102 5 -217 12 -287c-31 3 -48 4 -73 4s-39 -1 -66 -4c7 87 10 213 10 379c0 122 -4 230 -10 296c35 -3 54 -4 84 -4c18 0 45 1 78 2c34 1 61 2 81 2c64 0 109 -10 143 -34c40 -27 64 -74 64 -127c0 -62 -31 -116 -85 -148c-24 -14 -50 -24 -91 -34
c134 -192 159 -228 237 -332c-41 3 -60 4 -84 4s-41 -1 -72 -4c-71 116 -163 255 -208 316zM204 352c16 -1 27 -2 38 -2c97 0 157 56 157 147c0 80 -49 127 -130 127c-9 0 -25 -1 -60 -4c-3 -43 -5 -160 -5 -268zM216 741l131 126c33 33 44 39 64 39c21 0 38 -17 38 -37
c0 -18 -11 -31 -38 -46l-149 -82h-46z" />
    <glyph glyph-name="Rcaron" unicode="&#x158;" horiz-adv-x="603" 
d="M224 312h-20v-29c0 -102 5 -217 12 -287c-31 3 -48 4 -73 4s-39 -1 -66 -4c7 87 10 213 10 379c0 122 -4 230 -10 296c35 -3 54 -4 84 -4c18 0 45 1 78 2c34 1 61 2 81 2c64 0 109 -10 143 -34c40 -27 64 -74 64 -127c0 -62 -31 -116 -85 -148c-24 -14 -50 -24 -91 -34
c134 -192 159 -228 237 -332c-41 3 -60 4 -84 4s-41 -1 -72 -4c-71 116 -163 255 -208 316zM204 352c16 -1 27 -2 38 -2c97 0 157 56 157 147c0 80 -49 127 -130 127c-9 0 -25 -1 -60 -4c-3 -43 -5 -160 -5 -268zM273 813l115 95h42l-128 -166h-60l-122 166h42z" />
    <glyph glyph-name="Sacute" unicode="&#x15a;" horiz-adv-x="520" 
d="M424 539h-12c-20 58 -70 95 -130 95c-64 0 -112 -43 -112 -101c0 -32 16 -61 44 -82c22 -16 33 -22 106 -56c60 -28 87 -45 111 -68c32 -31 49 -74 49 -122c0 -60 -26 -119 -70 -160c-46 -43 -106 -63 -185 -63c-66 0 -113 11 -177 42c10 34 18 92 20 134h14
c25 -78 86 -127 158 -127c73 0 127 52 127 122c0 32 -11 58 -33 77c-24 21 -31 25 -113 64c-115 56 -157 106 -157 190c0 121 92 201 231 201c60 0 112 -15 164 -47c-10 -21 -22 -56 -35 -99zM237 741l131 126c33 33 44 39 64 39c21 0 38 -17 38 -37c0 -18 -11 -31 -38 -46
l-149 -82h-46z" />
    <glyph glyph-name="Scedilla" unicode="&#x15e;" horiz-adv-x="528" 
d="M255 -16l-2 -49c17 4 26 5 39 5c54 0 90 -26 90 -66c0 -54 -53 -90 -132 -90c-40 0 -73 8 -111 27l14 27c27 -11 50 -16 78 -16c41 0 67 17 67 45c0 22 -19 37 -46 37c-10 0 -17 -1 -33 -5l-9 8v77c-59 3 -98 12 -158 39c10 35 18 93 20 135h14c25 -78 86 -127 158 -127
c73 0 127 52 127 123c0 31 -11 57 -33 77c-24 20 -31 24 -113 63c-116 56 -157 106 -157 190c0 121 92 201 231 201c61 0 113 -15 164 -47c-10 -21 -22 -56 -35 -99h-12c-20 58 -70 95 -130 95c-64 0 -112 -43 -112 -101c0 -32 16 -61 44 -82c22 -16 33 -22 106 -56
c60 -28 87 -45 111 -68c32 -30 49 -74 49 -122c0 -80 -46 -155 -119 -193c-32 -16 -63 -24 -110 -28z" />
    <glyph glyph-name="Scedilla" unicode="&#xf6c1;" horiz-adv-x="528" 
d="M255 -16l-2 -49c17 4 26 5 39 5c54 0 90 -26 90 -66c0 -54 -53 -90 -132 -90c-40 0 -73 8 -111 27l14 27c27 -11 50 -16 78 -16c41 0 67 17 67 45c0 22 -19 37 -46 37c-10 0 -17 -1 -33 -5l-9 8v77c-59 3 -98 12 -158 39c10 35 18 93 20 135h14c25 -78 86 -127 158 -127
c73 0 127 52 127 123c0 31 -11 57 -33 77c-24 20 -31 24 -113 63c-116 56 -157 106 -157 190c0 121 92 201 231 201c61 0 113 -15 164 -47c-10 -21 -22 -56 -35 -99h-12c-20 58 -70 95 -130 95c-64 0 -112 -43 -112 -101c0 -32 16 -61 44 -82c22 -16 33 -22 106 -56
c60 -28 87 -45 111 -68c32 -30 49 -74 49 -122c0 -80 -46 -155 -119 -193c-32 -16 -63 -24 -110 -28z" />
    <glyph glyph-name="Tcaron" unicode="&#x164;" horiz-adv-x="505" 
d="M319 606c-4 -86 -6 -173 -6 -261c0 -159 4 -292 11 -349c-37 3 -53 4 -72 4c-18 0 -34 -1 -68 -4c6 44 11 224 11 380c0 71 -1 139 -5 230c-99 -2 -133 -4 -193 -12c3 15 4 23 4 36c0 15 -1 24 -4 41c107 -6 154 -7 252 -7c100 0 149 1 259 7c-3 -15 -4 -23 -4 -39
c0 -13 1 -22 4 -38c-46 7 -121 12 -189 12zM256 813l115 95h42l-128 -166h-60l-122 166h42z" />
    <glyph glyph-name="Uring" unicode="&#x16e;" horiz-adv-x="744" 
d="M79 264l1 76c1 43 2 81 2 108c0 88 -3 163 -8 223c33 -3 50 -4 72 -4c24 0 39 1 67 4c-8 -94 -13 -216 -13 -350c0 -117 9 -165 41 -209c34 -48 84 -71 151 -71c93 0 161 48 184 129c14 49 18 101 18 247c0 117 -1 169 -6 254c19 -3 28 -4 42 -4c15 0 25 1 45 4
c-5 -50 -11 -184 -14 -315c-2 -165 -13 -218 -57 -273c-51 -66 -133 -101 -235 -101c-111 0 -203 38 -248 104c-29 44 -42 97 -42 178zM392 935c65 0 107 -40 107 -103s-42 -102 -109 -102s-109 39 -109 102c0 65 41 103 111 103zM391 909c-37 0 -58 -28 -58 -77
c0 -48 21 -76 57 -76s57 28 57 76s-21 77 -56 77z" />
    <glyph glyph-name="Uhungarumlaut" unicode="&#x170;" horiz-adv-x="744" 
d="M79 264l1 76c1 43 2 81 2 108c0 88 -3 163 -8 223c33 -3 50 -4 72 -4c24 0 39 1 67 4c-8 -94 -13 -216 -13 -350c0 -117 9 -165 41 -209c34 -48 84 -71 151 -71c93 0 161 48 184 129c14 49 18 101 18 247c0 117 -1 169 -6 254c19 -3 28 -4 42 -4c15 0 25 1 45 4
c-5 -50 -11 -184 -14 -315c-2 -165 -13 -218 -57 -273c-51 -66 -133 -101 -235 -101c-111 0 -203 38 -248 104c-29 44 -42 97 -42 178zM316 749h-43l106 126c23 27 38 37 57 37c24 0 44 -19 44 -41c0 -14 -10 -27 -30 -40zM465 749h-43l107 126c22 27 38 37 56 37
c24 0 44 -19 44 -41c0 -14 -10 -28 -30 -40z" />
    <glyph glyph-name="Zacute" unicode="&#x179;" horiz-adv-x="619" 
d="M589 672v-17c-78 -106 -247 -368 -386 -598h40c113 0 265 6 341 13c-3 -17 -4 -25 -4 -41c0 -13 1 -20 4 -35c-75 4 -174 7 -276 7c-84 0 -186 -2 -280 -5v17c45 60 268 405 386 597h-32c-83 0 -222 -4 -313 -10c3 18 4 28 4 40s-1 19 -4 33c95 -3 216 -6 266 -6
c54 0 168 2 254 5zM278 741l131 126c33 33 44 39 64 39c21 0 38 -17 38 -37c0 -18 -11 -31 -38 -46l-149 -82h-46z" />
    <glyph glyph-name="Zdotaccent" unicode="&#x17b;" horiz-adv-x="619" 
d="M589 672v-17c-78 -106 -247 -368 -386 -598h40c113 0 265 6 341 13c-3 -17 -4 -25 -4 -41c0 -13 1 -20 4 -35c-75 4 -174 7 -276 7c-84 0 -186 -2 -280 -5v17c45 60 268 405 386 597h-32c-83 0 -222 -4 -313 -10c3 18 4 28 4 40s-1 19 -4 33c95 -3 216 -6 266 -6
c54 0 168 2 254 5zM337 884c33 0 60 -27 60 -60s-27 -60 -60 -60s-60 27 -60 60s27 60 60 60z" />
    <glyph glyph-name="Amacron" unicode="&#x100;" horiz-adv-x="658" 
d="M359 677c127 -317 231 -569 283 -681c-37 3 -54 4 -74 4s-36 -1 -69 -4c-17 56 -50 148 -81 225c-42 2 -70 2 -114 2c-48 0 -78 -1 -126 -2c-42 -108 -45 -115 -80 -225c-18 3 -27 4 -40 4c-12 0 -22 -1 -47 -4c48 94 219 487 295 681c14 -2 20 -2 29 -2s14 0 24 2z
M301 512c-69 -160 -70 -161 -100 -238c51 -1 70 -1 103 -1c34 0 45 0 93 1c-30 80 -57 146 -96 238zM181 846h299v-58h-299v58z" />
    <glyph glyph-name="Tcommaaccent" unicode="&#x162;" horiz-adv-x="505" 
d="M319 606c-4 -86 -6 -173 -6 -261c0 -159 4 -292 11 -349c-37 3 -53 4 -72 4c-18 0 -34 -1 -68 -4c6 44 11 224 11 380c0 71 -1 139 -5 230c-99 -2 -133 -4 -193 -12c3 15 4 23 4 36c0 15 -1 24 -4 41c107 -6 154 -7 252 -7c100 0 149 1 259 7c-3 -15 -4 -23 -4 -39
c0 -13 1 -22 4 -38c-46 7 -121 12 -189 12zM166 -305l-17 8l54 188c11 36 26 51 50 51c25 0 46 -18 46 -39c0 -12 -6 -26 -20 -46z" />
    <glyph glyph-name="Tcommaaccent" unicode="&#x21a;" horiz-adv-x="505" 
d="M319 606c-4 -86 -6 -173 -6 -261c0 -159 4 -292 11 -349c-37 3 -53 4 -72 4c-18 0 -34 -1 -68 -4c6 44 11 224 11 380c0 71 -1 139 -5 230c-99 -2 -133 -4 -193 -12c3 15 4 23 4 36c0 15 -1 24 -4 41c107 -6 154 -7 252 -7c100 0 149 1 259 7c-3 -15 -4 -23 -4 -39
c0 -13 1 -22 4 -38c-46 7 -121 12 -189 12zM166 -305l-17 8l54 188c11 36 26 51 50 51c25 0 46 -18 46 -39c0 -12 -6 -26 -20 -46z" />
    <glyph glyph-name="Emacron" unicode="&#x112;" horiz-adv-x="495" 
d="M229 323h-22c-1 -8 -1 -12 -1 -14c0 -65 3 -199 5 -251c11 -1 22 -1 26 -1c62 0 164 6 213 12c-3 -16 -4 -24 -4 -36s1 -21 4 -37c-59 2 -148 4 -179 4c-54 0 -154 -2 -194 -4c7 94 11 219 11 344c0 132 -4 261 -10 331c47 -4 115 -6 192 -6c61 0 138 3 182 6
c-3 -16 -4 -25 -4 -37c0 -13 1 -21 4 -38c-70 7 -128 9 -239 11c-4 -96 -5 -148 -6 -227c12 -1 23 -1 26 -1c61 0 149 4 206 9c-4 -17 -5 -25 -5 -38c0 -12 1 -20 5 -35c-52 4 -155 8 -210 8zM119 846h299v-58h-299v58z" />
    <glyph glyph-name="Imacron" unicode="&#x12a;" horiz-adv-x="293" 
d="M77 671c33 -3 50 -4 74 -4c23 0 38 1 65 4c-6 -87 -10 -203 -10 -328c0 -153 4 -286 10 -347c-31 3 -47 4 -69 4s-39 -1 -70 -4c7 75 11 207 11 359c0 136 -4 241 -11 316zM-3 846h299v-58h-299v58z" />
    <glyph glyph-name="Iogonek" unicode="&#x12e;" horiz-adv-x="293" 
d="M154 0h-12c-17 0 -33 -1 -65 -4c6 75 10 208 10 359c0 136 -3 240 -10 316c32 -3 49 -4 73 -4s39 1 66 4c-7 -88 -11 -200 -11 -330c0 -148 4 -273 11 -345c-58 -35 -74 -52 -74 -79c0 -28 23 -45 61 -45c14 0 24 1 44 5l12 -31c-31 -8 -48 -10 -73 -10
c-71 0 -115 30 -115 79c0 37 24 62 83 85z" />
    <glyph glyph-name="Kcommaaccent" unicode="&#x136;" horiz-adv-x="613" 
d="M204 358c16 3 165 169 280 313c21 -3 31 -4 50 -4c16 0 30 1 56 4c-22 -22 -42 -41 -78 -78c-96 -95 -157 -158 -205 -213c18 -25 25 -34 70 -92c38 -49 96 -126 138 -183c51 -69 60 -81 83 -109c-39 3 -58 4 -81 4c-24 0 -41 -1 -73 -4c-37 55 -80 115 -160 224
c-60 81 -69 91 -80 99c0 -177 2 -251 10 -323c-30 3 -45 4 -69 4s-40 -1 -68 -4c7 94 10 196 10 402c0 98 -5 224 -10 273c35 -3 53 -4 76 -4s37 1 61 4c-6 -81 -8 -142 -10 -313zM224 -296l-18 7l53 183c9 33 24 48 48 48c25 0 47 -18 47 -40c0 -9 -6 -23 -20 -42z" />
    <glyph glyph-name="Lcommaaccent" unicode="&#x13b;" horiz-adv-x="470" 
d="M77 671c35 -3 52 -4 77 -4c23 0 37 1 62 4c-8 -101 -10 -179 -10 -349c0 -98 2 -208 5 -266c22 -1 26 -1 34 -1c65 0 152 5 212 13c-4 -19 -5 -29 -5 -40s1 -18 5 -32c-51 2 -165 4 -193 4c-31 0 -134 -2 -187 -4c6 71 10 196 10 354c0 162 -2 216 -10 321zM157 -305
l-17 8l54 188c11 36 26 51 50 51c25 0 46 -18 46 -39c0 -12 -6 -26 -20 -46z" />
    <glyph glyph-name="Ncommaaccent" unicode="&#x145;" horiz-adv-x="751" 
d="M604 186v182c0 122 -2 209 -7 303c20 -3 29 -4 40 -4s20 1 41 4c-13 -138 -17 -287 -17 -596c0 -35 0 -49 1 -84c-15 1 -21 2 -30 2c-8 0 -13 -1 -24 -2c-128 152 -205 236 -459 501c-1 -42 -1 -78 -1 -129c0 -180 3 -281 12 -367c-20 3 -30 4 -43 4c-15 0 -23 -1 -40 -4
c7 93 13 297 13 462c0 89 -2 160 -6 218c19 -1 27 -2 36 -2c10 0 17 1 29 2c36 -42 64 -72 233 -251c68 -73 135 -145 222 -239zM289 -305l-17 8l54 188c11 36 26 51 50 51c25 0 46 -18 46 -39c0 -12 -6 -26 -20 -46z" />
    <glyph glyph-name="Omacron" unicode="&#x14c;" horiz-adv-x="843" 
d="M421 685c236 0 376 -132 376 -356c0 -102 -36 -193 -102 -254c-66 -62 -157 -93 -273 -93c-233 0 -375 133 -375 352c0 217 143 351 374 351zM421 638c-149 0 -237 -113 -237 -305s88 -304 238 -304c149 0 238 112 238 300c0 197 -86 309 -239 309zM272 846h299v-58h-299
v58z" />
    <glyph glyph-name="Rcommaaccent" unicode="&#x156;" horiz-adv-x="603" 
d="M224 312h-20v-29c0 -102 5 -217 12 -287c-31 3 -48 4 -73 4s-39 -1 -66 -4c7 87 10 213 10 379c0 122 -4 230 -10 296c35 -3 54 -4 84 -4c18 0 45 1 78 2c34 1 61 2 81 2c64 0 109 -10 143 -34c40 -27 64 -74 64 -127c0 -62 -31 -116 -85 -148c-24 -14 -50 -24 -91 -34
c134 -192 159 -228 237 -332c-41 3 -60 4 -84 4s-41 -1 -72 -4c-71 116 -163 255 -208 316zM204 352c16 -1 27 -2 38 -2c97 0 157 56 157 147c0 80 -49 127 -130 127c-9 0 -25 -1 -60 -4c-3 -43 -5 -160 -5 -268zM215 -305l-17 8l54 188c11 36 26 51 50 51
c25 0 46 -18 46 -39c0 -12 -6 -26 -20 -46z" />
    <glyph glyph-name="Gcommaaccent" unicode="&#x122;" horiz-adv-x="772" 
d="M664 529h-12c-38 67 -113 105 -204 105c-162 0 -264 -119 -264 -308c0 -181 99 -294 257 -294c49 0 93 9 134 26c3 46 4 77 4 111c0 52 -2 84 -7 134c26 -4 41 -5 63 -5c21 0 37 1 67 4c-6 -51 -8 -100 -8 -172c0 -48 1 -70 4 -101c-109 -34 -184 -47 -271 -47
c-235 0 -380 130 -380 341c0 223 156 362 406 362c95 0 163 -16 239 -57c-17 -45 -23 -67 -28 -99zM337 -305l-17 8l54 188c11 36 26 51 50 51c25 0 46 -18 46 -39c0 -12 -6 -26 -20 -46z" />
    <glyph glyph-name="Umacron" unicode="&#x16a;" horiz-adv-x="744" 
d="M79 264l1 76c1 43 2 81 2 108c0 88 -3 163 -8 223c33 -3 50 -4 72 -4c24 0 39 1 67 4c-8 -94 -13 -216 -13 -350c0 -117 9 -165 41 -209c34 -48 84 -71 151 -71c93 0 161 48 184 129c14 49 18 101 18 247c0 117 -1 169 -6 254c19 -3 28 -4 42 -4c15 0 25 1 45 4
c-5 -50 -11 -184 -14 -315c-2 -165 -13 -218 -57 -273c-51 -66 -133 -101 -235 -101c-111 0 -203 38 -248 104c-29 44 -42 97 -42 178zM240 846h299v-58h-299v58z" />
    <glyph glyph-name="Uogonek" unicode="&#x172;" horiz-adv-x="744" 
d="M473 -4l1 1c-35 -11 -66 -15 -105 -15c-111 0 -203 39 -248 104c-29 44 -42 97 -42 178l1 76c1 43 2 81 2 108c0 88 -3 163 -8 223c33 -3 50 -4 72 -4c24 0 39 1 67 4c-8 -94 -13 -216 -13 -350c0 -117 9 -165 41 -209c34 -48 84 -71 151 -71c93 0 161 48 184 129
c14 49 18 101 18 247c0 117 -1 169 -6 254c19 -3 28 -4 42 -4c15 0 25 1 45 4c-5 -51 -11 -184 -14 -315c-1 -200 -23 -261 -119 -330c-51 -38 -69 -64 -69 -97c0 -35 23 -57 62 -57c13 0 23 1 43 5l13 -31c-32 -8 -49 -10 -73 -10c-71 0 -116 33 -116 85c0 33 21 55 71 75z
" />
    <glyph glyph-name="abreve" unicode="&#x103;" horiz-adv-x="503" 
d="M95 345h-11v13c0 16 -2 29 -9 55c59 45 110 63 179 63c63 0 114 -21 142 -58c21 -29 28 -59 28 -123c0 -9 0 -9 -1 -83v-34c0 -69 1 -100 4 -113c5 -20 20 -33 40 -33c5 0 9 1 18 2v-18c-28 -17 -53 -24 -83 -24c-46 0 -71 19 -85 65c-42 -51 -85 -73 -141 -73
c-83 0 -137 49 -137 125c0 54 26 95 74 117c16 8 16 8 132 35c49 12 66 28 66 63c0 57 -41 98 -100 98c-50 0 -92 -28 -116 -77zM315 195l-1 19c-1 10 0 19 2 34c-7 -1 -7 -1 -14 -3c-57 -17 -97 -31 -111 -41c-24 -17 -36 -44 -36 -81c0 -51 26 -82 69 -82
c34 0 68 21 81 50c7 16 12 68 10 104zM118 691h26c11 -51 53 -80 116 -80c64 0 105 29 116 80h26c-1 -84 -58 -140 -142 -140s-140 56 -142 140z" />
    <glyph glyph-name="aogonek" unicode="&#x105;" horiz-adv-x="503" 
d="M485 34v-18c-12 -10 -19 -15 -35 -23c-48 -24 -62 -41 -62 -71c0 -28 21 -44 58 -44c14 0 24 1 43 5l11 -29c-30 -8 -47 -10 -71 -10c-67 0 -108 28 -108 74c0 32 20 55 63 75c-35 6 -57 27 -67 64c-42 -51 -85 -73 -141 -73c-83 0 -137 49 -137 125c0 54 26 95 74 117
c16 8 16 8 132 35c49 12 66 28 66 63c0 57 -41 98 -100 98c-50 0 -92 -28 -116 -77h-11v13c0 16 -2 29 -9 55c59 45 110 63 179 63c63 0 114 -21 142 -58c21 -29 28 -59 28 -123c0 -9 0 -9 -1 -83v-34c0 -69 1 -100 4 -113c5 -20 20 -33 40 -33c5 0 9 1 18 2zM315 195l-1 19
c-1 10 0 19 2 34c-7 -1 -7 -1 -14 -3c-57 -17 -97 -31 -111 -41c-24 -17 -36 -44 -36 -81c0 -51 26 -82 69 -82c34 0 68 21 81 50c7 16 12 68 10 104z" />
    <glyph glyph-name="cacute" unicode="&#x107;" horiz-adv-x="480" 
d="M430 348h-15c-12 53 -56 88 -111 88c-86 0 -142 -79 -142 -199c0 -123 62 -200 161 -200c46 0 87 18 120 51l11 -6c-9 -25 -12 -39 -14 -53c-51 -32 -95 -45 -155 -45c-150 0 -246 95 -246 243c0 152 102 249 262 249c63 0 113 -13 159 -41c-14 -30 -25 -63 -30 -87z
M234 543l127 123c32 30 43 37 62 37c20 0 36 -16 36 -35c0 -16 -10 -29 -36 -43l-150 -82h-39z" />
    <glyph glyph-name="ccaron" unicode="&#x10d;" horiz-adv-x="480" 
d="M430 348h-15c-12 53 -56 88 -111 88c-86 0 -142 -79 -142 -199c0 -123 62 -200 161 -200c46 0 87 18 120 51l11 -6c-9 -25 -12 -39 -14 -53c-51 -32 -95 -45 -155 -45c-150 0 -246 95 -246 243c0 152 102 249 262 249c63 0 113 -13 159 -41c-14 -30 -25 -63 -30 -87z
M293 607l115 96h37l-125 -162h-57l-119 162h36z" />
    <glyph glyph-name="dcaron" unicode="&#x10f;" horiz-adv-x="688" 
d="M377 736c31 -3 45 -4 62 -4c18 0 32 1 62 4c-7 -77 -10 -233 -10 -442c0 -104 3 -247 6 -298c-28 3 -42 4 -60 4c-19 0 -31 -1 -55 -4c3 42 4 58 5 90c-35 -72 -80 -102 -153 -102c-120 0 -195 91 -195 237c0 155 80 255 204 255c68 0 113 -27 141 -83
c0 184 -2 281 -7 343zM277 423c-75 0 -115 -71 -115 -203c0 -119 38 -185 106 -185c72 0 116 79 116 210c0 112 -40 178 -107 178zM558 503l-16 7l52 179c9 33 24 48 48 48c23 0 43 -17 43 -37c0 -11 -5 -22 -19 -43z" />
    <glyph glyph-name="ecaron" unicode="&#x11b;" horiz-adv-x="504" 
d="M441 92l10 -6l-3 -8c-8 -20 -10 -27 -13 -45c-56 -35 -101 -49 -160 -49c-144 0 -236 95 -236 245c0 153 86 247 227 247c130 0 204 -78 204 -214c0 -5 -1 -18 -2 -32c-40 2 -92 3 -156 3l-151 -1c-1 -7 -1 -13 -1 -15c0 -111 57 -180 149 -180c49 0 90 17 132 55z
M260 274h26c41 0 47 0 71 2c-2 50 -4 70 -10 91c-13 47 -41 72 -82 72c-60 0 -99 -61 -103 -164c26 -1 32 -1 98 -1zM270 607l115 96h37l-125 -162h-57l-119 162h36z" />
    <glyph glyph-name="edotaccent" unicode="&#x117;" horiz-adv-x="504" 
d="M441 92l10 -6l-3 -8c-8 -20 -10 -27 -13 -45c-56 -35 -101 -49 -160 -49c-144 0 -236 95 -236 245c0 153 86 247 227 247c130 0 204 -78 204 -214c0 -5 -1 -18 -2 -32c-40 2 -92 3 -156 3l-151 -1c-1 -7 -1 -13 -1 -15c0 -111 57 -180 149 -180c49 0 90 17 132 55z
M260 274h26c41 0 47 0 71 2c-2 50 -4 70 -10 91c-13 47 -41 72 -82 72c-60 0 -99 -61 -103 -164c26 -1 32 -1 98 -1zM272 682c32 0 58 -26 58 -58s-26 -58 -58 -58s-58 26 -58 59c0 31 26 57 58 57z" />
    <glyph glyph-name="eogonek" unicode="&#x119;" horiz-adv-x="504" 
d="M442 93l10 -7l-3 -8c-8 -20 -10 -27 -13 -44c-35 -23 -55 -33 -98 -47c-60 -20 -78 -35 -78 -65c0 -28 21 -44 58 -44c14 0 24 1 42 6l12 -29c-30 -8 -47 -11 -71 -11c-67 0 -108 29 -108 75c0 28 14 48 48 67c-128 17 -201 105 -201 242c0 154 86 248 227 248
c130 0 204 -78 204 -214c0 -5 -1 -18 -2 -32c-47 2 -90 3 -156 3c-40 0 -62 0 -151 -1c-1 -6 -1 -13 -1 -15c0 -111 57 -180 149 -180c49 0 91 18 132 56zM261 274h26c41 0 47 0 71 2c-2 50 -4 70 -10 91c-13 47 -41 72 -82 72c-60 0 -99 -61 -103 -163c26 -2 33 -2 98 -2z
" />
    <glyph glyph-name="gbreve" unicode="&#x11f;" horiz-adv-x="528" 
d="M517 422l-116 3c35 -34 46 -58 46 -100c0 -63 -35 -115 -92 -137c-35 -13 -51 -15 -128 -18c-31 -2 -49 -16 -49 -39c0 -15 9 -27 27 -33c14 -6 37 -8 110 -9c99 -2 121 -5 151 -24c36 -22 55 -63 55 -115c0 -130 -105 -217 -261 -217c-140 0 -228 57 -228 149
c0 64 38 105 116 126c-43 14 -64 39 -64 76c0 43 22 66 90 93c-81 22 -123 71 -123 143c0 99 74 156 204 156c32 0 32 0 121 -9c21 -2 42 -3 68 -3c24 0 42 1 73 4c-2 -10 -3 -16 -3 -24c0 -7 1 -12 3 -22zM255 442c-61 0 -89 -41 -89 -128c0 -73 28 -110 84 -110
c57 0 85 41 85 123c0 78 -26 115 -80 115zM263 3c-49 0 -77 -5 -101 -18c-28 -16 -46 -49 -46 -87c0 -74 66 -129 155 -129c88 0 148 54 148 133c0 73 -44 101 -156 101zM130 691h26c11 -51 53 -80 116 -80c64 0 105 29 116 80h26c-1 -84 -58 -140 -142 -140
s-140 56 -142 140z" />
    <glyph glyph-name="lacute" unicode="&#x13a;" horiz-adv-x="239" 
d="M57 736c26 -3 40 -4 62 -4s36 1 62 4c-5 -63 -8 -229 -8 -368c0 -152 3 -295 8 -372c-34 3 -47 4 -62 4s-29 -1 -62 -4c6 102 9 209 9 366c0 169 -3 299 -9 374zM67 795l131 126c34 33 44 39 64 39c21 0 38 -17 38 -37c0 -18 -11 -31 -37 -46l-150 -82h-46z" />
    <glyph glyph-name="lcaron" unicode="&#x13e;" horiz-adv-x="370" 
d="M57 736c26 -3 40 -4 62 -4s36 1 62 4c-5 -63 -8 -229 -8 -368c0 -152 3 -295 8 -372c-34 3 -47 4 -62 4s-29 -1 -62 -4c6 102 9 209 9 366c0 169 -3 299 -9 374zM238 503l-16 7l52 179c9 33 24 48 48 48c23 0 43 -17 43 -37c0 -11 -5 -22 -19 -43z" />
    <glyph glyph-name="nacute" unicode="&#x144;" horiz-adv-x="551" 
d="M175 400l-1 -12c42 61 91 89 157 89c96 0 156 -61 156 -162c0 -16 -1 -45 -2 -75c-1 -33 -2 -64 -2 -93c0 -55 2 -111 5 -151c-29 3 -42 4 -63 4c-18 0 -32 -1 -57 -4c3 45 7 163 7 219c0 74 -3 109 -12 132c-15 40 -44 60 -85 60c-43 0 -77 -26 -90 -67
c-10 -31 -12 -59 -12 -177c0 -63 1 -98 5 -167c-27 3 -41 4 -59 4c-17 0 -31 -1 -61 -4c5 56 8 144 8 244c0 78 -2 131 -8 227c29 -3 43 -4 62 -4s32 1 55 4c-2 -16 -2 -22 -2 -40c-1 -20 -1 -23 -1 -27zM222 543l127 123c32 30 43 37 62 37c20 0 36 -16 36 -35
c0 -16 -10 -29 -36 -43l-150 -82h-39z" />
    <glyph glyph-name="ncaron" unicode="&#x148;" horiz-adv-x="551" 
d="M175 400l-1 -12c42 61 91 89 157 89c96 0 156 -61 156 -162c0 -16 -1 -45 -2 -75c-1 -33 -2 -64 -2 -93c0 -55 2 -111 5 -151c-29 3 -42 4 -63 4c-18 0 -32 -1 -57 -4c3 45 7 163 7 219c0 74 -3 109 -12 132c-15 40 -44 60 -85 60c-43 0 -77 -26 -90 -67
c-10 -31 -12 -59 -12 -177c0 -63 1 -98 5 -167c-27 3 -41 4 -59 4c-17 0 -31 -1 -61 -4c5 56 8 144 8 244c0 78 -2 131 -8 227c29 -3 43 -4 62 -4s32 1 55 4c-2 -16 -2 -22 -2 -40c-1 -20 -1 -23 -1 -27zM274 607l115 96h37l-125 -162h-57l-119 162h36z" />
    <glyph glyph-name="ohungarumlaut" unicode="&#x151;" horiz-adv-x="562" 
d="M283 476c155 0 240 -89 240 -250c0 -151 -92 -242 -242 -242c-152 0 -242 91 -242 246s90 246 244 246zM281 440c-79 0 -119 -71 -119 -210s40 -210 119 -210c78 0 119 71 119 207c0 144 -38 213 -119 213zM206 549h-37l103 122c22 26 37 36 55 36c22 0 42 -18 42 -38
c0 -14 -9 -26 -29 -38zM356 549h-38l104 122c21 26 37 36 55 36c21 0 41 -18 41 -38c0 -14 -9 -26 -29 -38z" />
    <glyph glyph-name="racute" unicode="&#x155;" horiz-adv-x="351" 
d="M333 363l-9 -7c-19 10 -33 14 -50 14c-40 0 -73 -23 -89 -61c-8 -21 -11 -49 -11 -123c0 -63 3 -140 7 -190c-33 3 -46 4 -59 4c-15 0 -27 -1 -61 -4c6 55 8 125 8 236c0 86 -2 135 -8 235c31 -3 44 -4 59 -4s27 1 53 4c-1 -24 -2 -66 -2 -115c33 78 84 124 139 124
c7 0 13 -1 26 -3c-4 -22 -6 -40 -6 -62c0 -15 1 -25 3 -48zM120 543l127 123c32 30 43 37 62 37c20 0 36 -16 36 -35c0 -16 -10 -29 -36 -43l-150 -82h-39z" />
    <glyph glyph-name="sacute" unicode="&#x15b;" horiz-adv-x="408" 
d="M58 113h11c23 -56 68 -90 120 -90c51 0 90 31 90 73c0 36 -20 54 -89 79c-60 22 -85 35 -107 53c-26 22 -42 59 -42 99c0 91 70 149 180 149c56 0 100 -10 140 -32l-4 -13c-4 -11 -8 -22 -12 -34c-2 -6 -6 -19 -13 -44h-12c-14 56 -53 87 -107 87c-46 0 -79 -29 -79 -69
c0 -25 13 -45 38 -59c21 -13 32 -17 90 -35c85 -28 119 -64 119 -128c0 -96 -86 -165 -205 -165c-48 0 -87 8 -137 29c6 15 14 59 19 100zM156 543l127 123c32 30 43 37 62 37c20 0 36 -16 36 -35c0 -16 -10 -29 -36 -43l-150 -82h-39z" />
    <glyph glyph-name="scommaaccent" unicode="&#x219;" horiz-adv-x="408" 
d="M58 113h11c23 -56 68 -90 120 -90c51 0 90 31 90 73c0 36 -20 54 -89 79c-60 22 -85 35 -107 53c-26 22 -42 59 -42 99c0 91 70 149 180 149c56 0 100 -10 140 -32l-4 -13c-4 -11 -8 -22 -12 -34c-2 -6 -6 -19 -13 -44h-12c-14 56 -53 87 -107 87c-46 0 -79 -29 -79 -69
c0 -25 13 -45 38 -59c21 -13 32 -17 90 -35c85 -28 119 -64 119 -128c0 -96 -86 -165 -205 -165c-48 0 -87 8 -137 29c6 15 14 59 19 100zM127 -286l-17 6l50 174c9 32 23 46 47 46c23 0 44 -17 44 -37c0 -10 -5 -20 -19 -41z" />
    <glyph glyph-name="tcaron" unicode="&#x165;" horiz-adv-x="386" 
d="M196 623l6 -6l-1 -15c-1 -23 -3 -45 -5 -68c0 0 -1 -34 -3 -76l102 3c-2 -17 -2 -20 -2 -25s0 -8 2 -23c-11 1 -24 1 -102 2c-1 -19 -2 -183 -2 -257c0 -59 2 -77 11 -97c9 -21 28 -32 55 -32c16 0 30 2 53 9l-5 -33c-39 -14 -71 -20 -101 -20c-80 0 -124 48 -124 135
c0 10 0 31 1 52c3 99 4 176 4 243c-59 -1 -59 -1 -77 -3c2 12 2 17 2 26c0 7 0 12 -2 22l78 -3v14c0 12 0 23 -2 42c-2 27 -2 36 -3 61c32 8 72 25 115 49zM261 507l-16 7l52 179c9 33 24 48 48 48c23 0 43 -17 43 -37c0 -11 -5 -22 -19 -43z" />
    <glyph glyph-name="uring" unicode="&#x16f;" horiz-adv-x="551" 
d="M66 222l1 103c0 51 -1 87 -4 142c31 -3 45 -4 64 -4c18 0 31 1 56 4c-4 -73 -7 -192 -7 -244c0 -72 4 -103 16 -125c15 -27 45 -44 80 -44c45 0 80 28 93 75c8 30 9 45 9 174c0 52 -2 128 -5 164c32 -3 46 -4 63 -4s31 1 57 4c-5 -94 -7 -150 -7 -244
c0 -100 2 -168 6 -227c-23 3 -36 4 -54 4c-17 0 -30 -1 -60 -4c2 26 3 35 4 81c-35 -60 -90 -93 -158 -93c-45 0 -83 14 -111 40c-32 31 -44 66 -44 132c0 9 0 38 1 66zM281 707c38 0 74 -38 74 -78c0 -37 -41 -72 -85 -72c-38 0 -74 38 -74 78c0 37 41 72 85 72zM272 688
c-20 0 -43 -26 -43 -50c0 -29 26 -62 50 -62c21 0 43 26 43 49c0 30 -26 63 -50 63z" />
    <glyph glyph-name="uhungarumlaut" unicode="&#x171;" horiz-adv-x="551" 
d="M66 222l1 103c0 51 -1 87 -4 142c31 -3 45 -4 64 -4c18 0 31 1 56 4c-4 -73 -7 -192 -7 -244c0 -72 4 -103 16 -125c15 -27 45 -44 80 -44c45 0 80 28 93 75c8 30 9 45 9 174c0 52 -2 128 -5 164c32 -3 46 -4 63 -4s31 1 57 4c-5 -94 -7 -150 -7 -244
c0 -100 2 -168 6 -227c-23 3 -36 4 -54 4c-17 0 -30 -1 -60 -4c2 26 3 35 4 81c-35 -60 -90 -93 -158 -93c-45 0 -83 14 -111 40c-32 31 -44 66 -44 132c0 9 0 38 1 66zM201 549h-37l103 122c22 26 37 36 55 36c22 0 42 -18 42 -38c0 -14 -9 -26 -29 -38zM351 549h-38
l104 122c21 26 37 36 55 36c21 0 41 -18 41 -38c0 -14 -9 -26 -29 -38z" />
    <glyph glyph-name="zacute" unicode="&#x17a;" horiz-adv-x="472" 
d="M449 467v-30c-85 -111 -175 -234 -285 -389c69 0 206 5 276 10c-2 -12 -3 -23 -3 -36c0 -9 1 -14 3 -26c-56 3 -156 5 -226 5c-66 0 -149 -2 -202 -4v29c133 177 221 297 285 390h-30c-54 0 -143 -4 -214 -10c2 13 3 20 3 29c0 10 -1 17 -3 32c70 -2 172 -3 245 -3
c57 0 93 1 151 3zM199 543l127 123c32 30 43 37 62 37c20 0 36 -16 36 -35c0 -16 -10 -29 -36 -43l-150 -82h-39z" />
    <glyph glyph-name="zdotaccent" unicode="&#x17c;" horiz-adv-x="472" 
d="M449 467v-30c-85 -111 -175 -234 -285 -389c69 0 206 5 276 10c-2 -12 -3 -23 -3 -36c0 -9 1 -14 3 -26c-56 3 -156 5 -226 5c-66 0 -149 -2 -202 -4v29c133 177 221 297 285 390h-30c-54 0 -143 -4 -214 -10c2 13 3 20 3 29c0 10 -1 17 -3 32c70 -2 172 -3 245 -3
c57 0 93 1 151 3zM260 682c32 0 58 -26 58 -58s-26 -58 -58 -58s-58 26 -58 59c0 31 26 57 58 57z" />
    <glyph glyph-name="tcommaaccent" unicode="&#x163;" horiz-adv-x="314" 
d="M196 623l6 -6l-1 -15c-1 -23 -3 -45 -5 -68c0 0 -1 -34 -3 -76l102 3c-2 -17 -2 -20 -2 -25s0 -8 2 -23c-11 1 -24 1 -102 2c-1 -19 -2 -183 -2 -257c0 -59 2 -77 11 -97c9 -21 28 -32 55 -32c16 0 30 2 53 9l-5 -33c-39 -14 -71 -20 -101 -20c-80 0 -124 48 -124 135
c0 10 0 31 1 52c3 99 4 176 4 243c-59 -1 -59 -1 -77 -3c2 12 2 17 2 26c0 7 0 12 -2 22l78 -3v14c0 12 0 23 -2 42c-2 27 -2 36 -3 61c32 8 72 25 115 49zM113 -286l-17 6l50 174c9 32 23 46 47 46c23 0 44 -17 44 -37c0 -10 -5 -21 -19 -41z" />
    <glyph glyph-name="tcommaaccent" unicode="&#x21b;" horiz-adv-x="314" 
d="M196 623l6 -6l-1 -15c-1 -23 -3 -45 -5 -68c0 0 -1 -34 -3 -76l102 3c-2 -17 -2 -20 -2 -25s0 -8 2 -23c-11 1 -24 1 -102 2c-1 -19 -2 -183 -2 -257c0 -59 2 -77 11 -97c9 -21 28 -32 55 -32c16 0 30 2 53 9l-5 -33c-39 -14 -71 -20 -101 -20c-80 0 -124 48 -124 135
c0 10 0 31 1 52c3 99 4 176 4 243c-59 -1 -59 -1 -77 -3c2 12 2 17 2 26c0 7 0 12 -2 22l78 -3v14c0 12 0 23 -2 42c-2 27 -2 36 -3 61c32 8 72 25 115 49zM113 -286l-17 6l50 174c9 32 23 46 47 46c23 0 44 -17 44 -37c0 -10 -5 -21 -19 -41z" />
    <glyph glyph-name="amacron" unicode="&#x101;" horiz-adv-x="503" 
d="M95 345h-11v13c0 16 -2 29 -9 55c59 45 110 63 179 63c63 0 114 -21 142 -58c21 -29 28 -59 28 -123c0 -9 0 -9 -1 -83v-34c0 -69 1 -100 4 -113c5 -20 20 -33 40 -33c5 0 9 1 18 2v-18c-28 -17 -53 -24 -83 -24c-46 0 -71 19 -85 65c-42 -51 -85 -73 -141 -73
c-83 0 -137 49 -137 125c0 54 26 95 74 117c16 8 16 8 132 35c49 12 66 28 66 63c0 57 -41 98 -100 98c-50 0 -92 -28 -116 -77zM315 195l-1 19c-1 10 0 19 2 34c-7 -1 -7 -1 -14 -3c-57 -17 -97 -31 -111 -41c-24 -17 -36 -44 -36 -81c0 -51 26 -82 69 -82
c34 0 68 21 81 50c7 16 12 68 10 104zM108 644h295v-53h-295v53z" />
    <glyph glyph-name="emacron" unicode="&#x113;" horiz-adv-x="504" 
d="M441 92l10 -6l-3 -8c-8 -20 -10 -27 -13 -45c-56 -35 -101 -49 -160 -49c-144 0 -236 95 -236 245c0 153 86 247 227 247c130 0 204 -78 204 -214c0 -5 -1 -18 -2 -32c-40 2 -92 3 -156 3l-151 -1c-1 -7 -1 -13 -1 -15c0 -111 57 -180 149 -180c49 0 90 17 132 55z
M260 274h26c41 0 47 0 71 2c-2 50 -4 70 -10 91c-13 47 -41 72 -82 72c-60 0 -99 -61 -103 -164c26 -1 32 -1 98 -1zM120 644h295v-53h-295v53z" />
    <glyph glyph-name="imacron" unicode="&#x12b;" horiz-adv-x="241" 
d="M59 467c31 -3 46 -4 67 -4c20 0 33 1 57 4c-4 -44 -8 -170 -8 -239c0 -80 3 -181 8 -232c-26 3 -39 4 -60 4c-20 0 -35 -1 -64 -4c6 71 9 150 9 246c0 94 -3 160 -9 225zM-4 644h250v-53h-250v53z" />
    <glyph glyph-name="kcommaaccent" unicode="&#x137;" horiz-adv-x="488" 
d="M484 2l-2 -6c-32 3 -48 4 -66 4c-19 0 -35 -1 -68 -4c-44 68 -101 152 -121 177c-43 55 -43 55 -49 55c-2 0 -4 0 -6 -1l1 -125c1 -38 1 -64 2 -80c0 -9 0 -12 1 -26c-30 3 -44 4 -61 4c-16 0 -30 -1 -58 -4c6 91 9 225 9 385c0 169 -3 289 -8 355c28 -3 41 -4 60 -4
c18 0 33 1 64 4c-6 -100 -10 -275 -9 -479c20 -8 59 31 207 210c18 -2 27 -3 41 -3c20 0 34 1 58 6c-13 -13 -18 -17 -103 -96c-25 -24 -42 -40 -46 -44l-40 -40l-9 -9l10 -15c70 -99 135 -187 193 -264zM172 -286l-17 6l50 174c9 32 23 46 46 46s44 -17 44 -37
c0 -10 -6 -23 -18 -41z" />
    <glyph glyph-name="lcommaaccent" unicode="&#x13c;" horiz-adv-x="239" 
d="M57 736c27 -3 40 -4 63 -4c22 0 35 1 61 4c-4 -64 -8 -230 -8 -364c0 -156 3 -300 8 -376c-33 3 -47 4 -62 4s-28 -1 -62 -4c7 107 9 210 9 368c0 163 -3 297 -9 372zM39 -286l-17 6l50 174c9 32 23 46 47 46c23 0 44 -17 44 -37c0 -11 -4 -20 -19 -41z" />
    <glyph glyph-name="ncommaaccent" unicode="&#x146;" horiz-adv-x="551" 
d="M175 400l-1 -12c42 61 91 89 157 89c96 0 156 -61 156 -162c0 -16 -1 -45 -2 -75c-1 -33 -2 -64 -2 -93c0 -55 2 -111 5 -151c-29 3 -42 4 -63 4c-18 0 -32 -1 -57 -4c3 45 7 163 7 219c0 74 -3 109 -12 132c-15 40 -44 60 -85 60c-43 0 -77 -26 -90 -67
c-10 -31 -12 -59 -12 -177c0 -63 1 -98 5 -167c-27 3 -41 4 -59 4c-17 0 -31 -1 -61 -4c5 56 8 144 8 244c0 78 -2 131 -8 227c29 -3 43 -4 62 -4s32 1 55 4c-2 -16 -2 -22 -2 -40c-1 -20 -1 -23 -1 -27zM195 -286l-17 6l50 174c9 32 23 46 47 46c23 0 44 -17 44 -37
c0 -10 -5 -20 -19 -41z" />
    <glyph glyph-name="omacron" unicode="&#x14d;" horiz-adv-x="562" 
d="M283 476c155 0 240 -89 240 -250c0 -151 -92 -242 -242 -242c-152 0 -242 91 -242 246s90 246 244 246zM281 440c-79 0 -119 -71 -119 -210s40 -210 119 -210c78 0 119 71 119 207c0 144 -38 213 -119 213zM133 644h295v-53h-295v53z" />
    <glyph glyph-name="rcommaaccent" unicode="&#x157;" horiz-adv-x="351" 
d="M333 363l-9 -7c-20 10 -33 14 -50 14c-40 0 -73 -23 -89 -61c-8 -21 -11 -49 -11 -123c0 -64 3 -139 7 -190c-33 3 -46 4 -59 4c-15 0 -27 -1 -61 -4c6 53 8 127 8 238c0 83 -2 136 -8 233c31 -3 44 -4 59 -4s28 1 53 4c-1 -31 -2 -61 -2 -115c33 78 84 124 139 124
c7 0 13 -1 26 -3c-4 -22 -6 -39 -6 -62c0 -16 1 -26 3 -48zM47 -286l-17 6l50 174c9 32 23 46 47 46c23 0 44 -17 44 -37c0 -11 -4 -20 -19 -41z" />
    <glyph glyph-name="umacron" unicode="&#x16b;" horiz-adv-x="551" 
d="M66 222l1 103c0 51 -1 87 -4 142c31 -3 45 -4 64 -4c18 0 31 1 56 4c-4 -73 -7 -192 -7 -244c0 -72 4 -103 16 -125c15 -27 45 -44 80 -44c45 0 80 28 93 75c8 30 9 45 9 174c0 52 -2 128 -5 164c32 -3 46 -4 63 -4s31 1 57 4c-5 -94 -7 -150 -7 -244
c0 -100 2 -168 6 -227c-23 3 -36 4 -54 4c-17 0 -30 -1 -60 -4c2 26 3 35 4 81c-35 -60 -90 -93 -158 -93c-45 0 -83 14 -111 40c-32 31 -44 66 -44 132c0 9 0 38 1 66zM128 644h295v-53h-295v53z" />
    <glyph glyph-name="uogonek" unicode="&#x173;" horiz-adv-x="551" 
d="M66 222l1 103c0 51 -1 87 -4 142c31 -3 45 -4 64 -4c18 0 31 1 56 4c-4 -73 -7 -192 -7 -244c0 -72 4 -103 16 -125c15 -27 45 -44 80 -44c45 0 80 28 93 75c8 30 9 45 9 174c0 52 -2 128 -5 164c32 -3 46 -4 63 -4s31 1 57 4c-6 -95 -7 -149 -7 -247s2 -160 6 -224
c-55 -31 -72 -49 -72 -76s20 -43 52 -43c13 0 23 1 42 5l11 -29c-29 -8 -45 -10 -69 -10c-63 0 -103 29 -103 74c0 35 17 54 75 83c-17 -1 -27 -1 -50 -4c2 26 3 35 4 81c-35 -60 -90 -93 -158 -93c-45 0 -83 14 -111 40c-32 31 -44 66 -44 132c0 9 0 38 1 66z" />
    <glyph glyph-name="rcaron" unicode="&#x159;" horiz-adv-x="351" 
d="M333 363l-9 -7c-19 10 -33 14 -50 14c-39 0 -73 -23 -88 -61c-9 -21 -11 -48 -11 -124c0 -69 2 -139 7 -189c-34 3 -46 4 -60 4c-15 0 -27 -1 -61 -4c6 54 9 125 9 238c0 86 -2 134 -9 233c31 -3 44 -4 59 -4s28 1 53 4c-1 -24 -2 -66 -2 -115c34 79 84 124 139 124
c8 0 13 -1 26 -3c-4 -21 -5 -40 -5 -62c0 -16 0 -25 2 -48zM171 607l115 96h37l-125 -162h-57l-119 162h36z" />
    <glyph glyph-name="scedilla" unicode="&#x15f;" horiz-adv-x="408" 
d="M209 -15l-2 -47c18 5 27 6 40 6c51 0 85 -25 85 -62c0 -51 -50 -85 -125 -85c-38 0 -70 7 -105 25l12 22c25 -10 48 -15 74 -15c41 0 67 18 67 46c0 23 -19 39 -47 39c-10 0 -18 -1 -31 -6l-7 6v69c-46 1 -87 11 -131 30c6 15 14 59 19 100h11c23 -56 68 -90 121 -90
c50 0 89 32 89 73c0 37 -20 54 -89 80c-60 22 -86 34 -107 52c-26 22 -42 59 -42 99c0 91 70 149 181 149c55 0 100 -10 139 -32l-4 -13c-4 -11 -8 -22 -12 -34c-2 -6 -6 -19 -13 -44h-11c-15 56 -54 87 -108 87c-46 0 -79 -29 -79 -69c0 -25 13 -45 38 -60
c21 -12 32 -16 90 -35c85 -27 119 -63 119 -127c0 -86 -68 -152 -172 -164z" />
    <glyph glyph-name="scedilla" unicode="&#xf6c2;" horiz-adv-x="408" 
d="M209 -15l-2 -47c18 5 27 6 40 6c51 0 85 -25 85 -62c0 -51 -50 -85 -125 -85c-38 0 -70 7 -105 25l12 22c25 -10 48 -15 74 -15c41 0 67 18 67 46c0 23 -19 39 -47 39c-10 0 -18 -1 -31 -6l-7 6v69c-46 1 -87 11 -131 30c6 15 14 59 19 100h11c23 -56 68 -90 121 -90
c50 0 89 32 89 73c0 37 -20 54 -89 80c-60 22 -86 34 -107 52c-26 22 -42 59 -42 99c0 91 70 149 181 149c55 0 100 -10 139 -32l-4 -13c-4 -11 -8 -22 -12 -34c-2 -6 -6 -19 -13 -44h-11c-15 56 -54 87 -108 87c-46 0 -79 -29 -79 -69c0 -25 13 -45 38 -60
c21 -12 32 -16 90 -35c85 -27 119 -63 119 -127c0 -86 -68 -152 -172 -164z" />
    <glyph glyph-name="gcommaaccent" unicode="&#x123;" horiz-adv-x="528" 
d="M517 422l-116 3c35 -34 46 -58 46 -100c0 -63 -35 -115 -92 -137c-35 -13 -51 -15 -128 -18c-31 -2 -49 -16 -49 -39c0 -15 9 -27 27 -33c14 -6 37 -8 110 -9c99 -2 121 -5 151 -24c36 -22 55 -63 55 -115c0 -130 -105 -217 -261 -217c-140 0 -228 57 -228 149
c0 64 38 105 116 126c-43 14 -64 39 -64 76c0 43 22 66 90 93c-81 22 -123 71 -123 143c0 99 74 156 204 156c32 0 32 0 121 -9c21 -2 42 -3 68 -3c24 0 42 1 73 4c-2 -10 -3 -16 -3 -24c0 -7 1 -12 3 -22zM255 442c-61 0 -89 -41 -89 -128c0 -73 28 -110 84 -110
c57 0 85 41 85 123c0 78 -26 115 -80 115zM263 3c-49 0 -77 -5 -101 -18c-28 -16 -46 -49 -46 -87c0 -74 66 -129 155 -129c88 0 148 54 148 133c0 73 -44 101 -156 101zM346 763l16 -6l-48 -170c-9 -31 -23 -45 -45 -45c-23 0 -43 17 -43 36c0 10 6 24 18 40z" />
    <glyph glyph-name="iogonek" unicode="&#x12f;" horiz-adv-x="242" 
d="M211 -116l11 -29c-29 -8 -46 -11 -70 -11c-67 0 -108 29 -108 75c0 35 22 59 79 81c-24 0 -38 -1 -65 -4c6 72 9 152 9 245c0 94 -3 162 -9 226c31 -3 46 -4 66 -4c21 0 34 1 58 4c-4 -49 -8 -171 -8 -241c0 -74 3 -170 7 -230c-51 -29 -70 -50 -70 -74
c0 -28 21 -44 58 -44c14 0 23 1 42 6zM122 698c36 0 66 -30 66 -67c0 -36 -30 -66 -67 -66c-36 0 -66 30 -66 66c0 37 30 67 67 67z" />
    <glyph glyph-name="Scommaaccent" unicode="&#x218;" horiz-adv-x="520" 
d="M424 539h-12c-20 58 -70 95 -130 95c-64 0 -112 -43 -112 -101c0 -32 16 -61 44 -82c22 -16 33 -22 106 -56c60 -28 87 -45 111 -68c32 -31 49 -74 49 -122c0 -60 -26 -119 -70 -160c-46 -43 -106 -63 -185 -63c-66 0 -113 11 -177 42c10 34 18 92 20 134h14
c25 -78 86 -127 158 -127c73 0 127 52 127 122c0 32 -11 58 -33 77c-24 21 -31 25 -113 64c-115 56 -157 106 -157 190c0 121 92 201 231 201c60 0 112 -15 164 -47c-10 -21 -22 -56 -35 -99zM170 -305l-17 8l54 188c11 36 26 51 50 51c25 0 46 -18 46 -39
c0 -12 -6 -26 -20 -46z" />
    <glyph glyph-name="Dcroat" unicode="&#x110;" horiz-adv-x="772" 
d="M99 331c-63 0 -78 0 -109 -2c1 11 1 16 1 26c0 8 0 12 -1 22c21 -1 71 -2 109 -2c-2 183 -3 202 -10 296c32 -3 51 -4 83 -4c16 0 50 1 100 2c37 1 74 2 103 2c118 0 186 -18 244 -67c69 -57 107 -147 107 -252c0 -110 -41 -206 -116 -271c-67 -59 -148 -85 -263 -85
c-21 0 -62 1 -101 2c-31 1 -56 2 -75 2c-31 0 -50 -1 -82 -4c6 56 9 161 10 335zM218 332c1 -156 2 -221 5 -283c31 -4 51 -5 80 -5c98 0 158 19 204 64c53 53 82 135 82 237c0 94 -25 170 -73 217c-43 43 -100 60 -201 60c-35 0 -58 -2 -92 -7c-3 -78 -3 -93 -5 -241
c85 0 141 1 175 3c-2 -13 -2 -17 -2 -20s0 -10 1 -19c0 -2 0 -5 1 -9c-31 1 -72 2 -175 3z" />
    <glyph glyph-name="dcroat" unicode="&#x111;" horiz-adv-x="556" 
d="M252 602l-1 10c35 -2 53 -2 62 -2c2 -1 27 -1 69 -1c-1 61 -2 91 -5 127c31 -3 45 -4 62 -4c18 0 32 1 62 4c-3 -36 -5 -78 -6 -127c38 1 64 2 78 3c-1 -15 -1 -18 -1 -22c0 -1 0 -7 1 -14v-8c-16 0 -17 0 -28 1h-40h-11c-3 -107 -3 -142 -3 -275c0 -110 3 -244 6 -298
c-28 3 -42 4 -60 4c-19 0 -31 -1 -55 -4c3 42 4 58 5 90c-35 -72 -80 -102 -153 -102c-120 0 -195 91 -195 237c0 155 80 255 204 255c68 0 113 -27 141 -83c0 66 0 97 -1 177c-66 -1 -100 -1 -132 -2v10l1 14v10zM277 423c-75 0 -115 -71 -115 -203
c0 -119 38 -185 106 -185c72 0 116 79 116 210c0 112 -40 178 -107 178z" />
    <glyph glyph-name="middot" unicode="&#xe000;" horiz-adv-x="248" 
d="M124 313c39 0 71 -32 71 -71s-32 -71 -72 -71c-38 0 -70 33 -70 71c0 39 32 71 71 71z" />
    <glyph glyph-name="commaaccent" unicode="&#xf6c3;" horiz-adv-x="500" 
d="M180 -295l-16 7l52 179c9 33 24 48 48 48c23 0 43 -17 43 -37c0 -11 -5 -22 -19 -43z" />
    <glyph glyph-name="nbspace" unicode="&#xe001;" horiz-adv-x="250" 
 />
    <glyph glyph-name="lozenge" unicode="&#x25ca;" horiz-adv-x="617" 
d="M308 704l290 -363l-290 -371l-287 371zM308 607l-209 -266l209 -275l212 275z" />
    <glyph glyph-name="Delta" unicode="&#x394;" horiz-adv-x="654" 
d="M303 671l23 -1c16 -1 27 -1 33 -1c11 0 13 0 50 2c84 -270 117 -364 234 -675c-221 4 -221 4 -320 4c-107 0 -156 -1 -311 -4c83 170 151 328 291 675zM117 84c39 -2 118 -3 187 -3c53 0 163 1 194 2c-65 217 -119 369 -173 497c-125 -289 -141 -327 -208 -496z" />
    <glyph glyph-name="Delta" unicode="&#x2206;" horiz-adv-x="654" 
d="M303 671l23 -1c16 -1 27 -1 33 -1c11 0 13 0 50 2c84 -270 117 -364 234 -675c-221 4 -221 4 -320 4c-107 0 -156 -1 -311 -4c83 170 151 328 291 675zM117 84c39 -2 118 -3 187 -3c53 0 163 1 194 2c-65 217 -119 369 -173 497c-125 -289 -141 -327 -208 -496z" />
    <glyph glyph-name="notequal" unicode="&#x2260;" 
d="M161 208h-103v71h153l60 87h-213v71h263l78 111l44 -31l-56 -80h103v-71h-153l-60 -87h213v-71h-263l-78 -111l-44 31z" />
    <glyph glyph-name="radical" unicode="&#x221a;" horiz-adv-x="483" 
d="M6 352h145l76 -229l212 577h158v-51h-114l-238 -649h-73l-102 303h-64v49z" />
    <glyph glyph-name="lessequal" unicode="&#x2264;" horiz-adv-x="571" 
d="M493 486l36 -47l-390 -155l386 -154l-42 -49l-450 181v44zM30 58h511v-58h-511v58z" />
    <glyph glyph-name="greaterequal" unicode="&#x2265;" horiz-adv-x="571" 
d="M539 306v-44l-450 -181l-42 49l386 154l-390 155l36 47zM541 58v-58h-511v58h511z" />
    <glyph glyph-name="summation" unicode="&#x2211;" horiz-adv-x="590" 
d="M382 408l29 -33c-42 -45 -84 -89 -126 -133c-40 -42 -73 -80 -122 -138c79 -2 119 -3 174 -3c71 0 106 1 186 7c-2 -26 -3 -45 -3 -59c0 -11 1 -30 3 -53c-102 3 -152 4 -221 4c-76 0 -93 0 -244 -4c2 19 3 35 3 44c0 11 -1 26 -3 47c88 81 165 164 242 259
c-48 63 -170 202 -226 256c1 16 2 27 2 35c0 7 -1 19 -2 34c141 -6 168 -7 206 -7c46 0 74 1 194 7c-1 -15 -2 -27 -2 -34c0 -8 1 -20 2 -36c-58 6 -88 7 -148 7c-39 0 -65 -1 -111 -3c31 -39 44 -54 69 -84c13 -16 45 -53 98 -113z" />
    <glyph glyph-name="partialdiff" unicode="&#x2202;" horiz-adv-x="570" 
d="M273 766v-25c-75 -6 -109 -27 -109 -68c0 -47 35 -81 143 -139c102 -54 124 -68 155 -104c40 -48 65 -121 65 -195c0 -155 -94 -251 -247 -251c-148 0 -237 91 -237 244c0 92 32 166 89 206c38 27 74 38 139 40c-136 59 -200 115 -200 176c0 29 17 59 42 75
c36 24 80 35 160 41zM286 440c-82 0 -129 -76 -129 -211c0 -133 47 -208 129 -208c80 0 126 74 126 204c0 143 -42 215 -126 215z" />
    </font>
</defs>
</svg>
